<?xml version="1.0" standalone="no"?>
<!DOCTYPE svg PUBLIC "-//W3C//DTD SVG 1.1//EN" "http://www.w3.org/Graphics/SVG/1.1/DTD/svg11.dtd" >
<svg>
<metadata>
Created by FontForge 20120731 at Tue May  5 11:39:43 2015
 By root
(c) 1992 Unity Progress. Portions (c) 2004 The Monotype Corporation. Portions (c) 2004 Microsoft Corporation. All Rights Reserved.
</metadata>
<defs>
<font id="JasmineUPCItalic" horiz-adv-x="0" >
  <font-face 
    font-family="JasmineUPC"
    font-weight="400"
    font-style="italic"
    font-stretch="normal"
    units-per-em="4096"
    panose-1="2 2 5 3 5 4 5 9 3 4"
    ascent="3276"
    descent="-820"
    x-height="1200"
    cap-height="1860"
    bbox="-1855 -1266 3613 3064"
    underline-thickness="20"
    underline-position="-123"
    unicode-range="U+0020-25CC"
  />
    <missing-glyph />
    <glyph glyph-name="000a" horiz-adv-x="3072" 
d="M512 0v2560h2048v-2560h-2048zM2496 64v2432h-1920v-2432h1920z" />
    <glyph glyph-name="glyph1" 
 />
    <glyph glyph-name="glyph2" 
 />
    <glyph glyph-name="space" unicode=" " horiz-adv-x="909" 
 />
    <glyph glyph-name="space" unicode="&#xa0;" horiz-adv-x="909" 
 />
    <glyph glyph-name="exclam" unicode="!" horiz-adv-x="1073" 
d="M438 -8q-80 0 -122 45.5t-42 114.5q0 86 65 159.5t169 73.5q83 0 123.5 -45t40.5 -115q0 -87 -64.5 -160t-169.5 -73zM537 549q-33 0 -33 336q0 236 20.5 514.5t57.5 484.5q42 230 229 230q156 0 156 -156q0 -22 -9 -74q-43 -244 -134 -559.5t-176.5 -545.5t-110.5 -230z
" />
    <glyph glyph-name="quotedbl" unicode="&#x22;" horiz-adv-x="1085" 
d="M840 1864l-467 -590h-115l340 590h242zM1204 1864l-463 -590h-114l336 590h241z" />
    <glyph glyph-name="numbersign" unicode="#" horiz-adv-x="2142" 
d="M492 1253l397 -4l229 500h209l-233 -500h336l229 484h213l-230 -484h451l-65 -127h-451l-176 -368h479l-65 -144l-463 4l-279 -614h-209l283 610h-340l-275 -610h-204l270 610l-405 4l53 119h418l163 385h-409zM1032 1122l-168 -381h340l172 381h-344z" />
    <glyph glyph-name="dollar" unicode="$" horiz-adv-x="1942" 
d="M373 643q36 12 73 12q110 0 123 -86q0 -142 -69 -188q-20 -14 -56.5 -20.5t-58.5 -8.5q1 -22 18.5 -66t67.5 -77q88 -57 168 -57l119 688q-23 6 -80.5 30.5t-124.5 71.5q-147 93 -147 266q0 175 180 303q101 75 206 103q83 21 100 21q5 0 5 -1l37 201h139l-33 -188h193
l33 188h139l-37 -205q41 -4 125 -27.5t172.5 -97.5t99.5 -207q0 -83 -42.5 -154.5t-129.5 -82.5q-73 0 -118 32.5t-45 90.5q0 33 8 49q25 58 58.5 85t51.5 34q0 12 -19 46t-59 52q-29 16 -68 26.5t-59 14.5l-98 -561q0 1 1 1q11 0 113 -48q114 -53 193 -133
q103 -103 103 -246q0 -211 -197 -365q-85 -66 -213.5 -96.5t-163.5 -38.5l-37 -221h-139l37 217h-192l-37 -217h-140l37 217v0q-3 0 -99 33q-99 34 -179 98q-119 96 -119 258q0 91 43.5 162.5t116.5 91.5zM676 1298q-12 -36 -12 -65q0 -68 51.5 -108t87.5 -40l69 406
q-39 -14 -104.5 -61.5t-91.5 -131.5zM770 127h193l110 610l-180 70zM1200 680l-94 -541q52 9 140 65t118 193q8 42 8 58q0 102 -64.5 156t-107.5 69zM1122 1524q-106 0 -106 -13l-82 -475l180 -57l94 532q-8 3 -27.5 8t-58.5 5z" />
    <glyph glyph-name="percent" unicode="%" horiz-adv-x="2814" 
d="M2335 1786l-1544 -1974h-263l1553 1974h254zM709 659q-201 0 -305.5 112t-104.5 278q0 138 71 273t204 221.5t307 86.5q200 0 304.5 -111.5t104.5 -277.5q0 -138 -71 -273t-203.5 -222t-306.5 -87zM2011 4q-200 0 -304.5 111.5t-104.5 277.5q0 138 71 273.5t203.5 222
t306.5 86.5q201 0 305.5 -111.5t104.5 -277.5q0 -138 -71 -273.5t-204 -222t-307 -86.5zM856 1487q-144 -3 -236 -138t-92 -292q0 -111 51.5 -184.5t153.5 -73.5q96 0 171.5 65t118 166t42.5 203q0 112 -53 183t-156 71zM2159 831q-147 -3 -237.5 -137t-90.5 -293
q0 -113 52 -185.5t153 -72.5q95 0 170.5 65.5t118 167t42.5 202.5q0 111 -52.5 182t-155.5 71z" />
    <glyph glyph-name="ampersand" unicode="&#x26;" horiz-adv-x="2032" 
d="M1196 434q260 250 291 418q0 33 -18 52t-53.5 38.5t-49.5 32t-14 37.5q8 49 98 49h385q86 0 86 -53q-5 -44 -70 -62q-97 -39 -127 -69q-73 -74 -143 -177l-311 -356q175 -205 401 -205q38 0 97 12.5t87 12.5q41 0 41 -45q-8 -46 -118 -103q-110 -41 -234 -41
q-259 0 -454 218q-304 -230 -603 -230q-132 0 -242 48.5t-175.5 141.5t-65.5 216q0 24 8 82q62 325 525 561q-119 198 -119 352q0 61 8 94q35 204 209.5 321t384.5 117q163 0 262 -81q102 -97 102 -279q-29 -168 -178.5 -279.5t-402.5 -244.5zM594 913q-324 -162 -373 -421
q-8 -50 -8 -70q0 -139 99 -221t249 -82q129 0 229.5 40t221.5 128zM1208 1516q0 136 -62.5 203t-174.5 67q-119 0 -223.5 -68.5t-124.5 -185.5q0 -222 118 -414q194 92 320 182.5t147 215.5z" />
    <glyph glyph-name="quotesingle" unicode="'" horiz-adv-x="713" 
d="M795 1864l-467 -590h-115l340 590h242z" />
    <glyph glyph-name="parenleft" unicode="(" horiz-adv-x="1020" 
d="M696 -311q0 -41 -37 -41q-55 0 -141 98.5t-150.5 285.5t-64.5 439q0 148 33 348q49 272 152 493t224 372.5t224.5 231t148.5 79.5q21 0 21 -17q0 -10 -12 -28q-9 -17 -87 -110.5t-151 -214.5t-145.5 -322t-120.5 -484q-45 -262 -45 -483q0 -155 20 -263.5t46.5 -177
t55 -126.5t29.5 -80z" />
    <glyph glyph-name="parenright" unicode=")" horiz-adv-x="1020" 
d="M565 819q53 288 53 496q0 185 -30.5 307t-76 217t-48.5 111q0 45 24 45q51 0 140 -101t157 -292t68 -443q0 -147 -33 -340q-46 -272 -146 -494.5t-217.5 -372t-218.5 -227t-151 -77.5q-20 0 -20 41q7 22 80 111t141 200t144.5 315t133.5 504z" />
    <glyph glyph-name="asterisk" unicode="*" horiz-adv-x="1339" 
d="M397 1135l-57 131l426 180l-365 176l103 135l307 -250l33 430h155l-110 -430l397 250l53 -135l-430 -176l361 -180l-99 -131l-311 245l-33 -430h-155l114 426z" />
    <glyph glyph-name="plus" unicode="+" horiz-adv-x="1495" 
d="M963 1303l-74 -422h422l-41 -230h-422l-74 -422h-229l73 422h-421l41 230h421l74 422h230z" />
    <glyph glyph-name="comma" unicode="," horiz-adv-x="635" 
d="M217 -4q-176 0 -176 119q0 31 12 61q49 131 197 131q51 0 86 -20q74 -44 74 -144q0 -79 -50 -172q-64 -120 -174.5 -205t-165.5 -85q-24 0 -24 16q0 29 53 65t85.5 73.5t50.5 72t24.5 59t7.5 29.5z" />
    <glyph glyph-name="hyphen" unicode="-" horiz-adv-x="1495" 
d="M197 696l45 246h1134l-45 -246h-1134z" />
    <glyph glyph-name="period" unicode="." horiz-adv-x="635" 
d="M209 0q-72 0 -110 40.5t-38 102.5q0 79 57.5 144t151.5 65q148 0 148 -143q0 -80 -58 -144.5t-151 -64.5z" />
    <glyph glyph-name="slash" unicode="/" horiz-adv-x="1528" 
d="M1585 1638l-1270 -1638h-258l1274 1638h254z" />
    <glyph glyph-name="zero" unicode="0" horiz-adv-x="1872" 
d="M1745 909q-42 -235 -165.5 -446.5t-318.5 -341t-438 -129.5q-308 0 -467 200.5t-159 503.5q0 91 20 213q42 238 166.5 448.5t322 340t441.5 129.5q304 -3 461 -202.5t157 -502.5q0 -90 -20 -213zM1114 1647q-154 0 -272.5 -110.5t-192 -279.5t-104.5 -348
q-21 -126 -21 -245q0 -216 77 -354t251 -138q156 0 276 109t195.5 280t106.5 348q20 130 20 242q0 218 -79 357t-257 139z" />
    <glyph glyph-name="one" unicode="1" horiz-adv-x="1872" 
d="M451 78q19 82 81 82h62q69 0 119 41q28 21 45 118l184 1061q0 20 8 54q0 21 -12 41q-15 20 -66 20h-139q-57 0 -65 8q-9 9 -9 25q0 39 25 74q4 8 120 23t195 58q67 35 112 77t59.5 50.5t66.5 8.5q61 0 61 -74l-249 -1426q0 -24 2 -64q1 -40 6 -50q25 -45 78 -45h57
q78 0 78 -82q-8 -51 -33 -64.5t-70 -13.5h-655q-35 0 -48 13.5t-13 64.5z" />
    <glyph glyph-name="two" unicode="2" horiz-adv-x="1872" 
d="M541 1245q-185 0 -185 131q0 36 13 78q53 175 260 271t481 102q335 0 513.5 -105.5t178.5 -296.5q0 -21 -8 -77q-27 -136 -109 -231t-200 -162.5t-321 -152.5t-283 -122q-192 -89 -309 -201.5t-130 -183.5q0 -63 16.5 -78.5t69.5 -15.5h672q115 0 189 37q68 33 112 92
t68 59q12 0 12 -90l-61 -180q-16 -65 -54 -90q-49 -29 -155 -29h-1073q-131 0 -140 29q0 230 156 438q121 157 298 270.5t452 220.5q249 101 374.5 190t141.5 232q0 283 -426 283q-155 0 -281 -45t-137 -131v-94q0 -56 -26.5 -91.5t-108.5 -56.5z" />
    <glyph glyph-name="three" unicode="3" horiz-adv-x="1872" 
d="M504 1389q-41 0 -69.5 26t-28.5 68q0 46 20 82q151 262 696 262q611 0 611 -410q-27 -207 -200.5 -288t-283.5 -93q41 0 135.5 -26.5t182.5 -108.5t88 -233q0 -22 -8 -86q-33 -193 -153.5 -327t-304 -198.5t-407.5 -64.5q-258 0 -452.5 97.5t-194.5 250.5q0 21 8 61
q22 79 76.5 123.5t116.5 44.5q44 0 70 -20q53 -38 53 -82q0 -22 -16.5 -64t-16.5 -67q0 -35 29 -70q95 -102 307 -102q41 0 139 8q412 49 451 410q0 143 -71.5 221t-165 104.5t-202 34t-118.5 12.5q-25 13 -25 54q0 68 45 94q27 15 132 16q104 1 197.5 20.5t186.5 86.5
q107 79 107 200q0 130 -131 201q-82 41 -226 41q-216 0 -315 -65q-63 -41 -97 -105.5t-56 -85.5t-109 -22z" />
    <glyph glyph-name="four" unicode="4" horiz-adv-x="1872" 
d="M1380 500l-32 -181q0 -24 2 -64q1 -40 6 -50q25 -45 78 -45h57q82 0 82 -82q-8 -52 -33 -65t-74 -13h-651q-36 0 -50.5 14t-14.5 64q19 82 81 82h62q73 0 123 41q24 20 41 118l33 181h-873q-90 0 -106 37q0 85 84.5 221.5t213 282.5t267.5 270q163 145 319.5 261.5
t282 181.5t209.5 65q69 0 92 -9t23 -45l-193 -1101h250q34 0 47.5 -12.5t13.5 -69.5q-8 -54 -27.5 -68t-58.5 -14h-254zM1253 1438q0 65 -28 73q-88 0 -471 -344q-159 -143 -268 -277.5t-109 -197.5q12 -28 115 -28h626z" />
    <glyph glyph-name="five" unicode="5" horiz-adv-x="1872" 
d="M1716 1827q-4 -65 -106 -158t-262 -113q-82 -8 -123 -8q-131 0 -284.5 26t-174.5 36l-168 -492h-1q0 3 72 41q78 41 203 74t295 33q248 -24 380 -149.5t132 -330.5q0 -60 -12 -122q-37 -222 -158.5 -373t-304 -224.5t-409.5 -78.5q-271 0 -432.5 106.5t-161.5 331.5
q15 86 67.5 143.5t120.5 57.5q20 0 49 -9q70 -21 70 -86q0 -31 -20.5 -95.5t-20.5 -92.5q0 -86 92 -131t232 -45q169 0 294 57q140 65 224 213t84 295q0 166 -103 250q-119 98 -311 98q-152 0 -287.5 -52t-163.5 -103q-18 -37 -65 -37q-31 0 -66 20q-32 17 -32 49
q0 10 20 70l274 799q90 -15 271 -39.5t323 -26.5q147 0 295 41t152 41q16 0 16 -16z" />
    <glyph glyph-name="six" unicode="6" horiz-adv-x="1872" 
d="M1561 1712q-11 -6 -142 -20.5t-270.5 -68t-280.5 -185.5q-225 -213 -327 -520q217 217 577 217q181 0 311.5 -52.5t198.5 -151.5t68 -239q0 -63 -21 -155q-61 -269 -300.5 -407t-538.5 -138q-328 3 -492 152.5t-164 400.5q0 133 49 291q98 320 279.5 523.5t380 301.5
t357.5 128t265 30q36 0 55 -19t19 -43q0 -33 -24 -45zM1016 967q-163 -1 -289 -72t-191 -181t-65 -222q0 -142 102 -237t299 -95q162 0 286 69t189.5 179.5t65.5 222.5q0 142 -101.5 239t-295.5 97z" />
    <glyph glyph-name="seven" unicode="7" horiz-adv-x="1872" 
d="M319 1389q19 45 63 179.5t60 205.5q13 45 86 45h1221q106 0 111 -37q0 -62 -79.5 -175.5t-258 -338t-273.5 -359.5q-128 -187 -227.5 -364t-179 -335.5t-92.5 -176.5q-34 -41 -189 -41q-149 0 -155 41q0 96 142 322.5t353 488.5q139 170 234 269.5t241.5 246.5t159.5 176
q0 45 -86 45h-770q-62 0 -115 -16q-35 -14 -61.5 -56.5t-51.5 -84.5t-55 -52q-78 0 -78 17z" />
    <glyph glyph-name="eight" unicode="8" horiz-adv-x="1872" 
d="M610 1028q-17 0 -82 31.5t-120.5 97t-55.5 166.5q0 49 8 78q98 418 787 426q254 0 407.5 -99t153.5 -319q-30 -164 -147.5 -253t-270.5 -112q175 -22 284 -133.5t109 -300.5q-29 -313 -268 -469.5t-641 -156.5q-318 0 -476.5 114.5t-158.5 319.5q0 60 13 119
q36 169 136 279t200.5 161t121.5 51zM860 950q-25 0 -125.5 -37.5t-203.5 -127.5t-142 -244q-8 -58 -8 -78q0 -141 122 -224t312 -83q192 0 334 90t182 266q12 49 12 90q0 141 -106 218.5t-215 102t-162 27.5zM1491 1430q0 233 -381 233q-175 0 -299.5 -75t-138.5 -208
q0 -107 164 -168t225 -61q30 0 133.5 26t198 88t98.5 165z" />
    <glyph glyph-name="nine" unicode="9" horiz-adv-x="1872" 
d="M319 127q21 8 148 8q359 0 627 209q171 138 246 304t90 253q-3 -3 -40.5 -40t-105 -76.5t-177 -68t-251.5 -28.5q-269 0 -425.5 118t-156.5 324q0 59 21 152q42 182 166 304t301 181.5t377 59.5q639 -16 639 -553q0 -134 -37 -291q-242 -991 -1372 -991q-103 0 -103 53
q0 47 53 82zM942 852q161 1 286 72t190 181t65 222q0 139 -102.5 235.5t-299.5 96.5q-164 0 -287 -68.5t-188 -178t-65 -224.5q0 -142 103.5 -239t297.5 -97z" />
    <glyph glyph-name="colon" unicode=":" horiz-adv-x="778" 
d="M516 1286q-72 0 -109.5 40t-37.5 99q0 79 59.5 146t153.5 67q73 0 110 -39t37 -100q0 -80 -60 -146.5t-153 -66.5zM291 0q-72 0 -110 40.5t-38 102.5q0 79 57.5 144t151.5 65q148 0 148 -143q0 -80 -58 -144.5t-151 -64.5z" />
    <glyph glyph-name="semicolon" unicode=";" horiz-adv-x="778" 
d="M512 1286q-72 0 -109.5 40t-37.5 99q0 81 59.5 147t153.5 66q73 0 110 -39t37 -100q0 -80 -60 -146.5t-153 -66.5zM307 -4q-176 0 -176 119q0 31 12 61q49 131 197 131q53 0 86 -20q74 -44 74 -144q0 -77 -49 -172q-63 -118 -174.5 -204t-165.5 -86q-25 0 -25 16
q0 29 53 65t85.5 73.5t50.5 72t24.5 59t7.5 29.5z" />
    <glyph glyph-name="less" unicode="&#x3c;" horiz-adv-x="1450" 
d="M1196 156l-991 663l1216 672l-37 -221l-860 -451l709 -442z" />
    <glyph glyph-name="equal" unicode="=" horiz-adv-x="1597" 
d="M225 684h1205l-37 -225h-1205zM315 1184h1205l-41 -226h-1205z" />
    <glyph glyph-name="greater" unicode="&#x3e;" horiz-adv-x="1495" 
d="M180 377l864 442l-700 451l37 221l983 -672l-1221 -663z" />
    <glyph glyph-name="question" unicode="?" horiz-adv-x="1593" 
d="M672 -8q-77 0 -118.5 44.5t-41.5 110.5q0 87 62 158.5t163 71.5q80 0 120 -44.5t40 -111.5q0 -87 -62 -158t-163 -71zM446 1114q-48 10 -81 49t-33 99q0 29 12 65q37 111 135 184t238.5 108.5t298.5 35.5q475 -15 475 -352q-26 -205 -201.5 -313t-335.5 -146
q-34 -8 -57 -111l-61 -229h-152l21 282q5 57 24 86q12 17 140 57.5t227.5 106t140.5 193.5q12 36 12 78q-8 181 -262 196q-329 0 -369 -164q0 -30 14.5 -61t14.5 -70q-17 -94 -201 -94z" />
    <glyph glyph-name="at" unicode="@" horiz-adv-x="2081" 
d="M1311 684q-69 -121 -78 -168q0 -65 74 -65q172 0 385 221q138 148 188 426q12 67 12 131q0 179 -92.5 306t-231.5 189t-282 62q-238 0 -448 -112t-352 -311t-187 -450q-12 -85 -12 -159q0 -198 83.5 -352.5t236 -241t351.5 -86.5q242 0 455.5 111t360.5 327h90
q-167 -261 -409.5 -405t-520.5 -144q-219 0 -393.5 102.5t-271.5 282.5t-97 402q0 52 16 168q49 270 215 494t406 354t498 130q192 0 351 -81.5t252 -230.5t93 -339q0 -69 -12 -143q-44 -266 -254 -484q-246 -253 -500 -253q-139 0 -139 118q0 34 12 78q-196 -180 -381 -180
q-114 0 -173.5 68.5t-59.5 181.5q0 24 8 82q30 178 140 360.5t270 302t331 119.5q182 0 234 -156l61 119h197zM1163 774q197 301 226 451q0 96 -25.5 138t-89.5 42q-130 0 -260.5 -133t-224.5 -316t-117 -313q0 -176 114 -176q116 0 192 74.5t185 232.5z" />
    <glyph glyph-name="A" unicode="A" horiz-adv-x="1827" 
d="M172 479l770 1258q116 172 156 172q45 0 110 -172q75 -184 138.5 -397.5t111 -431t78.5 -429.5l49 -274q14 -62 74 -94q29 -19 29 -54q-9 -57 -111 -57h-311q-86 0 -86 57q8 40 78.5 66t76.5 65q0 84 -61 414l-8 49h-828q-3 -6 -88.5 -176.5t-95.5 -224.5q0 -63 16.5 -88
t47 -52t30.5 -53q-9 -57 -160 -57h-147q-89 0 -122.5 9.5t-33.5 47.5q10 36 54 62q61 38 94 98zM1249 782l-20 62l-217 766l-508 -828h745z" />
    <glyph glyph-name="B" unicode="B" horiz-adv-x="1729" 
d="M41 0q-78 0 -78 57q9 46 74 62q72 20 89.5 45t33.5 106l246 1409q0 39 -70 58q-37 12 -49.5 21.5t-12.5 43.5q10 58 103 58h823q227 0 336 -74q127 -88 127 -320q-27 -152 -166.5 -265.5t-320.5 -180.5q188 -29 323 -146.5t135 -295.5q0 -26 -8 -74q-43 -242 -295 -385
q-196 -119 -495 -119h-795zM508 963q277 62 420.5 102.5t255.5 110.5q188 125 217 278q0 181 -117 228t-321 47q-209 0 -279 -29q-22 -13 -35.5 -35t-21 -46.5t-13 -54t-8.5 -44.5zM397 328q0 -3 -8 -41t-8 -58q0 -50 41 -73q45 -29 237 -29q283 0 447 78q225 98 262 303
q0 356 -410 430l-475 -119z" />
    <glyph glyph-name="C" unicode="C" horiz-adv-x="1827" 
d="M1864 1393q-19 -86 -82 -86q-20 0 -30.5 16.5t-17 40t-10.5 41.5q-50 175 -151 262q-127 102 -311 102q-306 0 -566 -266q-240 -234 -303 -569q-16 -83 -16 -193q0 -228 74 -368q138 -267 507 -267q159 0 291.5 60.5t282.5 185.5q5 4 29 26t42.5 33t38.5 11q50 0 50 -62
q-11 -53 -119.5 -139t-183.5 -127q-238 -131 -500 -131q-224 0 -404.5 92t-281.5 259.5t-101 381.5q0 43 17 164q46 270 220 509t429.5 383t529.5 144q250 0 463 -118q108 -69 119 -99q16 -32 16 -102z" />
    <glyph glyph-name="D" unicode="D" horiz-adv-x="1880" 
d="M893 1860q258 0 422.5 -34.5t302.5 -150.5q242 -206 242 -549q0 -79 -21 -200q-71 -402 -385 -672q-173 -143 -351 -198.5t-403 -55.5h-659q-82 0 -82 57q9 46 74 62q74 24 88 46.5t31 104.5l245 1409q0 38 -69 58q-54 20 -54 65q10 58 95 58h524zM410 446
q-25 -156 -25 -188q0 -76 50.5 -101.5t199.5 -25.5q246 0 444.5 93.5t328 273t173.5 424.5q16 114 16 180q0 271 -135 430q-165 197 -577 197q-117 0 -172.5 -22t-79 -73.5t-43.5 -167.5z" />
    <glyph glyph-name="E" unicode="E" horiz-adv-x="1524" 
d="M406 438q-17 -80 -17 -151q0 -83 40.5 -119.5t148.5 -36.5h380q93 0 166.5 34t165.5 105q2 1 28 23.5t43.5 32.5t31.5 10q37 0 37 -45q-4 -18 -28 -79.5t-30 -84.5q-27 -75 -37.5 -94.5t-31 -25t-78.5 -7.5h-1184q-82 0 -82 57q9 46 74 62q72 24 87.5 47.5t31.5 103.5
l233 1340q8 32 8 53q0 67 -65 78q-32 7 -45 18t-13 43q10 58 99 58h1126q70 -21 70 -123l-9 -156q-7 -41 -49 -41q-20 0 -41 21q-104 168 -262 168h-405q-97 0 -143 -46t-58 -155l-82 -463h488q113 0 180 53q39 33 65 33q33 0 33 -57q0 -31 -16 -127q-9 -54 -23 -82.5
t-59 -28.5q-21 0 -54 33q-28 32 -53.5 38.5t-85.5 6.5h-499z" />
    <glyph glyph-name="F" unicode="F" horiz-adv-x="1421" 
d="M512 1020h524q99 0 164 45q41 33 62 33q41 0 41 -62q0 -30 -10.5 -77t-10.5 -50q-13 -102 -61 -102q-35 0 -58 29q-33 34 -59.5 41.5t-91.5 7.5h-529l-118 -705q0 -39 65 -57q62 -20 62 -66q-10 -57 -103 -57h-344q-82 0 -82 57q9 47 70 62q75 24 89 45.5t30 105.5
l245 1409q0 38 -69 58q-32 12 -45 23t-13 42q10 58 99 58h1126q90 -14 90 -119l4 -156q-21 -41 -49 -41q-21 0 -61 53q-98 132 -279 132h-418q-145 0 -159 -70z" />
    <glyph glyph-name="G" unicode="G" horiz-adv-x="1929" 
d="M1622 934q148 0 221 -21q33 -9 33 -53l-16 -53l-74 -291q-17 -105 -17 -217q-4 -12 -4 -41q-16 -85 -282 -197q-271 -98 -516 -98q-432 0 -660 234q-192 204 -192 516q0 103 16 184q49 279 222 507.5t427 360t531 131.5q136 0 280 -32t236 -90q90 -59 90 -140
q0 -5 -21 -147q0 -127 -65 -127q-31 0 -49 53q-51 181 -144 254q-145 102 -356 102q-227 0 -417.5 -126t-315 -328t-164.5 -426q-12 -87 -12 -164q7 -237 114 -389q177 -246 512 -246q250 0 402 107q85 57 122 147.5t62 224.5q8 49 8 115q-3 74 -40.5 95.5t-159.5 27.5
q-91 0 -140 16q-20 8 -20 58q7 34 41 45q33 8 176 8h172z" />
    <glyph glyph-name="H" unicode="H" horiz-adv-x="2032" 
d="M369 180q0 -29 65 -57q58 -19 58 -66q-10 -57 -99 -57h-352q-82 0 -82 57q9 47 78 62q71 20 86.5 44t32.5 107l245 1409q0 38 -69 58q-62 20 -62 65q9 58 103 58h348q82 0 82 -58q-7 -37 -74 -61q-67 -22 -82 -44t-33 -108l-90 -512h1098l107 602q0 39 -70 58
q-62 20 -62 65q10 58 99 58h360q82 0 82 -58q-9 -46 -78 -61q-69 -19 -85 -43t-33 -109l-242 -1384q0 -51 37 -70l20 -12l25 -12q45 -29 45 -54q-9 -57 -98 -57h-357q-86 0 -86 57q9 45 78 62q71 20 86.5 44t32.5 107l119 676h-1098z" />
    <glyph glyph-name="I" unicode="I" horiz-adv-x="659" 
d="M389 1679q0 41 -70 58q-57 21 -57 65q8 58 98 58h353q82 0 82 -58q-8 -37 -74 -61q-70 -22 -83.5 -42t-35.5 -110l-246 -1409q0 -16 10 -26.5t27.5 -17.5l32.5 -13q57 -18 57 -66q-9 -57 -102 -57h-348q-86 0 -86 57q9 46 82 62q69 20 83 43t31 108z" />
    <glyph glyph-name="J" unicode="J" horiz-adv-x="1221" 
d="M950 1679q0 37 -73 58q-37 14 -49.5 23t-12.5 42q9 58 98 58h357q82 0 82 -58q-10 -45 -74 -61q-68 -21 -82 -42.5t-33 -109.5l-176 -1003q-48 -298 -172 -434q-176 -189 -463 -189q-178 0 -293.5 97t-115.5 296q23 122 113 219t210 97q41 0 67.5 -28.5t26.5 -74.5
q-12 -63 -114 -90q-80 -21 -107 -45q-44 -38 -57 -102q0 -116 78.5 -177t183.5 -61q172 0 279 119q56 58 81.5 135.5t45.5 179.5z" />
    <glyph glyph-name="K" unicode="K" horiz-adv-x="1778" 
d="M369 180q0 -18 10 -28.5t26.5 -16.5t32.5 -12q54 -20 54 -66q-10 -57 -99 -57h-352q-82 0 -82 57q9 47 78 62q71 20 86.5 44t32.5 107l245 1409q0 40 -65 58q-36 11 -49 22t-13 43q10 58 95 58h348q86 0 86 -58q-7 -37 -74 -61q-70 -27 -81.5 -44.5t-33.5 -107.5
l-127 -737l504 410l275 237q22 21 57 54.5t58 63.5t28 54q0 28 -15 44t-42 29t-40.5 27t-13.5 39q9 50 91 50h372q90 0 90 -50q-10 -45 -73 -65q-75 -32 -118 -65.5t-132 -118.5l-496 -447l49 -70q319 -414 418 -757q21 -73 41 -106.5t70 -53.5q61 -26 61 -74
q-9 -53 -98 -53h-328q-115 0 -115 57q5 26 34.5 42t58 32.5t34.5 48.5q0 83 -76.5 242t-175.5 317t-157 228l-397 -308z" />
    <glyph glyph-name="L" unicode="L" horiz-adv-x="1524" 
d="M393 295q0 -12 -7 -40.5t-9 -45.5q0 -29 16 -45q45 -33 221 -33h136l278 12q104 18 155 36.5t128 70.5q71 53 98 53q37 0 37 -49q-4 -20 -37 -104t-45 -101q-33 -49 -135 -49h-1176q-78 0 -78 57q8 38 70 62q72 27 85.5 47.5t29.5 103.5l246 1409q0 39 -70 58
q-37 12 -49.5 21.5t-12.5 43.5q9 58 99 58h344q86 0 86 -58q-7 -37 -74 -61q-67 -22 -80 -42.5t-26 -105.5z" />
    <glyph glyph-name="M" unicode="M" horiz-adv-x="2183" 
d="M1434 1167l352 586q38 63 56.5 85t58.5 22h327q58 0 58 -66q-5 -35 -78 -53q-69 -18 -92 -41.5t-35 -93.5l-250 -1426q0 -37 82 -57q61 -22 61 -66q-9 -57 -98 -57h-344q-78 0 -78 57q7 37 70 62q41 16 56.5 26t22 24t10 37.5t9.5 63.5l233 1332l-516 -857l-262 -393
q-63 -110 -114 -110q-37 0 -58 73l-172 582l-139 619l-29 126l-258 -1454q0 -30 17 -39.5t65 -25.5q70 -20 70 -74q-5 -49 -78 -49h-303q-43 0 -62.5 9t-19.5 48q8 39 74 62q63 25 76 43.5t26 83.5l246 1401q0 57 -19.5 71t-69.5 33.5t-50 50.5q6 58 77 58h340
q28 0 42.5 -21.5t22 -55t13.5 -59.5l279 -1138z" />
    <glyph glyph-name="N" unicode="N" horiz-adv-x="1880" 
d="M1655 1548q2 17 9 66t7 61q0 42 -57 58q-48 21 -59 29t-11 40q10 58 78 58h311q66 0 66 -58q-6 -33 -74 -61q-80 -26 -90 -53q-11 -20 -29 -127l-258 -1463q-12 -70 -25 -102.5t-61 -32.5q-43 0 -53 74q-26 80 -64 162.5t-92.5 185t-93.5 180.5q-189 402 -303.5 622
t-273.5 431l-242 -1368q-8 -50 -8 -62q0 -46 57 -61q38 -7 54 -18.5t16 -51.5q-6 -57 -74 -57h-344q-57 0 -57 57q9 48 69 62q66 12 92 30.5t31 39.5t21 114l221 1245q2 17 7 49t5 45q0 90 -90 111q-37 10 -51.5 18.5t-14.5 38.5q11 50 82 50h291q44 0 181 -205.5
t237 -380.5l98 -172q113 -194 303 -623z" />
    <glyph glyph-name="O" unicode="O" horiz-adv-x="2032" 
d="M262 229q-151 199 -151 476q0 90 20 213q50 270 202 493.5t383.5 354t500.5 130.5q192 0 352 -71t262 -207q156 -190 156 -483q0 -85 -21 -213q-49 -269 -207.5 -489t-395.5 -345t-507 -125q-390 0 -594 266zM1450 365q197 214 254 544q20 117 20 221q0 211 -77 365
q-68 125 -186.5 195.5t-268.5 70.5q-155 0 -300 -79t-257 -216q-186 -219 -242 -544q-20 -117 -20 -205q0 -206 82 -357q126 -266 438 -266t557 271z" />
    <glyph glyph-name="P" unicode="P" horiz-adv-x="1573" 
d="M365 176q0 -34 77 -53q62 -20 62 -66q-9 -57 -98 -57h-357q-82 0 -82 57q7 36 74 62q39 13 58 24t28 26.5t14 43.5t11 57l245 1409q0 38 -69 58q-35 15 -46.5 23.5t-11.5 41.5q10 58 99 58h659q292 0 442 -86q189 -108 189 -316q0 -28 -8 -86q-31 -173 -167 -312.5
t-317 -219.5q-267 -127 -708 -127zM479 844q304 0 583.5 118t326.5 386q0 215 -115 299q-112 82 -344 82q-161 0 -234 -33q-50 -23 -66 -57.5t-28 -106.5z" />
    <glyph glyph-name="Q" unicode="Q" horiz-adv-x="2032" 
d="M852 -37q-177 0 -331.5 75t-254.5 208q-151 206 -151 495q0 102 16 185q35 198 132.5 372t247 310t332.5 212t378 76q174 0 316 -55t243.5 -158t154 -241t52.5 -303q0 -95 -17 -189q-38 -213 -150.5 -406.5t-289 -336t-391.5 -203.5q156 -176 368 -176q32 0 90 8t86 8
q58 0 58 -90q-8 -57 -72 -83.5t-133 -26.5q-166 0 -311 91.5t-238 235.5zM922 365q10 98 73 98q41 0 41 -103q0 -176 33 -258q131 41 240.5 126.5t190.5 199.5t133 242.5t75 255.5q16 81 16 188q0 175 -54 324t-170.5 240t-291.5 91q-317 0 -538.5 -261t-280.5 -595
q-16 -81 -16 -184q0 -276 141.5 -461.5t423.5 -185.5q-4 26 -14.5 85t-10.5 95q0 70 9 103z" />
    <glyph glyph-name="R" unicode="R" horiz-adv-x="1729" 
d="M369 176q0 -18 9.5 -27t25.5 -15t30 -11q32 -15 45 -25t13 -41q-9 -57 -103 -57h-340q-86 0 -86 57q7 34 78 62q72 24 85.5 45.5t29.5 105.5l245 1409q0 38 -69 58q-37 14 -49.5 23t-12.5 42q10 58 99 58h790q250 0 361 -91q143 -97 143 -266q0 -21 -8 -69
q-57 -319 -508 -500q161 -233 283 -672q17 -67 36 -96.5t70 -54.5q53 -28 53 -62q-8 -49 -94 -49h-377q-94 0 -94 53q6 32 44 50t71.5 36.5t40.5 57.5q0 126 -99 351t-176 324l-430 -73zM500 930q257 38 409.5 73t301 131.5t178.5 266.5q0 328 -476 328q-180 0 -233 -33
q-56 -39 -74 -160z" />
    <glyph glyph-name="S" unicode="S" horiz-adv-x="1524" 
d="M979 1073q253 -64 340 -143q123 -111 123 -295q0 -28 -8 -86q-51 -260 -287 -430q-222 -156 -533 -156q-285 0 -446 127q-160 142 -160 324q16 82 78 82q49 0 74 -70q63 -161 155 -229q138 -103 353 -103q126 0 246.5 45.5t207 136.5t107.5 216q0 165 -124 236
t-370.5 136t-371.5 145t-125 257q0 28 8 94q36 232 254 389q200 147 483 147q268 0 447 -122q42 -44 45 -66q0 -63 -21 -147q-12 -86 -57 -86q-21 0 -81.5 85t-154.5 147t-264 62q-143 0 -268.5 -88t-149.5 -227q0 -150 71.5 -220t207.5 -108z" />
    <glyph glyph-name="T" unicode="T" horiz-adv-x="1626" 
d="M836 180q0 -40 69 -57q58 -19 58 -66q-10 -57 -99 -57h-356q-82 0 -82 57q9 47 78 62q71 20 86.5 44t32.5 107l229 1303q2 23 7 51t5 39q0 66 -98 66q-82 0 -217 -25q-100 -23 -250 -127q-4 -3 -36.5 -28t-53.5 -25q-41 0 -41 57q4 21 20 61q59 218 111 218h1409
q43 -13 45 -17q16 -24 16 -192q0 -45 -4 -66q-7 -53 -53 -53q-27 0 -78 49q-90 90 -180 119q-96 29 -213 29q-98 0 -121 -32.5t-43 -140.5z" />
    <glyph glyph-name="U" unicode="U" horiz-adv-x="1929" 
d="M459 819q-33 -175 -33 -287q0 -131 45 -221q55 -108 166 -160.5t227 -52.5q149 0 293.5 57.5t235.5 172.5q88 109 127.5 240t72.5 325l127 704q0 112 -86 144q-61 23 -61 65q9 44 82 54h336q61 -7 61 -58q-6 -31 -78 -61q-54 -21 -74 -46t-32 -89l-131 -738
q-33 -211 -89.5 -364.5t-181.5 -278.5q-262 -262 -680 -262q-140 0 -280.5 56.5t-218.5 168.5q-90 135 -90 332q0 95 32 291l148 844q0 58 -53 86q-31 10 -42.5 21t-11.5 40q10 58 99 58h336q81 0 81 -58q-7 -35 -77 -61q-64 -17 -81 -42t-30 -106z" />
    <glyph glyph-name="V" unicode="V" horiz-adv-x="1778" 
d="M1909 1860q53 0 53 -54q-8 -32 -57 -65q-45 -35 -78 -86l-127 -283q-70 -148 -163.5 -323t-201 -356t-226.5 -355.5t-224 -292.5q-99 -111 -144 -111q-41 0 -86 70q-153 308 -254 766q-83 428 -106 844q-1 65 -17.5 88t-46.5 49.5t-30 54.5q10 54 86 54h364q70 0 70 -58
q-11 -39 -66 -57q-64 -34 -85 -52t-29 -75q-9 -65 -9 -111q0 -197 86 -639q91 -385 209 -663q187 228 426 659q332 591 365 766q0 51 -21.5 70.5t-67.5 49t-46 56.5q9 54 82 54h344z" />
    <glyph glyph-name="W" unicode="W" horiz-adv-x="2388" 
d="M2486 1860q74 0 74 -45q-4 -33 -61 -66q-72 -53 -103 -164q-230 -610 -358 -912t-338 -628q-34 -53 -60 -82t-63 -29q-26 0 -47 33t-38.5 84.5t-21.5 63.5q-133 412 -221 1056q-180 -415 -381 -790q-105 -205 -229 -365q-24 -26 -52 -54t-59 -28q-16 0 -26.5 10.5
t-19 28.5t-15.5 35q-84 255 -128.5 631.5t-47.5 732.5v234q-3 67 -10 89t-48 50q-32 32 -32 61q10 54 90 54h340q78 0 78 -54q-5 -29 -61 -52.5t-85 -44t-39 -83.5q-12 -61 -12 -225q9 -325 20 -426q19 -277 95 -725q273 474 360 668q38 74 102.5 220t116.5 286t68 218
q0 40 -15 63t-44.5 44.5t-38.5 31.5t-9 34q6 45 70 45h336q65 0 65 -50q-5 -30 -56.5 -56t-78.5 -48.5t-37 -83.5q-8 -66 -8 -123q0 -240 58 -602q50 -390 147 -639q147 257 250 485t192 461q137 363 148 422q0 59 -20.5 78t-67.5 47.5t-47 58.5q9 50 69 50h299z" />
    <glyph glyph-name="X" unicode="X" horiz-adv-x="1778" 
d="M819 770q-123 -123 -302 -328t-189 -266q0 -29 22.5 -45.5t45 -33.5t22.5 -48q-8 -49 -90 -49h-324q-98 0 -98 49q5 35 28 45.5t82 28.5q81 29 193 168l213 246l344 376q-233 308 -397 729q-32 76 -82 99q-66 19 -66 74q9 45 94 45h353q82 0 82 -41q-4 -30 -50 -50
q-43 -24 -55.5 -33.5t-17.5 -39.5q0 -167 323 -606l283 290q222 225 233 295q0 34 -16 52t-46.5 34t-43 27t-12.5 35q9 37 73 37h369q74 0 74 -45q-5 -40 -66 -62q-68 -26 -102 -57q-69 -69 -160 -189l-496 -524q271 -347 381 -594l54 -131q29 -60 53.5 -86.5t77.5 -48.5
q57 -21 57 -70q-9 -53 -90 -53h-389q-78 0 -78 49q5 32 37.5 46.5t66.5 30.5t39 42q0 52 -76 185t-173.5 270.5t-143.5 183.5z" />
    <glyph glyph-name="Y" unicode="Y" horiz-adv-x="1778" 
d="M1880 1860q90 0 90 -45q-4 -35 -53 -62q-44 -23 -63 -39t-52 -63q-118 -173 -360 -447q-177 -198 -430 -459l-99 -565q0 -38 70 -57q57 -18 57 -66q-9 -57 -98 -57h-348q-82 0 -82 57q9 46 74 62q71 24 84 44.5t30 106.5l82 484q-11 22 -128.5 238t-188.5 359.5
t-121 278.5q-21 76 -86 107q-61 30 -61 73q9 50 86 50h376q74 0 74 -54q-5 -27 -38.5 -43.5t-65 -31.5t-35.5 -43q0 -123 135 -349q47 -81 123 -226.5t115 -219.5q331 350 450 483q185 211 197 279q0 35 -15.5 56t-45.5 40.5t-40 29.5t-10 34q8 45 90 45h287z" />
    <glyph glyph-name="Z" unicode="Z" horiz-adv-x="1475" 
d="M1446 1860q53 0 79.5 -12t26.5 -62q-30 -175 -766 -971l-356 -397q-178 -197 -184 -238q0 -45 78 -45h311q187 0 313.5 25.5t239.5 122.5q99 82 123 82q28 0 28 -41q-10 -49 -37.5 -141t-44.5 -130q-22 -53 -102 -53h-1069q-135 0 -135 90q6 31 18.5 58t35 60t41 55.5
t40.5 51.5l209 246l729 807q60 65 145 174t93 146q0 45 -91 45h-229q-168 0 -270 -25q-162 -28 -271 -131q-7 -5 -22 -20.5t-25 -22t-22 -6.5q-33 0 -33 37q0 25 8 57q4 10 29 102.5t41 110.5q24 25 98 25h971z" />
    <glyph glyph-name="bracketleft" unicode="[" horiz-adv-x="610" 
d="M352 1815q17 81 33 93.5t98 12.5h160q102 0 102 -57q-9 -45 -86 -62q-78 -28 -110 -53.5t-40.5 -53.5t-29.5 -139l-274 -1564q-5 -34 -13 -73t-8 -58q0 -70 99 -107q77 -29 77 -69q-8 -62 -122 -62h-160q-65 0 -84 5t-19 32q0 14 13 74z" />
    <glyph glyph-name="backslash" unicode="\" horiz-adv-x="1524" 
d="M426 1921h180l438 -1921h-176z" />
    <glyph glyph-name="bracketright" unicode="]" horiz-adv-x="610" 
d="M-12 -377q-111 0 -111 62q4 21 20.5 33.5t40.5 21t42 14.5q71 23 102.5 51t38.5 54.5t26 132.5l275 1564q20 97 20 132q0 40 -23 63.5t-87 50.5q-70 17 -70 62q12 57 131 57h156q65 0 83.5 -5t18.5 -32q0 -21 -12 -69l-365 -2081q-18 -84 -33.5 -97.5t-97.5 -13.5h-155z
" />
    <glyph glyph-name="asciicircum" unicode="^" horiz-adv-x="1675" 
d="M242 713l725 1147h147l328 -1147h-164l-274 958l-603 -958h-159z" />
    <glyph glyph-name="underscore" unicode="_" horiz-adv-x="1270" 
d="M1184 -197l-25 -127h-1118l25 127h1118z" />
    <glyph glyph-name="grave" unicode="`" horiz-adv-x="811" 
d="M508 1749q98 0 115 -12q11 -7 28 -62l86 -229q2 -10 7.5 -29.5t5.5 -36.5q-9 -41 -50 -41q-27 0 -65 54l-221 258q-49 60 -49 73q5 33 53 33z" />
    <glyph glyph-name="a" unicode="a" horiz-adv-x="1270" 
d="M1020 311q-3 -16 -6.5 -37t-6.5 -41.5t-3 -39.5q0 -17 8 -41.5t57 -40.5q41 -15 41 -54q-8 -57 -106 -57h-115q-82 0 -82 53q0 7 2.5 23t5.5 32t4 27l12 66q-191 -238 -466 -238q-164 0 -266.5 87.5t-102.5 273.5q39 217 278 360q209 115 484 115l155 -8
q0 148 -83.5 227.5t-215.5 79.5q-112 0 -241 -70q-17 -9 -40.5 -22.5t-40.5 -20t-38 -6.5q-61 0 -61 65q10 63 122 107q153 70 324 70q227 0 356 -123q105 -105 111 -262q0 -53 -12 -115zM782 684q-122 0 -246.5 -34t-218.5 -113t-116 -201q0 -119 41 -160q74 -74 168 -74
q174 0 303 99q115 86 143 270l37 209z" />
    <glyph glyph-name="b" unicode="b" horiz-adv-x="1319" 
d="M324 1642q0 58 -17.5 77t-60.5 34q-33 10 -33 37q1 13 10 23t24.5 18t22.5 12q168 78 238 78q27 0 32 -18t5 -88l-139 -795q199 201 442 201q206 0 307.5 -120.5t101.5 -318.5q0 -45 -16 -151q-49 -292 -242 -467q-102 -96 -234 -148.5t-261 -52.5q-257 0 -357 156
q-45 80 -45 196q0 76 25 222zM319 537q-20 -145 -20 -181q0 -78 29 -135q69 -139 237 -139q128 0 224.5 71t156 182t82.5 238q8 74 8 123q0 136 -32 217q-26 74 -84.5 125.5t-137.5 51.5q-102 0 -217.5 -67t-187.5 -159z" />
    <glyph glyph-name="c" unicode="c" horiz-adv-x="1167" 
d="M709 1094q-172 0 -295 -168q-123 -147 -160 -369q-8 -66 -8 -94q0 -151 83 -251.5t236 -100.5q201 0 340 139q59 57 90 57q33 0 33 -45q-9 -62 -123 -151q-185 -148 -401 -148q-224 0 -345.5 129.5t-121.5 341.5q0 63 12 131q32 177 137 327.5t262.5 239.5t337.5 89
q151 0 263 -86q73 -59 73 -156q-6 -35 -37.5 -66.5t-64.5 -31.5q-40 0 -52.5 12.5t-45.5 64.5q-46 74 -87.5 105t-125.5 31z" />
    <glyph glyph-name="d" unicode="d" horiz-adv-x="1319" 
d="M1118 1675q0 37 -17.5 50t-60.5 28q-32 21 -32 41q4 25 61 53q173 74 229 74q27 0 32 -17t5 -81l-282 -1622q0 -57 28 -74l29 -16q33 -21 33 -54q-6 -36 -27.5 -46.5t-79.5 -10.5h-159q-25 0 -25 41q0 7 16 115q-193 -193 -422 -193q-211 0 -328.5 136t-117.5 343
q0 61 12 123q49 266 247 461t458 195q154 0 303 -111zM995 987q-90 59 -145 83t-145 24q-186 0 -317.5 -150.5t-166.5 -345.5q-12 -67 -12 -135q0 -157 77 -257t238 -100t287 107q62 49 74 139z" />
    <glyph glyph-name="e" unicode="e" horiz-adv-x="1270" 
d="M242 442q0 -152 103.5 -244t260.5 -92q125 0 211 43.5t162.5 106.5t101.5 63q37 0 37 -45q-15 -86 -196 -196q-185 -115 -385 -115q-145 0 -260.5 59t-179.5 166t-64 246q0 33 8 107q33 183 150 339.5t288.5 248.5t356.5 92q152 0 245 -70q115 -74 115 -254
q-42 -234 -369 -348q-152 -58 -536 -103zM254 553q266 20 486 92.5t251 255.5q0 193 -192 193q-222 0 -367.5 -156t-185.5 -385h8z" />
    <glyph glyph-name="f" unicode="f" horiz-adv-x="762" 
d="M373 315q-17 -68 -17 -163q6 -13 54 -41q41 -15 41 -54q-10 -57 -95 -57h-290q-36 0 -47 9t-11 48q9 32 58 54l36 16q28 13 44 45.5t23.5 68.5t14.5 74l131 762h-61q-72 0 -97.5 11.5t-25.5 54.5q9 36 37.5 46.5t105.5 10.5h66q18 101 32.5 179.5t37 159t53.5 144.5
q59 122 152.5 204.5t207.5 82.5q55 0 93 -33t38 -98q-6 -40 -38 -69t-72 -29q-17 0 -37 20q-39 41 -70 41q-108 0 -159 -315l-50 -287h152q50 0 72 -9.5t22 -51.5q-12 -62 -115 -62h-155z" />
    <glyph glyph-name="g" unicode="g" horiz-adv-x="1319" 
d="M1053 1069q114 -141 114 -319q0 -53 -12 -115q-51 -284 -303 -459q221 -94 221 -319q-37 -209 -254 -291t-467 -82q-154 0 -302 41.5t-148 159.5q10 53 64.5 116.5t103.5 63.5q24 0 24 -41q0 -11 -5 -31t-7 -31q0 -139 332 -139q413 0 450 225q0 102 -46 153.5t-130 88.5
q-107 -33 -205 -33q-213 0 -331.5 121t-118.5 322q0 59 12 127q29 170 127 306t245.5 212t319.5 76q198 -21 467 -21q61 0 90 -10.5t29 -54.5q-8 -40 -50.5 -53t-142.5 -13h-77zM958 651q9 37 9 115q0 146 -69.5 239t-213.5 93q-174 0 -290 -143t-148 -324q-13 -60 -13 -115
q0 -138 66 -230.5t201 -92.5q192 0 308.5 130.5t149.5 327.5z" />
    <glyph glyph-name="h" unicode="h" horiz-adv-x="1421" 
d="M1163 311q-3 -16 -6.5 -37t-6.5 -41.5t-3 -39.5q0 -17 8 -41q4 -25 53 -41q37 -13 37 -54q-6 -57 -74 -57h-274q-52 0 -69 9.5t-17 47.5q9 34 53 54l25 12l33 20q24 28 49 168l90 500q0 266 -242 266q-193 0 -397 -159l-107 -607q-12 -84 -12 -114q0 -21 8 -45
q4 -25 54 -41q41 -15 41 -54q-8 -57 -74 -57h-299q-50 0 -68 9.5t-18 47.5q8 32 57 54q57 18 74 32q36 48 49 168l238 1336q0 56 -17.5 73.5t-60.5 32.5q-33 10 -33 37q1 13 10.5 23.5t24 17t26.5 12.5q156 78 234 78q24 0 28.5 -16.5t4.5 -85.5l-136 -766q216 168 447 168
q194 0 303 -140q57 -77 57 -196q0 -50 -16 -156z" />
    <glyph glyph-name="i" unicode="i" horiz-adv-x="610" 
d="M295 1552q9 59 58 99.5t110 40.5q115 0 115 -131q-12 -66 -59 -107t-113 -41q-111 0 -111 139zM53 0q-78 0 -78 57q11 39 58 54q57 15 80.5 49.5t38.5 113.5l94 537q2 25 7 61.5t5 49.5q0 69 -82 90q-49 16 -49 49q0 18 20 33q34 28 177 82q90 45 106 45q32 0 40.5 -24.5
t8.5 -94.5q0 -56 -41 -283l-90 -508q-12 -96 -12 -159q3 -21 53 -41q41 -15 41 -54q-9 -57 -90 -57h-287z" />
    <glyph glyph-name="j" unicode="j" horiz-adv-x="557" 
d="M295 1552q9 59 56.5 99.5t107.5 40.5q114 0 114 -131q-12 -68 -59 -108t-113 -40q-106 0 -106 139zM336 238q-51 -316 -152 -488q-60 -100 -160 -185t-192 -85q-102 0 -102 94q6 45 41.5 73.5t81.5 28.5q23 0 54 -10t44 -10q61 0 88.5 60t46.5 178l168 942q0 13 4 44
t4 46q0 37 -8 53q-19 24 -74 33q-49 16 -49 49q0 16 21 37q10 6 78 37t94 45q9 3 51.5 22t62.5 19q49 0 49 -70q-3 -90 -49 -332z" />
    <glyph glyph-name="k" unicode="k" horiz-adv-x="1270" 
d="M782 770l-37 -33q194 -220 328 -549q21 -51 62 -73q32 -21 32 -58q-6 -38 -20 -47.5t-49 -9.5h-291q-62 0 -62 49q5 25 27.5 40t46.5 29.5t29 37.5q0 86 -92 237.5t-162 229.5l-254 -181l-21 -127q-4 -21 -7 -39t-6 -38t-3 -41t8 -45q8 -21 49 -37q37 -23 37 -58
q-3 -23 -26 -40t-52 -17h-290q-78 0 -78 57q9 39 57 54q58 18 70 36q16 15 26.5 44.5t16.5 64t10 59.5l217 1237q17 96 17 111q0 64 -74 90q-37 25 -37 41q4 25 70 53q145 74 225 74q24 0 28.5 -17t4.5 -81l-217 -1233q521 356 536 463q0 34 -29 61q-24 14 -24 49
q8 37 65 37h299q58 0 58 -41q-9 -43 -70 -65q-79 -33 -126 -70.5t-140 -126.5z" />
    <glyph glyph-name="l" unicode="l" horiz-adv-x="557" 
d="M356 1651q0 81 -73 102q-33 10 -33 37q1 14 11 24t24.5 16.5t25.5 12.5q41 21 119 49.5t111 28.5q23 0 27.5 -16t4.5 -82l-266 -1512q-8 -82 -8 -135q0 -41 25 -53l28 -12q33 -20 33 -54q-6 -39 -20.5 -48t-57.5 -9h-295q-34 0 -45.5 9.5t-11.5 47.5q10 31 53 54l49 20
q48 32 62 180z" />
    <glyph glyph-name="m" unicode="m" horiz-adv-x="2134" 
d="M1864 184q0 -39 37 -57l24 -16q37 -19 37 -54q-6 -38 -21.5 -47.5t-56.5 -9.5h-274q-47 0 -64.5 9.5t-17.5 47.5q10 35 57 54l35 12.5t35 21t20 39.5l99 553q0 22 6 69t6 71q0 57 -8 81q-36 119 -193 119q-125 0 -248.5 -73t-144.5 -201l-111 -619q0 -24 7 -36.5
t21.5 -19.5t33.5 -17q37 -20 37 -54q-6 -38 -21 -47.5t-61 -9.5h-275q-46 0 -62 9.5t-16 47.5q10 31 54 54q16 6 36 13t36.5 20.5t21.5 39.5l94 529q12 73 12 143q0 221 -204 221q-121 0 -243.5 -73.5t-141.5 -200.5l-111 -619q0 -26 11.5 -40t28.5 -21t30 -12
q37 -14 37 -54q-10 -57 -91 -57h-262q-48 0 -67 10.5t-19 46.5q10 37 53 49q10 4 33 14t38.5 25t19.5 39l110 623q2 16 7 54t5 57q0 76 -57 98q-53 18 -53 45q3 22 32 44.5t54 41.5q114 74 143 74q62 0 62 -226q199 226 450 226q231 0 328 -226q91 103 215 164.5t244 61.5
q193 0 278 -136q49 -70 49 -188q0 -58 -16 -164z" />
    <glyph glyph-name="n" unicode="n" horiz-adv-x="1421" 
d="M1147 184q0 -23 10.5 -37.5t28 -22.5t26.5 -13q33 -20 33 -54q-3 -23 -24 -40t-45 -17h-279q-55 0 -72.5 9t-17.5 48q10 35 57 54l22.5 7.5t29 12t23.5 20.5t15 33l115 656q0 123 -54 180t-196 57q-159 0 -299 -106q-95 -77 -123 -238l-98 -549q0 -51 70 -73
q37 -14 37 -54q-9 -57 -74 -57h-283q-54 0 -74 9.5t-20 47.5q9 33 61 54q15 5 34.5 11t37.5 20.5t23 41.5l114 656q2 16 7.5 42.5t5.5 43.5q0 63 -62 86q-49 20 -49 49q3 31 74 82q120 78 147 78q62 0 70 -140q0 -17 -2 -45t-2 -37q214 222 491 222q215 0 307 -127
q50 -68 50 -185q0 -34 -21 -184z" />
    <glyph glyph-name="o" unicode="o" horiz-adv-x="1421" 
d="M1327 598q-32 -176 -143.5 -322t-273.5 -229.5t-341 -83.5q-151 0 -269.5 68t-184.5 186.5t-66 265.5q0 33 8 107q31 169 144.5 314t276.5 231t329 86q151 0 272 -67.5t188.5 -185.5t67.5 -263q0 -70 -8 -107zM954 250q134 144 168 352q8 37 8 115q0 167 -89.5 272
t-262.5 105q-208 0 -343 -150.5t-173 -365.5q-12 -61 -12 -115q0 -166 88.5 -271.5t259.5 -105.5q200 0 356 164z" />
    <glyph glyph-name="p" unicode="p" horiz-adv-x="1475" 
d="M274 -188q-8 -58 -8 -164q7 -19 53 -37q37 -18 37 -53q-9 -58 -73 -58h-308q-32 0 -44.5 9.5t-12.5 48.5q3 20 49 53q82 0 115 176l180 1032q17 79 17 111q0 91 -86 102q-23 3 -33.5 5.5t-21.5 11t-11 24.5q8 45 104.5 96.5t145.5 51.5q70 0 85.5 -57t20.5 -165
q229 222 463 222t361 -181q82 -124 82 -290q0 -67 -13 -140q-48 -280 -225 -446q-95 -95 -226 -148t-257 -53q-74 0 -170.5 33t-96.5 98q12 58 58 58q23 0 49 -17q82 -45 201 -45q75 0 160 42t143 106q120 143 155 352q13 71 13 143q0 154 -72 247t-227 93q-160 0 -287 -102
q-137 -105 -168 -291z" />
    <glyph glyph-name="q" unicode="q" horiz-adv-x="1319" 
d="M1012 -188q-8 -58 -8 -164q6 -17 49 -37q41 -18 41 -53q-5 -37 -18.5 -47.5t-47.5 -10.5h-311q-35 0 -46.5 11t-11.5 47q3 14 9 21t17 14.5t20 13.5q82 4 110 155l70 402q-188 -201 -439 -201q-211 0 -328.5 136t-117.5 343q0 61 12 123q32 176 135 326t258.5 240
t331.5 90q192 0 316 -107q6 3 72 55t100 52q24 0 24 -33q0 -36 -8 -70zM987 754q8 64 8 94q0 102 -53 160q-77 90 -217 90q-141 0 -247 -73.5t-169.5 -194.5t-87.5 -261q-12 -55 -12 -114q0 -151 80 -250t235 -99q161 0 295 103q61 47 79 90t32 127z" />
    <glyph glyph-name="r" unicode="r" horiz-adv-x="913" 
d="M336 209q0 -70 61 -94q37 -23 37 -54q-13 -61 -98 -61h-270q-74 0 -74 61q5 34 49 50q41 13 66.5 29.5t35.5 68.5l107 610q0 143 -74 185q-53 21 -53 53q8 36 86 86q113 78 156 78q81 0 81 -226v-98q62 109 180.5 216.5t217.5 107.5q114 0 114 -156q-20 -94 -73 -94
q-21 0 -69 26.5t-79 26.5q-87 0 -213 -160q-97 -124 -118 -266z" />
    <glyph glyph-name="s" unicode="s" horiz-adv-x="1016" 
d="M610 705q157 -45 226 -107q65 -71 65 -225q-22 -124 -105 -217t-200.5 -143t-235.5 -50q-151 0 -278 82q-107 72 -107 184q5 27 27.5 50.5t50.5 23.5q31 0 82 -74q59 -78 107 -102q88 -45 168 -45q100 0 193 58t110 155q0 98 -70 139t-219 83.5t-225 97t-76 171.5
q0 20 8 70q23 157 180 270q134 95 316 95q162 0 295 -82q32 -24 32 -115q-18 -115 -53 -115q-27 0 -74.5 57t-102 94.5t-151.5 37.5t-176.5 -46t-97.5 -134q0 -77 45 -112.5t135 -68.5z" />
    <glyph glyph-name="t" unicode="t" horiz-adv-x="762" 
d="M344 319q-12 -54 -12 -94q0 -52 29 -77t106 -25q92 0 124 -10.5t32 -51.5q-13 -61 -95 -61h-340q-77 0 -77 66q0 15 8 57l168 954q-105 0 -147 12.5t-42 61.5q5 49 95 49q102 0 135 66q66 109 102 258q9 29 21 64.5t29.5 59t47.5 23.5q37 0 37 -98l-65 -373h196
q107 0 107 -57q-12 -66 -119 -66h-209z" />
    <glyph glyph-name="u" unicode="u" horiz-adv-x="1319" 
d="M188 852q13 86 13 164q-4 37 -54 61q-32 16 -32 53q5 34 97.5 62.5t139.5 28.5q74 0 74 -86q0 -16 -8 -58l-111 -643q-20 -123 -20 -151q0 -45 8 -66q43 -115 188 -115q88 0 185 36.5t163 99.5q54 51 66.5 90.5t28.5 130.5l73 422q4 24 8.5 44t6.5 33t2 29q0 57 -45 90
q-33 16 -33 45q8 34 70 58q84 41 172 41q53 0 53 -70q0 -42 -8 -90l-135 -750q-13 -83 -13 -164q11 -20 62 -36q41 -22 41 -54q-6 -37 -21 -47t-53 -10h-176q-45 0 -45 172q-103 -93 -227.5 -151t-239.5 -58q-201 0 -275 139q-45 82 -45 189q0 62 17 155z" />
    <glyph glyph-name="v" unicode="v" horiz-adv-x="1167" 
d="M455 1200q41 0 41 -53q-5 -27 -47.5 -53t-64.5 -47.5t-32 -79.5q0 -193 61.5 -431t127.5 -348q145 158 254 349q184 327 204 438q0 86 -32 115q-29 28 -29 61q8 49 78 49h192q37 0 51.5 -7.5t14.5 -41.5q-4 -12 -45 -66q-36 -33 -47.5 -52.5t-38.5 -86.5l-74 -155
q-133 -303 -356 -590q-187 -238 -246 -238q-22 0 -41 18t-38.5 51t-22.5 38q-80 153 -124.5 293.5t-64 281t-29.5 350.5q-2 62 -33.5 94.5t-31.5 57.5q11 53 74 53h299z" />
    <glyph glyph-name="w" unicode="w" horiz-adv-x="1827" 
d="M1167 1200q41 0 41 -49q-6 -30 -35 -46.5t-54 -34t-34 -62.5q-8 -37 -8 -119q0 -158 46.5 -361t105.5 -340q116 122 257 386.5t165 408.5q0 50 -13 74t-35 49.5t-22 44.5q8 49 78 49h192q62 0 62 -41q-5 -21 -21 -37q-57 -69 -98 -176l-61 -135q-196 -415 -344 -618
q-101 -133 -164 -201q-35 -29 -70 -29q-79 0 -148 240.5t-102 439.5q-43 -80 -148.5 -247.5t-212.5 -300t-163 -132.5q-81 0 -156 307q-86 299 -86 721q0 63 -26.5 100.5t-26.5 59.5q8 49 74 49h246q31 0 42 -8.5t11 -48.5q-5 -26 -34.5 -42t-54.5 -32.5t-34 -60.5
q-8 -58 -8 -99q0 -87 32 -340q32 -250 103 -381q96 101 190 245.5t162.5 298.5t89.5 272q0 53 -30.5 88.5t-30.5 62.5q8 45 90 45h233z" />
    <glyph glyph-name="x" unicode="x" horiz-adv-x="1270" 
d="M266 930q-39 71 -61 105.5t-66 58.5q-33 24 -33 65q9 41 66 41h299q31 0 40 -6t9 -35q-4 -24 -38.5 -49.5t-39.5 -48.5q0 -83 193 -332q82 72 183.5 178t111.5 154q0 23 -31 46t-31 52q9 41 74 41h234q34 0 43.5 -6t9.5 -35q-4 -31 -49 -53q-76 -40 -119 -94l-361 -369
l226 -336q56 -105 102 -151q22 -26 74 -45q33 -18 33 -58q-10 -53 -78 -53h-307q-31 0 -42.5 8.5t-11.5 40.5q5 23 41.5 51.5t40.5 51.5q0 19 -25.5 64t-52.5 84.5t-60.5 84.5t-57.5 78l-37 45q-285 -252 -303 -340q0 -35 36.5 -63.5t36.5 -59.5q-9 -45 -77 -45h-287
q-29 0 -37 8.5t-8 44.5q11 40 57 53q63 33 79.5 45t55.5 58l385 385z" />
    <glyph glyph-name="y" unicode="y" horiz-adv-x="1221" 
d="M147 963q0 106 -32 139q-33 31 -33 53q4 45 74 45h270q49 0 49 -41q-4 -24 -40.5 -50t-59 -53t-35.5 -98q-4 -32 -4 -143q0 -209 20 -332q35 -142 90 -213q61 -90 132 -90q118 0 249 250q165 337 193 496q8 56 8 73q0 53 -11 66.5t-43 40t-32 57.5q8 37 62 37h225
q45 0 45 -33q0 -19 -8 -37q-58 -77 -74 -131l-74 -217q-132 -385 -430 -798q-153 -203 -335.5 -353.5t-360.5 -150.5q-127 0 -127 102q6 38 37.5 66t68.5 28q22 0 67 -10t68 -10q76 0 178.5 71t189 168t128.5 179q-79 -25 -123 -25q-101 0 -172.5 79.5t-105.5 186.5
q-58 163 -58 525z" />
    <glyph glyph-name="z" unicode="z" horiz-adv-x="1065" 
d="M86 0q-60 0 -97.5 15t-37.5 67q10 64 129.5 193.5t292.5 302.5l368 368q71 71 74 98q-5 29 -82 29h-209q-94 0 -145 -17.5t-113 -84.5q-44 -58 -73 -58q-21 0 -21 29q6 37 16 70q35 126 70 176q21 12 94 12h611q77 0 106 -11t29 -54q-18 -90 -226 -295l-376 -381
l-201 -213q-50 -42 -57 -82q0 -37 69 -37h336q36 0 69 22t54 46t53 63q68 57 94 57q21 0 21 -32q-6 -43 -34 -124t-48 -114q-29 -45 -127 -45h-639z" />
    <glyph glyph-name="braceleft" unicode="{" horiz-adv-x="762" 
d="M348 -25q-8 -36 -8 -98q0 -147 156 -196q-102 0 -158.5 11t-108.5 58q-61 46 -61 156q0 61 12 123l86 491q13 60 13 94q0 49 -29 103q-45 67 -135 94q63 5 139 57q61 42 80 91.5t35 138.5l77 434q23 141 69.5 225.5t136.5 124t241 39.5q-114 -29 -172 -99.5t-82 -195.5
l-82 -459q-27 -157 -87 -242t-200 -114q176 -44 176 -213q0 -55 -12 -123z" />
    <glyph glyph-name="bar" unicode="|" horiz-adv-x="1675" 
d="M983 1921h160l-340 -1921h-160z" />
    <glyph glyph-name="braceright" unicode="}" horiz-adv-x="762" 
d="M463 1626q8 33 8 94q0 155 -156 201q178 0 249 -51t71 -182q0 -41 -17 -156l-77 -434q-13 -53 -13 -111q0 -73 45 -119q69 -52 127 -57q-102 -25 -172 -94q-44 -46 -57.5 -80.5t-32.5 -116.5l-86 -491q-31 -208 -143 -279q-103 -69 -291 -69q120 37 176 104t78 190
l86 500q28 149 88 227t199 109q-180 39 -180 217q0 33 16 139z" />
    <glyph glyph-name="asciitilde" unicode="~" horiz-adv-x="1675" 
d="M1561 770q-122 -134 -213 -200t-213 -66q-94 0 -246 61l-131 53q-23 8 -72 27.5t-88.5 29t-69.5 9.5q-98 0 -169.5 -53.5t-145.5 -151.5l-107 78q119 141 218.5 212t232.5 71q69 0 143 -23.5t192.5 -74t164.5 -67t98 -16.5q87 0 148.5 46t146.5 139z" />
    <glyph glyph-name="DEL" 
d="M-991 2048h1229l-361 -2048h-1229z" />
    <glyph glyph-name="glyph99" horiz-adv-x="1675" 
d="M250 770q0 68 117.5 136.5t214.5 68.5q114 0 114 -270q0 -60 -6 -178t-6 -162q0 -87 16 -119q30 -58 136 -58q126 0 196 70q71 68 144 262.5t73 339.5q0 88 -32 139q-29 48 -216 58.5t-351 17.5q-165 6 -286.5 49t-121.5 154q9 136 160 246.5t356 122.5q33 4 90 4
q85 0 144 -8.5t152.5 -28t142 -26.5t114.5 -7q53 0 101.5 33t70.5 33q33 0 51 -44t18 -104q-19 -123 -172 -123q-17 0 -73 8q-25 4 -206 48t-310 51q-112 0 -217.5 -37t-122.5 -103q0 -51 83 -67.5t271 -23.5q187 -7 313.5 -20.5t208.5 -55.5q111 -58 111 -250
q0 -141 -56 -317t-133 -314q-91 -160 -221 -231.5t-340 -71.5q-170 4 -264.5 40.5t-112.5 155.5q0 42 3 138q2 96 2 190q0 102 -9 156q-4 29 -38 39.5t-69 21.5t-40 37z" />
    <glyph glyph-name="glyph100" 
d="M-479 1950q-11 0 -85 25.5t-198 45t-323 19.5q-169 0 -284 -21.5t-213.5 -51.5t-125.5 -30q-24 0 -37 13q-12 12 -12 41q0 46 43.5 105.5t99.5 86.5q104 49 541 49q407 0 553 -41q38 -9 66 -58t28 -97q0 -75 -53 -86z" />
    <glyph glyph-name="glyph101" 
d="M-1130 2236q124 0 257 -8q114 -7 114 -8h-3l12 74q0 33 -6 56t-6 34q4 74 172 74q72 0 110 -11t38 -59q-3 -13 -21.5 -37t-23.5 -57l-29 -152q-2 -16 -4 -46t-4 -48q0 -86 -25 -94q-24 0 -104 24.5t-196.5 43t-309.5 18.5q-169 0 -284 -21.5t-213.5 -51.5t-125.5 -30
q-22 0 -37 13q-16 16 -16 41q0 49 44 108t103 80q146 57 558 57z" />
    <glyph glyph-name="glyph102" 
d="M-901 2220v0q-1 0 -10 12q-11 12 -11 33q0 8 9 37q50 152 249 152q100 0 136 -52.5t36 -152.5q-15 -72 -45.5 -107.5t-48.5 -44.5q9 -17 23 -50.5t14 -64.5q0 -26 -24 -32q-8 0 -83 25.5t-199.5 45t-324.5 19.5q-168 0 -283 -21.5t-213.5 -51.5t-125.5 -30q-24 0 -37 13
q-16 16 -16 41q0 48 46.5 108t108.5 80q122 47 422 57q126 0 229.5 -6t147.5 -10z" />
    <glyph glyph-name="glyph103" 
d="M-1085 2228l12 66q0 33 -6 56t-6 34q3 51 37.5 62.5t109.5 11.5q67 0 97 -11t30 -59q-4 -22 -22.5 -42.5t-22.5 -51.5l-12 -70l143 -8l16 78q0 33 -6 56t-6 34q3 50 38 62t110 12q66 0 96.5 -11t30.5 -59q-3 -19 -22 -41t-24 -53l-28 -152q-2 -16 -4 -46t-4 -48
q0 -86 -25 -94q-24 0 -104 24.5t-196.5 43t-309.5 18.5q-169 0 -284 -21.5t-213.5 -51.5t-125.5 -30q-24 0 -37 13q-16 16 -16 41q0 48 43.5 106t103.5 82q121 53 443 53q59 0 103 -1q44 -2 61 -3z" />
    <glyph glyph-name="uni2026" unicode="&#x2026;" horiz-adv-x="1761" 
d="M197 0q-75 0 -115.5 42t-40.5 105q0 83 61.5 152.5t159.5 69.5q78 0 117 -42t39 -106q0 -83 -61.5 -152t-159.5 -69zM778 0q-75 0 -115 42t-40 105q0 83 61.5 152.5t159.5 69.5q77 0 116 -42t39 -106q0 -83 -61.5 -152t-159.5 -69zM1360 0q-75 0 -115.5 42t-40.5 105
q0 83 61.5 152.5t159.5 69.5q78 0 117 -42t39 -106q0 -83 -61.5 -152t-159.5 -69z" />
    <glyph glyph-name="glyph105" 
d="M-578 2482q115 0 115 -69l-69 -390q-12 -69 -144 -69q-73 0 -96 14t-23 55l70 390q10 69 147 69z" />
    <glyph glyph-name="glyph106" 
d="M-987 2109q0 -20 69 -20q116 0 181 33q66 32 97 64t50 70.5t21 41.5q15 20 106 20q112 0 123 -28q0 -54 -67 -123.5t-177 -126.5t-219 -74q-91 -12 -213 -12q-266 0 -266 69q4 15 44.5 57.5t49.5 94.5q0 33 -45 49t-45 37q0 43 86 74.5t176 31.5q78 0 98 -20
q25 -24 25 -61q0 -47 -31.5 -98t-62.5 -79z" />
    <glyph glyph-name="glyph107" 
d="M-1225 2036q0 -34 -59 -60t-162 -26q-65 0 -65 131q0 108 41 188q26 56 81.5 91.5t110.5 35.5t84 -19t58 -52.5t46 -34.5q24 0 97 53t137 53q131 -5 131 -123q0 -104 -61 -176q110 20 184 107q62 73 78 147q16 45 139 45q102 0 102 -29q-2 -29 -40.5 -59.5t-69.5 -75.5
q-163 -238 -381 -270q-66 -8 -98 -8q-132 0 -132 53q0 14 17 37q49 81 49 143q0 32 -20 45q-20 0 -75 -34.5t-85 -34.5q-24 0 -61.5 36.5t-53.5 36.5q-12 0 -24 -12q-29 -28 -29 -98q0 -34 29.5 -52.5t31.5 -37.5z" />
    <glyph glyph-name="glyph108" 
d="M-700 2023q-6 -39 -37.5 -54t-106.5 -15q-73 0 -96 14t-23 55l21 111h-213q-29 0 -29 78q18 74 54 74h212l25 127q10 69 148 69q114 0 114 -69l-24 -127h213q28 0 28 -74q-14 -78 -53 -78h-213z" />
    <glyph glyph-name="glyph109" 
d="M-664 2150q0 -21 11 -29.5t32.5 -12.5t31.5 -9.5t11 -21.5q0 -66 -51.5 -100.5t-136.5 -34.5q-84 0 -132 43t-48 116q0 45 8 70q30 105 105.5 143.5t230.5 77.5q112 29 142 61.5t34 67t29 35.5q57 0 57 -86q0 -45 -16 -78q-62 -124 -209 -160q-87 -20 -99 -82z" />
    <glyph glyph-name="uni0E48" unicode="&#xe48;" 
d="M-53 2482q114 0 114 -69l-69 -390q-10 -69 -144 -69q-71 0 -94.5 14t-23.5 55l69 390q10 69 148 69z" />
    <glyph glyph-name="uni0E49" unicode="&#xe49;" 
d="M-221 2109q0 -20 69 -20q116 0 181 33q66 32 97 64t50 70.5t21 41.5q15 20 106 20q112 0 123 -28q0 -54 -67 -123.5t-177 -126.5t-219 -74q-91 -12 -213 -12q-266 0 -266 69q4 15 44.5 57.5t49.5 94.5q0 33 -45 49t-45 37q0 43 86 74.5t176 31.5q78 0 98 -20
q25 -24 25 -61q0 -47 -31.5 -98t-62.5 -79z" />
    <glyph glyph-name="uni0E4A" unicode="&#xe4a;" 
d="M-471 2036q0 -34 -59 -60t-162 -26q-66 0 -66 131q0 104 41 188q28 58 83 92.5t110 34.5t84 -19t58 -52.5t46 -34.5q24 0 97 53t137 53q131 -5 131 -123q0 -105 -62 -176q111 20 185 107q61 71 77 147q18 45 140 45q102 0 102 -29q-2 -29 -41.5 -60.5t-69.5 -74.5
q-161 -238 -380 -270q-66 -8 -99 -8q-131 0 -131 53q0 16 17 37q49 81 49 143q0 31 -21 45q-20 0 -74 -34.5t-86 -34.5q-24 0 -60.5 36.5t-53.5 36.5q-13 0 -25 -12q-28 -28 -28 -98q0 -34 29.5 -52.5t31.5 -37.5z" />
    <glyph glyph-name="uni0E4B" unicode="&#xe4b;" 
d="M-4 2023q-10 -69 -143 -69q-72 0 -95.5 14t-23.5 55l20 111h-213q-28 0 -28 78q17 74 53 74h213l24 127q11 69 148 69q115 0 115 -69l-25 -127h213q29 0 29 -74q-15 -78 -54 -78h-213z" />
    <glyph glyph-name="uni0E4C" unicode="&#xe4c;" 
d="M-86 2150q0 -21 11 -29.5t32.5 -12.5t31.5 -9.5t11 -21.5q0 -66 -52 -100.5t-136 -34.5q-85 0 -133 44t-48 115q0 45 9 70q30 105 105.5 143.5t229.5 77.5q112 29 142 61t34.5 67t28.5 36q58 0 58 -86q0 -43 -17 -78q-62 -124 -209 -160q-87 -20 -98 -82z" />
    <glyph glyph-name="glyph115" horiz-adv-x="2720" 
d="M1540 483q-8 -64 -8 -90q0 -229 283 -229q205 0 288.5 89.5t112.5 250.5l131 741q0 68 -20 100.5t-57.5 72t-37.5 69.5q11 47 115.5 103.5t192.5 56.5q90 -7 90 -181q0 -101 -33 -278l-119 -684q-47 -264 -220 -388t-476 -124q-251 6 -381.5 94t-130.5 291q0 65 12 139
l98 561q21 105 21 148q0 229 -344 250q-171 0 -304 -52t-147 -116q0 -24 14.5 -38.5t53.5 -43.5t59.5 -52t20.5 -51q-5 -35 -76 -88t-103.5 -84.5t-42.5 -97.5l-81 -451q0 -87 27 -124.5t67 -61.5t41 -43q0 -63 -106 -121.5t-201 -58.5q-111 13 -111 213q0 81 16 164l74 422
q16 94 59.5 142.5t106.5 91t68 69.5q0 23 -57 54.5t-84 53t-27 68.5q3 67 76 140.5t186 129.5q201 107 483 107q270 0 414 -95q176 -110 176 -311q0 -83 -17 -164z" />
    <glyph glyph-name="uni2018" unicode="&#x2018;" horiz-adv-x="721" 
d="M520 1630q176 0 176 -119q0 -31 -12 -61q-49 -131 -197 -131q-51 0 -86 20q-73 43 -73 144q0 82 49 172q64 121 175 206t165 85q24 0 24 -17q0 -29 -50.5 -62t-88.5 -77q-32 -37 -50 -71.5t-24.5 -59t-7.5 -29.5z" />
    <glyph glyph-name="uni2019" unicode="&#x2019;" horiz-adv-x="721" 
d="M537 1634q-177 0 -177 123q0 24 13 58q49 131 196 131q48 0 90 -21q70 -41 70 -135q0 -84 -49 -180q-62 -122 -172 -206.5t-168 -84.5q-25 0 -25 16q0 27 52.5 62t87.5 78q82 96 82 159z" />
    <glyph glyph-name="uni201C" unicode="&#x201c;" horiz-adv-x="1221" 
d="M1040 1630q177 0 177 -119q0 -28 -13 -61q-49 -131 -196 -131q-53 0 -86 20q-74 43 -74 144q0 82 49 172q64 121 175 206t165 85q25 0 25 -17q0 -29 -51 -62t-89 -77q-32 -37 -50 -71.5t-24.5 -59t-7.5 -29.5zM565 1630q176 0 176 -119q0 -31 -12 -61q-49 -131 -197 -131
q-51 0 -86 20q-73 43 -73 144q0 82 49 172q64 121 175 206t165 85q24 0 24 -17q0 -29 -50.5 -62t-88.5 -77q-32 -37 -50 -71.5t-24.5 -59t-7.5 -29.5z" />
    <glyph glyph-name="uni201D" unicode="&#x201d;" horiz-adv-x="1217" 
d="M586 1634q-176 0 -176 123q0 26 12 58q49 131 196 131q47 0 91 -21q69 -41 69 -135q0 -84 -49 -180q-62 -122 -172 -206.5t-168 -84.5q-24 0 -24 16q0 29 52.5 64t86.5 76q82 95 82 159zM1061 1634q-176 0 -176 123q0 26 12 58q49 131 197 131q46 0 90 -21
q69 -41 69 -135q0 -84 -49 -180q-62 -122 -172 -206.5t-168 -84.5q-24 0 -24 16q0 29 52.5 64t86.5 76q82 95 82 159z" />
    <glyph glyph-name="uni2022" unicode="&#x2022;" horiz-adv-x="1569" 
d="M750 295q-204 0 -311 114.5t-107 286.5q0 141 72 279.5t207.5 226.5t314.5 88q203 0 310 -114.5t107 -286.5q0 -141 -72 -279.5t-207.5 -226.5t-313.5 -88z" />
    <glyph glyph-name="uni2013" unicode="&#x2013;" horiz-adv-x="1982" 
d="M262 729l33 176h1462l-33 -176h-1462z" />
    <glyph glyph-name="uni2014" unicode="&#x2014;" horiz-adv-x="2646" 
d="M299 729l33 176h2093l-33 -176h-2093z" />
    <glyph glyph-name="glyph123" 
d="M-729 2265q18 -78 237 -78q225 0 357 66q92 44 138 79.5t85 74t55 38.5q13 -6 13 -49q0 -109 -41 -172q-37 -60 -204.5 -122t-393.5 -62q-100 0 -205 12q-127 14 -231.5 71.5t-104.5 145.5q0 24 16 66q32 67 108.5 97t154.5 30q45 0 61 -8q25 -20 25 -37q0 -19 -35 -69
t-35 -83z" />
    <glyph glyph-name="glyph124" 
d="M-922 1851q-136 3 -209 62.5t-73 146.5q0 106 99 192.5t257 86.5q139 -3 213 -63t74 -146q0 -106 -98 -191t-263 -88zM-864 2216q-76 0 -124 -43t-48 -96q0 -40 34 -69.5t97 -29.5q77 0 126.5 41t49.5 95q0 43 -35 72.5t-100 29.5z" />
    <glyph glyph-name="glyph125" 
d="M-516 2236q131 0 131 -102q0 -57 -46 -109t-122 -63q-58 -8 -78 -8q-76 0 -122 21.5t-107.5 61.5t-93.5 40q-26 0 -167 -63.5t-214 -63.5q-38 0 -78 20q-41 24 -41 115q0 155 90 266q107 127 340 127q41 0 157 -6t203 -6q104 4 133.5 27.5t42 61.5t46.5 38
q110 -14 110 -135q-35 -119 -246 -127q-60 0 -195 6t-194 6q-96 0 -147 -21q-27 -12 -49 -56.5t-25 -82.5q0 -36 17 -41q47 0 134 47t124 47q21 0 41 -12q113 -76 157 -99.5t51 -23.5q14 69 39.5 100.5t108.5 34.5z" />
    <glyph glyph-name="glyph126" 
d="M-504 3064q115 0 115 -70l-70 -389q-11 -70 -143 -70q-73 0 -96 14.5t-23 55.5l70 389q10 70 147 70z" />
    <glyph glyph-name="glyph127" 
d="M-475 2683q0 -21 69 -21q118 0 185 33q67 36 96 65.5t49 68t23 42.5q15 21 106 21q113 0 119 -29q0 -86 -145.5 -191t-317.5 -132q-88 -13 -213 -13q-262 0 -262 70q4 15 42.5 57.5t47.5 93.5q0 31 -43 50t-43 36q0 44 86 75.5t176 31.5q78 0 99 -21q24 -24 24 -61
q0 -47 -36 -103t-62 -73z" />
    <glyph glyph-name="glyph128" 
d="M-561 2613q0 -34 -57 -60t-160 -26q-66 0 -66 131q0 105 41 189q28 58 83 92.5t110 34.5q56 0 86 -20.5t58 -53t40 -33.5q26 0 100.5 53.5t137.5 53.5q131 -5 131 -123q0 -108 -62 -176q112 20 185 106q47 55 77 148q18 45 140 45q102 0 102 -29q-2 -30 -40 -59t-71 -76
q-160 -239 -380 -270q-59 -9 -99 -9q-131 0 -131 54q0 15 17 36q49 81 49 144q0 31 -21 45q-20 0 -75 -35t-85 -35q-23 0 -60 37t-54 37q-13 0 -25 -12q-23 -24 -33 -99q0 -32 31 -51t31 -39z" />
    <glyph glyph-name="glyph129" 
d="M-459 2605q-11 -70 -143 -70q-73 0 -96 14.5t-23 55.5l21 111h-213q-29 0 -29 77q16 74 53 74h213l25 127q10 70 147 70q115 0 115 -70l-25 -127h213q29 0 29 -74q-14 -77 -53 -77h-213z" />
    <glyph glyph-name="glyph130" 
d="M-516 2601q0 -22 11 -30.5t33.5 -13t32.5 -9t13 -21.5q0 -62 -52.5 -98.5t-139.5 -36.5q-83 0 -132 43t-49 113q0 38 13 73q30 104 104.5 143t226.5 79q113 30 142.5 61t34 66t28.5 36q57 0 57 -81q0 -50 -16 -82q-56 -124 -209 -160q-87 -23 -98 -82z" />
    <glyph glyph-name="glyph131" horiz-adv-x="348" 
 />
    <glyph glyph-name="uni0E01" unicode="&#xe01;" horiz-adv-x="1815" 
d="M1417 1077q17 104 17 148q0 234 -357 250q-114 0 -215 -25t-164 -63.5t-71 -79.5q0 -24 16 -40t53 -43.5t57.5 -50.5t20.5 -51q-5 -35 -76 -89t-103 -84.5t-42 -96.5l-98 -557q-9 -47 -9 -53q0 -54 28 -105t38 -51q-8 -59 -55.5 -72.5t-182.5 -13.5h-90q-61 0 -87.5 15.5
t-26.5 70.5q8 29 40.5 59t51 56.5t31.5 93.5l86 496q16 95 58.5 142.5t106 91t68.5 69.5q0 23 -57 54.5t-84 53t-27 68.5q6 141 262 270q201 107 492 107q276 0 422 -95q176 -110 176 -311q0 -83 -17 -164l-135 -782q-8 -42 -8 -57q0 -53 26 -102.5t35 -49.5
q-8 -59 -55.5 -72.5t-181.5 -13.5h-86q-65 0 -92 15t-27 71q6 29 41 59.5t54 55.5t32 94z" />
    <glyph glyph-name="uni0E02" unicode="&#xe02;" horiz-adv-x="1602" 
d="M557 782l-53 -295q-12 -67 -12 -118q0 -112 60 -158.5t198 -46.5q177 0 250.5 82.5t101.5 240.5l151 856q0 86 -26.5 136t-26.5 73q6 55 40 70.5t108 15.5h90q121 0 162.5 -13t41.5 -73q-6 -27 -41 -59.5t-54.5 -58.5t-30.5 -91l-156 -880q-84 -471 -639 -471
q-500 0 -500 360q0 49 12 111l54 315q27 126 106 205q49 46 149 115t148.5 120.5t59.5 124.5q0 53 -33 84t-82 31q-69 0 -115 -57q-19 -28 -45.5 -93.5t-53 -96.5t-81.5 -35q-111 6 -111 131q0 81 41 135q141 189 398 200q157 0 254.5 -83t97.5 -211q-15 -72 -64 -125.5
t-156 -131.5t-141 -108q-50 -46 -68.5 -79t-33.5 -122z" />
    <glyph glyph-name="uni0E03" unicode="&#xe03;" horiz-adv-x="1655" 
d="M1294 1343q0 86 -26.5 136t-26.5 73q6 55 40 70.5t108 15.5h90q121 0 162.5 -13t41.5 -73q-6 -27 -42 -60.5t-55 -58.5t-30 -90l-155 -880q-45 -251 -200 -359.5t-419 -111.5q-491 0 -491 356q0 53 12 115l49 274q19 130 107 205q73 61 158 115.5t125.5 86t80.5 89.5
q37 49 37 106q0 54 -29 54q-11 0 -54 -37.5t-72.5 -59.5t-61.5 -22q-40 2 -76.5 60t-42.5 59q-26 0 -38.5 -21t-26 -70t-27 -75.5t-43.5 -38.5q-24 -8 -37 -8q-46 0 -76 38.5t-30 100.5q0 17 8 65q24 100 116.5 179t166.5 79q20 0 51 -45t46.5 -62.5t49.5 -18.5
q43 0 75 19.5t89.5 63t77.5 43.5q64 -6 103.5 -73t39.5 -164q0 -51 -12 -107q-20 -83 -64 -136.5t-135.5 -123.5t-128.5 -104q-63 -61 -79.5 -86.5t-31.5 -106.5l-45 -254q-12 -61 -12 -110q0 -213 250 -213q169 5 236.5 85.5t95.5 237.5z" />
    <glyph glyph-name="uni0E04" unicode="&#xe04;" horiz-adv-x="1831" 
d="M434 1352q235 299 664 299q141 0 259 -31.5t167 -71.5q176 -142 176 -327q0 -44 -17 -144l-135 -782q-8 -42 -8 -57q0 -55 25.5 -103.5t36.5 -48.5q-8 -59 -56 -72.5t-182 -13.5h-86q-65 0 -92 15t-27 71q7 31 42 61t53.5 54.5t31.5 93.5l135 782q13 53 13 111
q0 276 -365 287q-417 0 -532 -414q-62 -224 -62 -537q0 -227 37 -282q62 186 184 491q168 439 287 467q98 0 178 -45.5t80 -101.5q-1 -37 -41 -51t-94 -31.5t-78 -61.5q-79 -153 -176.5 -397t-159.5 -365q-49 -96 -91 -121.5t-134 -25.5q-107 0 -151 39t-74 190
q-29 147 -29 336q0 502 221 787z" />
    <glyph glyph-name="uni0E05" unicode="&#xe05;" horiz-adv-x="1851" 
d="M504 233q32 106 180 476q161 422 283 450q100 0 181 -44.5t81 -102.5q-1 -37 -42.5 -51.5t-96 -32t-78.5 -60.5q-66 -126 -112 -229t-118.5 -274.5t-97.5 -225.5q-77 -159 -233 -159q-131 0 -197 106q-57 88 -57 385q0 241 50 480.5t154 396.5q107 163 245 235t235 72
q47 -1 94 -25t90.5 -55t48.5 -31q1 0 108 55.5t158 55.5q55 0 131.5 -34.5t135.5 -113.5q82 -110 82 -237q0 -36 -6 -71t-13.5 -72.5t-9.5 -49.5l-135 -782q-9 -47 -9 -57q0 -51 26.5 -101.5t35.5 -50.5q-8 -59 -55.5 -72.5t-182.5 -13.5h-86q-64 0 -91 15t-27 71
q6 29 41 59.5t54 55.5t32 94l135 782q16 116 16 152q0 219 -147 237q-19 0 -118 -61.5t-116 -61.5q-19 3 -93 63t-99 60q-95 -6 -202.5 -125.5t-154.5 -287.5q-53 -206 -53 -512q0 -236 33 -308z" />
    <glyph glyph-name="uni0E06" unicode="&#xe06;" horiz-adv-x="1860" 
d="M426 938q53 53 141 108t147 95.5t97 95.5q37 49 37 106q0 54 -29 54q-11 0 -52 -37t-72.5 -59.5t-63.5 -22.5q-40 2 -76.5 60t-42.5 59q-26 0 -38.5 -21t-26 -70t-27 -75.5t-43.5 -38.5q-24 -8 -37 -8q-46 0 -76.5 39t-30.5 100q0 10 9 66q23 99 117 178.5t165 79.5
q18 0 51.5 -46t48.5 -63t48 -18q44 0 73.5 18.5t88 63.5t79.5 45q73 -6 120.5 -73t47.5 -173q0 -47 -12 -103q-16 -69 -45.5 -117t-73.5 -87t-126 -93t-107 -71q-63 -44 -95 -163.5t-32 -250.5q22 -124 135 -228t250 -104q179 3 280.5 118.5t128.5 283.5l136 757
q0 86 -27 137t-27 72q7 55 40.5 70.5t107.5 15.5h90q121 0 163 -13t42 -73q-7 -28 -41.5 -59.5t-54.5 -58t-31 -91.5l-135 -753q-29 -166 -108.5 -300.5t-216 -216t-318.5 -81.5q-198 0 -304.5 74.5t-130.5 121.5q-12 -60 -70.5 -132t-203.5 -72q-90 0 -135 48t-45 120
q0 79 45 143q41 56 89 82t88 34q36 7 40 7v0q-9 9 -26.5 30.5t-26.5 38.5q-13 25 -13 82q0 95 30 204.5t85 164.5z" />
    <glyph glyph-name="uni0E07" unicode="&#xe07;" horiz-adv-x="1536" 
d="M434 991q0 -133 62.5 -386t109.5 -351q44 -82 123 -82q65 0 139.5 56.5t110.5 123.5q87 147 133.5 336.5t46.5 364.5q0 164 -43.5 266t-124.5 102q-37 0 -90 -51t-90 -51q-61 6 -61 82q0 69 52.5 138.5t143.5 94.5q79 17 103 17q173 0 287 -156.5t114 -413.5
q0 -75 -12 -155q-74 -550 -353 -799q-75 -69 -189 -106t-232 -37q-212 0 -271 106q-93 160 -200 791q-17 70 -17 94q0 63 78 115q88 61 135 61q30 0 37.5 -32t7.5 -128z" />
    <glyph glyph-name="uni0E08" unicode="&#xe08;" horiz-adv-x="1606" 
d="M238 905q0 48 50.5 103.5t123 93t133.5 37.5q104 0 129 -120t31 -314q0 -68 -4 -168q-5 -100 -5 -148q0 -212 107 -217q112 0 225.5 189.5t171.5 457.5q45 214 45 332q0 302 -299 324q-188 0 -312 -48.5t-221.5 -117t-129.5 -68.5q-58 0 -58 82q0 74 37 119
q79 96 257 154.5t378 58.5q66 0 98 -4q287 -25 397.5 -154.5t110.5 -333.5q0 -73 -16 -205q-33 -241 -134.5 -465.5t-256.5 -366.5t-338 -142q-312 5 -312 368q0 52 4.5 141t4.5 146q0 169 -45 205q-25 19 -92 27.5t-80 33.5z" />
    <glyph glyph-name="uni0E09" unicode="&#xe09;" horiz-adv-x="1724" 
d="M995 1479q-186 0 -300 -52t-207.5 -127t-127.5 -75q-57 0 -57 82q0 73 41 127q74 96 272 156.5t449 60.5q298 -20 419.5 -118.5t121.5 -279.5q0 -34 -17 -155l-86 -488q-11 -80 -65 -168q-15 -27 -41.5 -51.5t-40.5 -34.5q26 0 72.5 -33t46.5 -114q-3 -89 -60.5 -147.5
t-148.5 -61.5q-164 0 -164 164q-65 -74 -197 -125t-262 -51q-104 0 -188 37q-185 72 -185 286q0 89 21 164l69 270q0 40 -18 62.5t-56 49.5t-49.5 40t-11.5 41q16 56 119.5 101.5t192.5 45.5q41 0 57 -8q61 -27 61 -123q0 -75 -28 -196l-66 -279q-12 -61 -12 -106
q0 -185 205 -185q172 0 314 118.5t169 283.5l90 491q12 73 12 140q0 125 -75.5 191.5t-268.5 66.5z" />
    <glyph glyph-name="uni0E0A" unicode="&#xe0a;" horiz-adv-x="1569" 
d="M1184 1266q-8 36 -49 65.5t-41 93.5q10 45 25.5 57.5t67.5 42t79 68.5q31 49 42 110t27 75q42 41 164 41q156 0 156 -58q-17 -135 -185 -221q-37 -19 -91 -39t-69.5 -30t-19.5 -37q0 -16 20.5 -29.5t44.5 -26t46.5 -33t36.5 -59.5q20 -41 20 -98q0 -49 -16 -115
l-107 -610q-43 -250 -198.5 -359t-419.5 -112q-492 0 -492 356q0 56 13 115l53 315q27 125 106 205q49 46 149 115t148.5 120.5t59.5 124.5q0 53 -32 84t-83 31q-69 0 -115 -57q-19 -28 -45.5 -93.5t-53 -96.5t-81.5 -35q-111 6 -111 131q0 81 41 135q141 189 398 200
q157 0 254.5 -83t97.5 -211q-15 -72 -64 -125.5t-162 -137t-134 -102.5q-48 -43 -68 -77t-35 -124l-53 -295q-12 -61 -12 -110q0 -213 249 -213q169 5 236.5 85.5t95.5 237.5l107 615q12 49 12 86q0 34 -12 78z" />
    <glyph glyph-name="uni0E0B" unicode="&#xe0b;" horiz-adv-x="1634" 
d="M836 1393q-9 0 -79.5 -59.5t-109.5 -59.5q-40 2 -76.5 60t-42.5 59q-26 0 -38.5 -21t-26 -70t-27 -75.5t-43.5 -38.5q-24 -8 -37 -8q-46 0 -76 38.5t-30 100.5q0 17 8 65q24 100 117.5 179t165.5 79q20 0 51 -45t46.5 -62.5t49.5 -18.5q44 0 78.5 21.5t89 63t74.5 41.5
q64 -6 103.5 -73t39.5 -164q0 -51 -12 -107q-20 -83 -64 -136.5t-135.5 -123.5t-128.5 -104q-63 -61 -80 -87t-30 -106l-45 -254q-13 -59 -13 -110q0 -213 250 -213q169 5 236.5 85.5t95.5 237.5l106 615q13 48 13 86q0 36 -13 78q-8 35 -38 58t-41 37t-11 64q10 46 26 58
t68 42t78 68q30 46 42 108.5t28 76.5q42 41 164 41q155 0 155 -58q-16 -135 -184 -221q-37 -19 -91 -39t-69.5 -30t-19.5 -37q0 -16 19.5 -29.5t44 -26t47 -33t36.5 -59.5q21 -41 21 -98q0 -53 -17 -115l-106 -610q-45 -251 -200 -359.5t-419 -111.5q-491 0 -491 356
q0 53 12 115l49 274q22 133 107 205q73 61 158 115.5t125.5 86t80.5 89.5q37 49 37 106q0 54 -28 54z" />
    <glyph glyph-name="uni0E0C" unicode="&#xe0c;" horiz-adv-x="2658" 
d="M1872 180q148 25 210.5 132.5t88.5 277.5l119 655q0 68 -20 100.5t-57.5 72t-37.5 69.5q10 46 114.5 103t192.5 57q90 -6 90 -181q0 -106 -32 -278l-107 -598q-96 -557 -537 -598q-225 0 -328.5 72t-129.5 124q-11 -57 -68 -126.5t-194 -69.5q-72 6 -112 49.5t-40 105.5
q0 77 49 144q30 46 77.5 68.5t91.5 29t44 8.5q-8 0 -8 49q2 19 6.5 47t5.5 39l94 545q17 93 17 148q0 234 -357 250q-114 0 -215 -25t-164 -63.5t-71 -79.5q0 -24 16 -40t53 -43.5t57.5 -50.5t20.5 -51q-5 -35 -76 -89t-103 -84.5t-42 -96.5l-82 -451q0 -87 27 -124.5
t67 -61.5t41 -43q0 -62 -106.5 -121t-200.5 -59q-110 14 -110 213q0 81 16 164l74 422q16 94 59.5 142.5t106 91.5t67.5 69q0 23 -57 54.5t-84 53t-27 68.5q6 141 262 270q202 107 492 107q278 0 422 -95q176 -110 176 -311q0 -81 -16 -164l-95 -553q-8 -48 -8 -73
q0 -121 81 -196t247 -75z" />
    <glyph glyph-name="uni0E0D" unicode="&#xe0d;" horiz-adv-x="2720" 
d="M1548 483q-8 -64 -8 -90q0 -229 283 -229q205 0 288.5 89.5t112.5 250.5l131 741q0 67 -18.5 98.5t-57 73t-38.5 70.5q10 46 114.5 103t192.5 57q90 -7 90 -181q0 -101 -33 -278l-119 -684q-47 -264 -220 -388t-476 -124q-249 6 -380.5 94t-131.5 291q0 65 12 139l99 561
q20 113 20 148q0 229 -344 250q-171 0 -304 -52t-147 -116q0 -24 14.5 -38.5t53.5 -43.5t59.5 -52t20.5 -51q-5 -35 -76 -89t-103 -84.5t-42 -96.5l-82 -451q0 -87 27 -124.5t67 -61.5t41 -43q0 -62 -106.5 -121t-200.5 -59q-111 13 -111 213q0 83 17 164l73 422
q16 94 59.5 142.5t106.5 91t68 69.5q0 23 -57 54.5t-84 53t-27 68.5q3 67 76 140.5t186 129.5q201 107 483 107q270 0 414 -95q176 -110 176 -311q0 -81 -16 -164zM1479 -270q0 -119 241 -119q137 0 226 41q85 40 111.5 70t36.5 69.5t20 52.5q31 37 139 37q97 0 123 -24
q12 -13 12 -37q0 -60 -78 -138.5t-226.5 -139t-354.5 -70.5q-582 0 -582 258q19 114 168 147q28 8 86 8q66 0 113 -18.5t47 -46.5q-4 -29 -39 -46t-43 -44z" />
    <glyph glyph-name="uni0E0E" unicode="&#xe0e;" horiz-adv-x="1851" 
d="M1167 -508q-96 0 -141 27t-129 92t-135 65q-44 0 -87.5 -22.5t-114.5 -70.5t-125 -73.5t-111 -25.5q-81 0 -151.5 54t-70.5 134q0 20 9 49q15 60 61 104t102 44q34 0 47.5 -54.5t26 -76t74.5 -25.5q39 0 73 16.5t96.5 54.5t108.5 57.5t95 19.5q43 0 79.5 -17t85 -52
t70 -46.5t51.5 -11.5q22 0 54 12q46 25 69 69t41 144l197 1118q16 98 16 148q0 234 -356 250q-171 0 -304 -52t-147 -116q0 -24 14.5 -38.5t53.5 -43.5t59.5 -52t20.5 -51q-5 -35 -74 -87t-103 -84.5t-44 -98.5l-86 -483q-65 -348 -226 -377q-99 0 -174.5 52.5t-75.5 127.5
q11 23 68.5 46.5t95.5 59.5t53 123l70 390q16 94 59.5 142.5t106.5 91t68 69.5q0 23 -57 54.5t-84 53t-27 68.5q3 67 76 140.5t186 129.5q201 107 491 107q278 0 422 -95q176 -110 176 -311q0 -81 -16 -164l-209 -1192q-22 -136 -103 -253t-225 -140z" />
    <glyph glyph-name="uni0E0F" unicode="&#xe0f;" horiz-adv-x="1880" 
d="M934 -385q-30 0 -102.5 -69.5t-110.5 -69.5q-31 1 -54.5 20.5t-49.5 53.5t-43 49.5t-42 15.5q-24 0 -104.5 -69.5t-140.5 -69.5q-69 0 -122.5 49.5t-53.5 126.5q0 29 12 65q21 62 79.5 105t96.5 43q33 -12 33 -94q0 -66 57 -66q25 0 97 77t108 79q23 0 41 -17t42 -51
t41.5 -51.5t43.5 -20.5q33 0 108 70t113 70q32 0 78.5 -61.5t85.5 -61.5q24 0 37 8q42 20 53 56t33 157l196 1118q17 93 17 148q0 234 -357 250q-114 0 -215 -25t-164 -63.5t-71 -79.5q0 -24 16 -40t53 -43.5t57.5 -50.5t20.5 -51q-5 -35 -76 -89t-103 -84.5t-42 -96.5
l-86 -483q-64 -348 -225 -377q-99 0 -174.5 52.5t-75.5 127.5q11 23 67.5 46t95 59t54.5 124l70 390q16 94 59.5 142.5t106 91.5t67.5 69q0 23 -57 54.5t-84 53t-27 68.5q6 141 262 270q202 107 492 107q278 0 422 -95q176 -110 176 -311q0 -81 -16 -164l-209 -1192
q-23 -140 -107 -262.5t-221 -130.5q-61 0 -95 20.5t-84 61.5t-79 41z" />
    <glyph glyph-name="uni0E10" unicode="&#xe10;" horiz-adv-x="1675" 
d="M270 770q0 68 117.5 136.5t214.5 68.5q115 0 115 -270q0 -60 -6 -178t-6 -162q0 -87 16 -119q28 -58 135 -58q127 0 197 70q71 68 144 262.5t73 339.5q0 86 -33 139q-29 48 -216 58.5t-351 17.5q-165 6 -286.5 49t-121.5 154q6 88 76.5 170t186 136t253.5 63q33 4 90 4
q85 0 144 -8.5t152.5 -28t142 -26.5t114.5 -7q53 0 101.5 33t70.5 33q32 0 51 -44t19 -104q-19 -123 -172 -123q-16 0 -74 8q-23 4 -205.5 48t-310.5 51q-112 0 -217 -37t-123 -103q0 -51 83 -67.5t271 -23.5t314.5 -20.5t208.5 -55.5q110 -58 110 -250q0 -141 -55.5 -315.5
t-132.5 -315.5q-90 -159 -220.5 -231t-340.5 -72q-171 4 -266 40.5t-111 155.5q0 42 2 152t2 176q0 102 -8 156q-4 29 -38 39.5t-69.5 21t-40.5 37.5zM1057 -573q-53 0 -86.5 21.5t-88.5 65.5t-83 44q-30 0 -109 -70t-117 -70q-31 1 -51 19.5t-45 54t-40.5 51t-39.5 15.5
q-26 0 -77.5 -46.5t-83 -70t-80.5 -23.5q-66 0 -115 48t-49 124q0 38 12 74q18 63 71 103t93 40q33 -11 33 -53q0 -7 -2 -26t-2 -27q0 -53 53 -53q18 0 39.5 19t56 55.5t61.5 58t52 22.5q24 0 41 -18.5t38 -53t37 -50.5t39 -17q31 0 105.5 69.5t111.5 69.5q21 0 42.5 -18
t57.5 -57t52 -53.5t33 -14.5q19 0 37 29q0 7 6 28t6 33q0 25 -8 37q-4 7 -32 13t-30 28q0 32 69.5 73.5t135.5 41.5q36 0 57 -17q50 -32 50 -123q0 -34 -9 -86q-17 -110 -83 -198.5t-158 -91.5z" />
    <glyph glyph-name="uni0E11" unicode="&#xe11;" horiz-adv-x="1958" 
d="M1851 1143l-147 -848q-8 -42 -8 -57q0 -53 26 -102.5t35 -49.5q-8 -59 -55.5 -72.5t-181.5 -13.5h-86q-65 0 -92 15t-27 71q6 29 41 59.5t54 55.5t32 94l135 782q20 103 20 172q0 161 -127 176q-92 0 -238.5 -89t-268.5 -201q-127 -114 -186.5 -186t-80.5 -179l-82 -475
q-8 -42 -8 -53q0 -54 28 -105t38 -51q-8 -59 -56 -72.5t-182 -13.5h-90q-62 0 -88.5 15.5t-26.5 70.5q8 28 41 58.5t52 59.5t30 91l86 496q18 92 59.5 146t125.5 128q26 23 109.5 91t118 107t34.5 72q0 23 -21 49q-12 13 -28 13q-25 0 -85 -47t-92 -47q-18 1 -33 11.5
t-31.5 29.5t-30 29.5t-32.5 10.5q-45 -9 -53.5 -41.5t-19 -76t-49.5 -62.5q-28 -16 -70 -16q-46 0 -78.5 29.5t-32.5 80.5q0 134 101.5 237.5t189.5 106.5q30 0 52 -16.5t49.5 -50t39.5 -44.5t31 -11q45 0 129 61t113 61q83 -3 111 -63t28 -162q0 5 89.5 67t201.5 112.5
t209 50.5q295 -23 295 -349q0 -55 -17 -155z" />
    <glyph glyph-name="uni0E12" unicode="&#xe12;" horiz-adv-x="2720" 
d="M1442 1077q16 116 16 152q0 219 -147 237q-19 0 -118 -61.5t-116 -61.5q-19 3 -93 63t-99 60q-95 -6 -202.5 -125.5t-154.5 -287.5q-53 -212 -53 -512q0 -236 33 -308q28 35 93 125.5t132 198.5q176 275 176 401q-1 29 -17.5 43.5t-44.5 26t-40 19t-12 26.5
q9 56 105.5 100t184.5 44q20 0 58 -9q57 -20 57 -110q0 -86 -49 -213q-137 -367 -451 -738q-130 -159 -270 -159q-111 0 -172 98q-57 88 -57 385q0 241 50 481t155 396q107 163 244.5 235t234.5 72q47 -1 94 -25t90.5 -55t48.5 -31q1 0 108 55.5t158 55.5q55 0 131 -34
t136 -114q82 -110 82 -237q0 -36 -6 -71t-13.5 -72.5t-9.5 -49.5l-94 -553q-8 -48 -8 -73q0 -121 81 -196t246 -75q148 25 210 131.5t89 278.5l119 655q0 68 -20 100.5t-57.5 72t-37.5 69.5q11 47 115.5 103.5t192.5 56.5q90 -7 90 -181q0 -101 -33 -278l-107 -598
q-96 -557 -536 -598q-226 0 -329.5 72t-129.5 124q-11 -57 -68 -126.5t-194 -69.5q-72 6 -112 49.5t-40 105.5q0 75 49 144q30 46 77.5 68.5t91.5 29t44 8.5q-8 0 -8 49q2 19 4 33t4.5 28t4.5 25z" />
    <glyph glyph-name="uni0E13" unicode="&#xe13;" horiz-adv-x="2732" 
d="M2130 147q-17 -33 -139 -94t-332 -61q-373 22 -373 377q0 67 12 147l99 561q20 113 20 148q0 229 -344 250q-114 0 -215 -25t-164 -63.5t-71 -79.5q0 -24 16 -40t53 -43.5t57.5 -50.5t20.5 -51q-5 -35 -76 -89t-103 -84.5t-42 -96.5l-82 -451q0 -87 27 -124.5t67 -61.5
t41 -43q0 -62 -106.5 -121t-200.5 -59q-111 13 -111 213q0 83 17 164l73 422q16 94 60 143t106.5 91.5t67.5 68.5q0 23 -57 54.5t-84 53t-27 68.5q6 141 262 270q201 107 483 107q270 0 414 -95q176 -110 176 -311q0 -81 -16 -164l-103 -594q-8 -37 -8 -98q0 -109 63 -161
t204 -52q183 11 293 135.5t141 294.5l114 643q0 67 -18.5 98.5t-57 73t-38.5 70.5q10 46 114.5 103t192.5 57q90 -6 90 -181q0 -111 -33 -278l-94 -529q-8 -50 -45 -155q-11 -26 -33.5 -59t-23.5 -35q21 0 57.5 -16.5t52.5 -41.5q41 -54 41 -119q0 -88 -65 -159
q-72 -86 -193 -86q-60 0 -102 24q-78 41 -78 135z" />
    <glyph glyph-name="uni0E14" unicode="&#xe14;" horiz-adv-x="1864" 
d="M729 147q-76 -96 -125 -121.5t-141 -25.5q-81 0 -115 15.5t-61 70.5q-70 133 -70 455q0 233 53 451t164 356q246 303 696 303q148 0 271 -32t172 -71q176 -142 176 -327q0 -38 -16 -144l-136 -782q-8 -42 -8 -57q0 -55 25.5 -103.5t36.5 -48.5q-8 -59 -56 -72.5
t-182 -13.5h-86q-65 0 -92 15t-27 71q7 31 43.5 62t54.5 56.5t29 90.5l135 782q13 53 13 111q0 276 -365 287q-231 0 -369 -116t-192 -306q-57 -228 -57 -529q0 -236 37 -291q28 35 93 125.5t132 198.5q176 275 176 401q-1 28 -18 43t-45 26.5t-40 19t-12 26.5
q10 56 106.5 100t184.5 44q21 0 57 -9q58 -20 58 -110q0 -80 -49 -213q-115 -309 -451 -738z" />
    <glyph glyph-name="uni0E15" unicode="&#xe15;" horiz-adv-x="1855" 
d="M1655 1507q82 -110 82 -237q0 -36 -6 -71t-13.5 -72.5t-9.5 -49.5l-135 -782q-8 -42 -8 -57q0 -53 26 -102.5t35 -49.5q-8 -59 -55.5 -72.5t-181.5 -13.5h-86q-65 0 -92 15t-27 71q6 29 41 59.5t54 55.5t32 94l135 782q16 116 16 152q0 219 -147 237q-19 0 -118 -61.5
t-116 -61.5q-19 3 -93 63t-99 60q-95 -6 -202.5 -125.5t-154.5 -287.5q-53 -212 -53 -512q0 -232 33 -308q28 35 90 121t135 203q176 275 176 401q-1 29 -17.5 43.5t-44.5 26t-40 19t-12 26.5q9 56 105.5 100t185.5 44q19 0 57 -9q57 -20 57 -110q0 -86 -49 -213
q-50 -136 -124.5 -264.5t-151 -236t-174.5 -237.5q-71 -94 -123 -120.5t-152 -26.5q-77 0 -107.5 15t-60.5 71q-53 92 -53 393q0 239 49 475.5t152 393.5q107 163 244.5 235t234.5 72q47 -1 94 -25t90.5 -55t48.5 -31q1 0 109 55.5t158 55.5q56 0 131 -34t135 -114z" />
    <glyph glyph-name="uni0E16" unicode="&#xe16;" horiz-adv-x="1831" 
d="M1675 1077l-135 -782q-8 -42 -8 -57q0 -53 26 -102.5t35 -49.5q-8 -59 -55.5 -72.5t-181.5 -13.5h-86q-65 0 -92 15t-27 71q6 29 41 59.5t54 55.5t32 94l135 782q17 104 17 148q0 234 -357 250q-114 0 -215 -25t-164 -63.5t-71 -79.5q0 -24 16 -40t53 -43.5t57.5 -50.5
t20.5 -51q-5 -35 -76 -89t-103 -84.5t-42 -96.5l-82 -451q0 -87 27 -124.5t67 -61.5t41 -43q0 -62 -106.5 -121t-200.5 -59q-111 13 -111 213q0 83 17 164l73 422q16 94 60 143t106.5 91.5t67.5 68.5q0 23 -57 54.5t-84 53t-27 68.5q6 141 262 270q201 107 492 107
q276 0 422 -95q176 -110 176 -311q0 -83 -17 -164z" />
    <glyph glyph-name="uni0E17" unicode="&#xe17;" horiz-adv-x="1864" 
d="M975 1466q205 193 434 193q120 0 217 -57q139 -94 139 -279q0 -81 -16 -164l-152 -864q-8 -42 -8 -57q0 -55 25.5 -103.5t36.5 -48.5q-8 -59 -56 -72.5t-182 -13.5h-86q-65 0 -92 15t-27 71q7 31 43.5 62t54.5 56.5t29 90.5l152 864q8 37 8 98q0 172 -160 189
q-145 0 -260 -91.5t-244 -252.5q-229 -298 -303 -692l-20 -115q-8 -42 -8 -53q0 -56 27.5 -106t37.5 -50q-8 -59 -55.5 -72.5t-181.5 -13.5h-90q-62 0 -88.5 15.5t-26.5 70.5q8 29 40.5 59t51 56.5t31.5 93.5l176 1016q0 39 -17.5 62t-53 48t-48 39t-12.5 43q14 56 116 102
t195 46q41 0 57 -9q58 -23 58 -114q0 -26 -29 -205l-33 -180l-65 -209q0 8 51.5 99.5t136.5 208t197 224.5z" />
    <glyph glyph-name="uni0E18" unicode="&#xe18;" horiz-adv-x="1769" 
d="M1171 287q58 64 107 210.5t49 280.5q0 120 -49 193q-32 46 -202 58t-350.5 23.5t-299.5 60t-119 165.5q20 138 166 247.5t350 121.5q33 4 90 4q84 0 147.5 -10t138 -27.5t134 -27t133.5 -9.5q55 0 102.5 32.5t69.5 32.5q66 0 66 -147q-13 -123 -172 -123q-16 0 -74 8
q-31 5 -208 50.5t-304 52.5q-301 0 -348 -140q0 -85 106.5 -100.5t389 -31t381.5 -64.5q118 -56 118 -283q0 -145 -46 -310t-93 -247q-86 -145 -257 -227t-402 -88q-243 0 -422 74t-197 229q0 359 94 524q24 41 92 63.5t134 22.5q62 0 77 -20q9 -8 9 -25q0 -23 -37 -73
t-45 -87q-58 -238 -58 -315q0 -67 21 -102q75 -131 332 -131q254 0 376 135z" />
    <glyph glyph-name="uni0E19" unicode="&#xe19;" horiz-adv-x="1847" 
d="M262 598l156 713q0 39 -17.5 62t-53 48t-48 39t-12.5 43q14 56 116 102t195 46q41 0 57 -9q58 -21 58 -118q0 -67 -29 -201l-180 -848q-8 -48 -8 -74q0 -229 311 -229q140 7 257 80t191.5 183t92.5 220l122 688q0 86 -26.5 136t-26.5 73q6 55 40 70.5t108 15.5h90
q121 0 163 -13t42 -73q-7 -28 -41.5 -59.5t-54.5 -58t-31 -91.5l-115 -651q-16 -95 -78 -180q-50 -67 -102 -102q14 0 45.5 -19.5t44.5 -38.5q37 -51 37 -114q0 -90 -62 -164q-65 -86 -192 -86q-59 0 -103 24q-78 42 -78 135q-8 -6 -71.5 -46.5t-174 -74.5t-249.5 -34
q-397 49 -397 405q0 84 24 201z" />
    <glyph glyph-name="uni0E1A" unicode="&#xe1a;" horiz-adv-x="1901" 
d="M274 590l148 713q0 39 -18 61.5t-56 49.5t-49.5 40t-11.5 41q14 56 118 101.5t193 45.5q41 0 57 -8q62 -22 62 -118q0 -22 -29 -201l-151 -758q-9 -37 -9 -98q0 -295 357 -295q254 3 352.5 117.5t130.5 296.5l135 765q0 86 -26.5 136t-26.5 73q6 55 39.5 70.5t107.5 15.5
h91q121 0 162.5 -13t41.5 -73q-6 -27 -42 -60.5t-55 -58.5t-30 -90l-135 -765q-58 -320 -259.5 -453t-518.5 -133q-269 0 -431.5 105.5t-162.5 336.5q0 79 16 156z" />
    <glyph glyph-name="uni0E1B" unicode="&#xe1b;" horiz-adv-x="1901" 
d="M1647 2056q0 68 -20 100.5t-57.5 72t-37.5 69.5q10 46 114.5 103t192.5 57q86 -5 86 -185q0 -127 -29 -274l-249 -1421q-58 -321 -260 -453.5t-519 -132.5q-594 0 -594 442q0 74 17 156l147 713q0 39 -18 61.5t-56 49.5t-49.5 40t-11.5 41q16 56 119.5 101.5t191.5 45.5
q41 0 58 -8q61 -22 61 -118q0 -28 -28 -201l-152 -758q-8 -37 -8 -98q0 -295 356 -295q254 3 352 117t131 297z" />
    <glyph glyph-name="uni0E1C" unicode="&#xe1c;" horiz-adv-x="1876" 
d="M1389 578l135 765q0 86 -27 137t-27 72q7 55 40.5 70.5t107.5 15.5h90q121 0 163 -13t42 -73q-7 -28 -41.5 -59.5t-54.5 -58t-31 -91.5l-135 -765q-58 -322 -172.5 -454t-278.5 -132q-113 0 -179.5 83t-95.5 189q-25 87 -25 102q0 3 1 3q-8 -16 -39.5 -71.5t-89 -127.5
t-140.5 -125t-177 -53q-254 5 -254 377q0 144 45 450q22 151 78.5 337t123.5 323.5t113 154.5q17 8 57 8q88 0 175.5 -45.5t87.5 -101.5q-1 -39 -37.5 -57t-86.5 -42.5t-77 -80.5q-111 -207 -156 -545q-32 -222 -32 -360q0 -176 61 -181q58 0 136.5 125t135 284t56.5 239
q-13 29 -13 57q0 82 152 82q123 -5 123 -58q0 -16 -37 -81q-41 -52 -41 -242q0 -160 41 -283t119 -123q68 0 100.5 86.5t63.5 262.5z" />
    <glyph glyph-name="uni0E1D" unicode="&#xe1d;" horiz-adv-x="1876" 
d="M1200 -8q-113 0 -179.5 83t-95.5 189q-25 87 -25 102q0 3 1 3q-8 -16 -39.5 -71.5t-89 -127.5t-140.5 -125t-177 -53q-254 5 -254 377q0 144 45 450q22 151 78.5 337t123.5 323.5t113 154.5q17 8 57 8q88 0 175.5 -45.5t87.5 -101.5q-1 -39 -37.5 -57t-86.5 -42.5
t-77 -80.5q-111 -207 -156 -545q-32 -222 -32 -360q0 -176 61 -181q58 0 136.5 125t135 284t56.5 239q-13 29 -13 57q0 82 152 82q123 -5 123 -58q0 -16 -37 -81q-41 -52 -41 -242q0 -160 41 -283t119 -123q68 0 100.5 86.5t63.5 262.5l262 1478q0 68 -20 100.5t-57.5 72
t-37.5 69.5q10 46 114.5 103t192.5 57q86 -5 86 -185q0 -123 -28 -274l-250 -1421q-58 -322 -172.5 -454t-278.5 -132z" />
    <glyph glyph-name="uni0E1E" unicode="&#xe1e;" horiz-adv-x="2048" 
d="M1556 643l123 700q0 86 -26.5 136t-26.5 73q6 55 40 70.5t108 15.5h90q121 0 162.5 -13t41.5 -73q-6 -27 -41 -59.5t-54.5 -58.5t-30.5 -91l-127 -716q-56 -315 -181.5 -475t-281.5 -160q-145 8 -203.5 242t-58.5 491q0 119 8 119q0 -29 -84 -250.5t-213.5 -409.5
t-288.5 -192q-109 0 -175.5 99.5t-66.5 293.5q0 103 25 250q17 99 45 209t53 207t41.5 178.5t16.5 138.5q-3 22 -19.5 31.5t-51 23.5t-50 28t-15.5 44q16 56 119.5 101.5t192.5 45.5q41 0 57 -8q61 -25 61 -123q0 -53 -16 -143q-14 -89 -76 -327t-84 -394q-20 -123 -20 -184
q0 -150 74 -160q90 0 170.5 182.5t173.5 472.5q85 255 118 463q0 56 -13.5 89.5t-22.5 33.5q6 60 51 77t141 17q73 0 112.5 -15t39.5 -79q-4 -21 -33.5 -45.5t-36.5 -77.5q-46 -318 -49 -454v-197q0 -489 115 -500q101 0 167 373z" />
    <glyph glyph-name="uni0E1F" unicode="&#xe1f;" horiz-adv-x="2048" 
d="M569 647q-20 -123 -20 -184q0 -150 74 -160q90 0 170.5 182.5t173.5 472.5q85 255 118 463q0 56 -13.5 89.5t-22.5 33.5q6 60 51 77t141 17q73 0 112.5 -15t39.5 -79q-4 -21 -33.5 -45.5t-36.5 -77.5q-46 -318 -49 -454v-193q0 -488 115 -504q60 0 94 79t61 229l262 1478
q0 67 -18.5 98.5t-57 73t-38.5 70.5q10 46 114.5 103t192.5 57q86 -5 86 -185q0 -127 -29 -274l-250 -1421q-39 -219 -102 -349t-148.5 -183.5t-203.5 -53.5q-146 3 -204 232.5t-58 488.5q0 123 8 131q0 -29 -84 -250.5t-213.5 -409.5t-288.5 -192q-109 0 -175.5 99.5
t-66.5 293.5q0 103 25 250q17 99 45 209t53 207t41.5 178.5t16.5 138.5q-3 22 -19.5 31.5t-51 23.5t-50 28t-15.5 44q16 56 119.5 101.5t192.5 45.5q41 0 57 -8q61 -25 61 -123q0 -53 -16 -143q-14 -89 -76 -327t-84 -394z" />
    <glyph glyph-name="uni0E20" unicode="&#xe20;" horiz-adv-x="1860" 
d="M516 369q-64 -348 -225 -377q-99 0 -174.5 52.5t-75.5 127.5q11 23 67.5 46t95 59t54.5 124l70 390q16 94 59.5 142.5t106 91.5t67.5 69q0 23 -57 54.5t-84 53t-27 68.5q6 141 262 270q202 107 492 107q278 0 422 -95q176 -110 176 -311q0 -81 -16 -164l-136 -782
q-8 -42 -8 -57q0 -55 25.5 -103.5t36.5 -48.5q-8 -59 -56 -72.5t-182 -13.5h-86q-65 0 -92 15t-27 71q7 31 43.5 62t54.5 56.5t29 90.5l135 782q17 93 17 148q0 234 -357 250q-114 0 -215 -25t-164 -63.5t-71 -79.5q0 -24 16 -40t53 -43.5t57.5 -50.5t20.5 -51
q-5 -35 -76 -89t-103 -84.5t-42 -96.5z" />
    <glyph glyph-name="uni0E21" unicode="&#xe21;" horiz-adv-x="1880" 
d="M1389 586l135 757q0 86 -27 137t-27 72q7 55 40.5 70.5t107.5 15.5h90q121 0 163 -13t42 -73q-7 -28 -41.5 -59.5t-54.5 -58t-31 -91.5l-135 -753q-45 -257 -203 -422t-440 -176q-255 0 -380 74t-149 122q-11 -57 -68 -126.5t-194 -69.5q-151 6 -151 160q0 78 49 139
q44 58 94 74t135 16q-12 0 -12 74q0 86 8 135l127 721q0 39 -17.5 62t-53 48t-48 39t-12.5 43q14 56 116 102t195 46q41 0 58 -9q57 -23 57 -114q0 -26 -29 -205l-139 -799q0 -165 101 -254.5t276 -89.5q354 21 418 406z" />
    <glyph glyph-name="uni0E22" unicode="&#xe22;" horiz-adv-x="1794" 
d="M1434 1245q0 68 -20 100.5t-57.5 72t-37.5 69.5q10 46 114.5 103t192.5 57q90 -6 90 -181q0 -111 -33 -278l-98 -565q-51 -295 -254.5 -465t-580.5 -170q-257 0 -415.5 114t-158.5 308q0 50 12 106q35 153 132.5 242.5t192 124.5t126.5 35q-78 0 -193 45t-139 176
q0 296 238 430q144 82 311 82t217 -86q21 -44 21 -78q0 -113 -95 -131q-37 0 -58.5 13t-49.5 42t-48.5 42t-56.5 13q-159 -5 -213 -188q-8 -21 -8 -57q0 -85 81.5 -139.5t184.5 -57.5q103 0 219 41t130 41q19 0 24 -16q13 -28 13 -46q0 -23 -21 -53q-13 -16 -144 -56
t-247 -87t-218 -136.5t-128 -219.5q-8 -66 -8 -99q0 -249 323 -254q466 0 553 516z" />
    <glyph glyph-name="uni0E23" unicode="&#xe23;" horiz-adv-x="1663" 
d="M1114 344q44 57 77.5 154.5t33.5 193.5q0 123 -66 201q-46 52 -227.5 88t-333.5 64t-258.5 81t-106.5 152q11 141 163.5 246t385.5 123q37 4 99 4q77 0 126.5 -8.5t94.5 -21.5t107 -26.5t118 -13.5q55 0 90.5 28.5t57.5 28.5q35 0 58 -37t23 -98q-13 -127 -167 -127
q-22 0 -70 8q-60 12 -147 39t-155 41.5t-157 14.5q-118 -3 -211.5 -40t-132.5 -100q-8 -8 -8 -28q0 -37 71 -57t242 -46.5t295.5 -55t210.5 -79.5q156 -94 156 -323q0 -234 -111 -431q-86 -161 -270 -246.5t-426 -88.5q-211 0 -374 67t-163 207q0 45 8 70q46 155 193 155
q111 -6 111 -102q0 -54 -33 -94q-21 -26 -21 -49q0 -56 96.5 -81.5t202.5 -25.5q259 6 418 213z" />
    <glyph glyph-name="uni0E24" unicode="&#xe24;" horiz-adv-x="1815" 
d="M1675 1077l-241 -1372q0 -90 21.5 -149.5t31.5 -59.5q-8 -59 -55 -72.5t-179 -13.5h-86q-67 0 -95 15.5t-28 70.5q8 27 59.5 71.5t67.5 137.5l242 1372q17 104 17 148q0 234 -357 250q-114 0 -215 -25t-164 -63.5t-71 -79.5q0 -24 16 -40t53 -43.5t57.5 -50.5t20.5 -51
q-5 -35 -76 -89t-103 -84.5t-42 -96.5l-82 -451q0 -87 27 -124.5t67 -61.5t41 -43q0 -62 -106.5 -121t-200.5 -59q-111 13 -111 213q0 83 17 164l73 422q16 94 60 143t106.5 91.5t67.5 68.5q0 23 -57 54.5t-84 53t-27 68.5q6 141 262 270q201 107 492 107q276 0 422 -95
q176 -110 176 -311q0 -83 -17 -164z" />
    <glyph glyph-name="uni0E25" unicode="&#xe25;" horiz-adv-x="1757" 
d="M1352 1139v0l4 25q4 29 4 57q0 107 -73.5 188.5t-278.5 81.5q-150 -1 -235 -33.5t-130.5 -88t-72.5 -92t-66 -48.5q-42 -8 -53 -8q-91 0 -91 90q0 41 29 86q86 126 269 188t403 62q279 -3 422 -114.5t143 -311.5q0 -70 -8 -107l-131 -737q-17 -94 -17 -180q4 -16 33 -42
t29 -77q-8 -48 -54.5 -63t-134.5 -15q-95 0 -129 18.5t-34 75.5q0 17 16 123l135 758q-101 0 -302 -30t-370 -122q-118 -62 -181.5 -175.5t-63.5 -225.5q0 -98 48.5 -162t135.5 -67q53 0 106.5 36.5t90.5 40.5q98 0 98 -118q-17 -80 -108 -120t-212 -40q-191 0 -314.5 102.5
t-123.5 286.5q0 84 33 192q100 336 614 471q159 43 344 69t226 26z" />
    <glyph glyph-name="uni0E26" unicode="&#xe26;" horiz-adv-x="1855" 
d="M492 369q-65 -348 -226 -377q-99 0 -174.5 52.5t-75.5 127.5q11 23 68.5 46.5t95.5 59.5t53 123l70 390q16 94 59.5 142.5t106.5 91t68 69.5q0 23 -57 54.5t-84 53t-27 68.5q3 67 76 140.5t186 129.5q201 107 491 107q278 0 422 -95q176 -110 176 -311q0 -81 -16 -164
l-242 -1372q0 -92 21 -150.5t33 -58.5q-8 -59 -55.5 -72.5t-178.5 -13.5h-86q-68 0 -95.5 15t-27.5 71q8 30 42.5 59.5t53 56t31.5 93.5l242 1372q16 98 16 148q0 234 -356 250q-171 0 -304 -52t-147 -116q0 -24 14.5 -38.5t53.5 -43.5t59.5 -52t20.5 -51q-5 -35 -74 -87
t-103 -84.5t-44 -98.5z" />
    <glyph glyph-name="uni0E27" unicode="&#xe27;" horiz-adv-x="1622" 
d="M340 455q33 -22 33 -66q0 -14 -4 -43t-4 -47q0 -37 8 -53q58 -103 250 -103q159 0 286 78q101 60 183.5 200t128 314t45.5 326q0 157 -45 250q-42 92 -141 138t-224 46q-144 0 -271 -59t-175 -158q-25 -49 -70 -49q-38 0 -72.5 35.5t-34.5 78.5q0 32 17 62
q76 121 248 181.5t379 60.5q647 0 647 -553q0 -60 -17 -185q-81 -553 -438 -790q-208 -135 -496 -135q-137 0 -241 36q-234 73 -234 234q0 34 13 70q26 66 75 104.5t101 38.5q29 0 53 -12z" />
    <glyph glyph-name="uni0E28" unicode="&#xe28;" horiz-adv-x="1815" 
d="M1683 1077l-135 -782q-8 -42 -8 -57q0 -55 25.5 -103.5t36.5 -48.5q-8 -59 -56 -72.5t-182 -13.5h-86q-65 0 -92 15t-27 71q7 31 42 61t53.5 54.5t31.5 93.5l135 782q13 53 13 111q0 276 -365 287q-417 0 -532 -414q-62 -224 -62 -537q0 -227 37 -282q62 186 184 491
q168 439 287 467q98 0 178 -45.5t80 -101.5q-1 -37 -41 -51t-94 -31.5t-78 -61.5q-172 -329 -336 -766q-38 -96 -90 -119.5t-143 -23.5q-73 0 -110.5 13.5t-63 62t-47.5 153.5q-29 140 -29 320q0 505 225 811q213 291 639 291q131 0 241 -25t132 -45q16 0 47.5 16.5
t50.5 40.5q11 16 18.5 35t11 37.5t7.5 34.5q12 29 143 29q156 0 156 -25q0 -99 -119 -184q-95 -74 -164 -74q21 -15 55 -58.5t44 -113.5q4 -33 4 -90q0 -83 -17 -152z" />
    <glyph glyph-name="uni0E29" unicode="&#xe29;" horiz-adv-x="1880" 
d="M1655 754l-29 -176q-58 -320 -259.5 -453t-518.5 -133q-269 0 -431.5 105.5t-162.5 336.5q0 79 16 156l148 713q0 39 -18 61.5t-56 49.5t-49.5 40t-11.5 41q14 56 118 101.5t193 45.5q41 0 57 -8q62 -22 62 -118q0 -22 -29 -201l-152 -758q-8 -37 -8 -98q0 -295 357 -295
q254 3 352.5 117.5t130.5 296.5l20 118h1q0 -1 -46 -6q-54 -6 -110 -6q-95 0 -176 16q-205 40 -205 185q10 72 68.5 126t152.5 54q21 -5 21 -25q0 -10 -4.5 -28.5t-4.5 -32.5q0 -79 127 -119q43 -12 82 -12q44 0 89 12q39 10 39 12h-1l82 471q0 86 -26.5 136t-26.5 73
q6 55 39.5 70.5t107.5 15.5h90q121 0 163 -13t42 -73q-6 -27 -42 -60.5t-55 -58.5t-30 -90l-69 -397q15 0 151 127q8 8 17 8q16 0 16 -45q0 -72 -25 -143q-15 -47 -84 -85t-112 -54z" />
    <glyph glyph-name="uni0E2A" unicode="&#xe2a;" horiz-adv-x="1761" 
d="M1372 1585q57 0 98 53q11 16 18.5 35t11 37.5t7.5 34.5q13 29 144 29q155 0 155 -25q0 -42 -32 -93t-86 -91q-96 -74 -164 -74q21 -15 54.5 -57.5t43.5 -114.5q4 -33 4 -90q0 -87 -16 -152l-123 -700q-17 -94 -17 -180q4 -16 33 -42t29 -77q-8 -48 -54.5 -63t-134.5 -15
q-95 0 -129 18.5t-34 75.5q0 17 16 123l135 758q-57 0 -275.5 -39t-375.5 -109q-127 -53 -196.5 -165.5t-69.5 -231.5q0 -101 48.5 -167.5t135.5 -69.5q53 0 106.5 36.5t90.5 40.5q98 0 98 -118q-17 -77 -109 -118.5t-211 -41.5q-191 0 -314.5 102.5t-123.5 286.5
q0 84 33 192q100 336 614 471q159 43 344 69t226 26v0l4 25q4 29 4 57q0 107 -73.5 188.5t-278.5 81.5q-189 -1 -274 -48.5t-139.5 -125t-94.5 -88.5q-42 -8 -54 -8q-90 0 -90 90q0 41 29 86q86 126 270.5 188t405.5 62q120 -5 197.5 -28t113.5 -34z" />
    <glyph glyph-name="uni0E2B" unicode="&#xe2b;" horiz-adv-x="1892" 
d="M877 1184q130 90 222 118.5t126 28.5q-25 0 -94.5 42.5t-69.5 101.5q0 8 8 32q52 148 393 148q340 0 340 -168q-5 -87 -110 -129.5t-156 -42.5q17 0 77.5 -47.5t86.5 -112.5q20 -61 20 -135q0 -71 -28 -229l-86 -496q-9 -47 -9 -57q0 -51 26.5 -101.5t35.5 -50.5
q-8 -59 -55.5 -72.5t-182.5 -13.5h-86q-64 0 -91 15t-27 71q6 29 42.5 61t54.5 57.5t29 90.5l87 496q20 102 20 176q0 166 -147 192q-259 0 -484 -246q-109 -125 -188.5 -275t-93.5 -228l-21 -115q-8 -42 -8 -53q0 -56 27.5 -106t37.5 -50q-8 -59 -55.5 -72.5t-181.5 -13.5
h-90q-62 0 -88.5 15.5t-26.5 70.5q8 28 39.5 57t51 57t32.5 95l176 1016q0 39 -17.5 62t-53 48t-48 39t-12.5 43q14 56 116 102t195 46q41 0 58 -9q57 -22 57 -114q0 -40 -29 -205l-41 -229l-57 -213q24 42 94 131t185 172z" />
    <glyph glyph-name="uni0E2C" unicode="&#xe2c;" horiz-adv-x="2003" 
d="M1860 1032l-70 -405q-38 -214 -108.5 -357t-161.5 -210.5t-193 -67.5q-150 8 -208 236.5t-58 471.5q0 95 4 95q0 -11 -45 -140t-121.5 -282t-183 -265.5t-228.5 -115.5q-109 0 -175 100t-66 293q0 109 24 250q17 99 45 209t53 207t41.5 178.5t16.5 138.5
q-3 22 -19.5 31.5t-50 23t-49.5 28t-16 44.5q14 56 117.5 101.5t193.5 45.5q41 0 57 -8q62 -25 62 -123q0 -53 -16 -143q-14 -89 -76 -327t-84 -394q-21 -129 -21 -184q0 -150 74 -160q62 0 147 138.5t156.5 311.5t85.5 242q0 58 -14 90.5t-23 32.5q6 60 49.5 77t139.5 17
q73 0 114 -15t41 -79q-5 -23 -33.5 -47t-35.5 -76q-4 -16 -4 -82q0 -106 15.5 -260.5t48 -266t79.5 -116.5q100 0 168 373l78 455q8 64 8 90q0 74 -25 123q-28 68 -100 84t-189 21q-118 4 -128 26q0 130 36 172q19 19 97 21q77 1 173 4q95 2 144 20q64 26 87.5 63t42 74.5
t54.5 46.5q34 8 74 8q68 0 124 -15t56 -42q-22 -123 -217 -217q-58 -26 -146 -41.5t-116 -15.5q47 0 124 -29t126 -115q45 -78 45 -180q0 -41 -20 -164z" />
    <glyph glyph-name="uni0E2D" unicode="&#xe2d;" horiz-adv-x="1716" 
d="M569 963q-75 -51 -123.5 -182t-48.5 -261q0 -159 74 -233q115 -115 283 -115q122 0 238.5 68.5t187.5 193.5q75 130 125.5 301t50.5 326q0 194 -94 307q-93 111 -320 111q-153 0 -262 -70q-27 -17 -72 -72t-96 -75q-29 -13 -66 -13q-94 0 -94 74q0 24 13 53
q55 124 237 197.5t414 73.5q306 -9 456 -159.5t150 -406.5q0 -101 -16 -188q-43 -247 -137 -444t-271.5 -326t-443.5 -135q-282 0 -448.5 120t-166.5 367q0 62 13 127q48 296 204 443t381 147q80 -3 126 -47t46 -101q0 -74 -73 -110q-33 -16 -62 -16q-31 0 -72.5 32.5
t-70.5 32.5q-31 0 -62 -20z" />
    <glyph glyph-name="uni0E2E" unicode="&#xe2e;" horiz-adv-x="1720" 
d="M1606 897q-62 -381 -265.5 -641t-590.5 -268q-282 0 -446.5 123.5t-164.5 371.5q0 37 8 119q28 190 110.5 324t205 200t270.5 66q82 -6 129 -49t47 -99q0 -68 -78 -110q-32 -16 -61 -16q-31 0 -72.5 32.5t-70.5 32.5q-31 0 -62 -20q-74 -51 -119 -178t-45 -257
q0 -163 66 -241q102 -119 274 -119q123 0 243.5 71t191.5 195q75 130 125.5 301t50.5 326q0 195 -95 307q-91 111 -319 111q-155 0 -262 -70q-27 -17 -72 -72t-96 -75q-21 -9 -62 -9q-98 0 -98 74q0 23 12 53q63 119 237.5 190.5t414.5 71.5q132 -5 205 -26t106 -31
q57 0 98 53q11 16 18.5 35t11 37.5t7.5 34.5q12 29 144 29q155 0 155 -25q0 -99 -119 -184q-42 -33 -98.5 -55.5t-73.5 -22.5q39 -16 97.5 -102t58.5 -291q0 -98 -16 -197z" />
    <glyph glyph-name="uni0E2F" unicode="&#xe2f;" horiz-adv-x="1688" 
d="M623 1343q0 -96 176 -106q236 0 368 119q66 57 94 102.5t62.5 114t52.5 69.5q185 0 185 -159q0 -27 -9 -90l-188 -1074q-22 -127 -117 -218.5t-231 -100.5q-23 0 -73 55.5t-50 91.5q0 20 20 33q9 5 53.5 24.5t69.5 41.5q28 26 46 56.5t25 58t17 82.5t15 81l131 746
q-178 -178 -422 -197q-449 0 -492 205q0 152 102 256t242 104q71 -3 105.5 -37t34.5 -81q0 -59 -41 -95q-29 -28 -70 -28q-7 0 -22 2t-23 2q-38 0 -61 -58z" />
    <glyph glyph-name="uni0E30" unicode="&#xe30;" horiz-adv-x="1077" 
d="M475 1270q39 -70 193 -70q125 0 241 57q78 41 129 104.5t68 63.5q29 0 29 -53q0 -62 -33 -155q-18 -52 -165.5 -100.5t-289.5 -51.5q-179 0 -308.5 46.5t-129.5 154.5q6 60 95.5 118t170.5 58q17 -11 17 -29q0 -16 -14.5 -52t-14.5 -54q0 -19 12 -37zM324 418
q37 -70 192 -70q126 0 242 58q60 30 90 59.5t62 68.5t48 39q29 0 29 -49q0 -72 -33 -159q-18 -52 -166.5 -100.5t-291.5 -51.5q-179 0 -307 46.5t-128 154.5q4 60 93 118t170 58q20 -10 20 -29q0 -15 -14.5 -51t-14.5 -59q0 -21 9 -33z" />
    <glyph glyph-name="uni0E31" unicode="&#xe31;" 
d="M-299 2265q18 -78 238 -78q224 0 356 66q92 44 138 79.5t85 74t55 38.5q13 -6 13 -49q0 -109 -41 -172q-37 -60 -204.5 -122t-393.5 -62q-100 0 -205 12q-127 14 -231.5 71.5t-104.5 145.5q0 24 16 66q32 67 108.5 97t154.5 30q45 0 61 -8q25 -20 25 -37q0 -19 -35 -69
t-35 -83z" />
    <glyph glyph-name="uni0E32" unicode="&#xe32;" horiz-adv-x="1372" 
d="M897 1454q-80 41 -180 41q-137 0 -238 -65q-50 -33 -71.5 -62t-43 -73t-45.5 -62q-18 -12 -49 -12q-39 0 -68.5 29t-29.5 85q21 114 164 205q166 111 401 111q254 0 373 -99q152 -119 152 -282q0 -62 -21 -185l-139 -790q-8 -42 -8 -57q0 -53 26 -102.5t35 -49.5
q-8 -59 -55.5 -72.5t-181.5 -13.5h-87q-64 0 -91 15t-27 71q6 29 41 59.5t54 55.5t32 94l139 790q25 138 25 181q0 129 -107 188z" />
    <glyph glyph-name="uni0E33" unicode="&#xe33;" horiz-adv-x="1393" 
d="M-147 1974q-137 3 -210 62.5t-73 146.5q0 106 99 192.5t257 86.5q139 -3 213 -63t74 -146q0 -106 -97 -191t-263 -88zM922 1454q-82 41 -181 41q-138 0 -237 -65q-50 -33 -71.5 -62t-43 -73t-45.5 -62q-18 -12 -49 -12q-39 0 -68.5 29t-29.5 85q21 115 163 205
q175 111 402 111q253 0 381 -99q147 -111 147 -270q0 -41 -24 -197l-140 -790q-8 -42 -8 -57q0 -55 25.5 -103.5t36.5 -48.5q-8 -59 -56 -72.5t-182 -13.5h-86q-65 0 -92 15t-27 71q7 31 43.5 62t54.5 56.5t29 90.5l140 790q24 132 24 181q0 130 -106 188zM-86 2339
q-76 0 -124 -43t-48 -96q0 -99 127 -99q78 0 127 42.5t49 92.5q0 103 -131 103z" />
    <glyph glyph-name="uni0E34" unicode="&#xe34;" 
d="M-45 1950q-11 0 -85 25.5t-198 45t-323 19.5q-169 0 -284 -21.5t-213.5 -51.5t-125.5 -30q-24 0 -37 13q-12 12 -12 41q0 44 44.5 104.5t98.5 87.5q104 49 541 49q409 0 553 -41q38 -9 66 -58t28 -97q0 -75 -53 -86z" />
    <glyph glyph-name="uni0E35" unicode="&#xe35;" 
d="M-590 2236q126 0 259 -8q113 -7 113 -8h-3l12 74q0 33 -6 56t-6 34q4 74 172 74q71 0 109 -11t38 -59q-4 -17 -22 -39t-23 -55l-28 -152q-4 -35 -5.5 -55.5t-3.5 -38.5q0 -86 -24 -94q-24 0 -104 24.5t-196.5 43t-309.5 18.5q-169 0 -284 -21.5t-213.5 -51.5t-125.5 -30
q-24 0 -37 13q-16 16 -16 41q0 51 43.5 109t103.5 79q145 57 557 57z" />
    <glyph glyph-name="uni0E36" unicode="&#xe36;" 
d="M-324 2220v0q-1 0 -10 11q-10 13 -10 34q0 5 8 37q51 152 250 152q100 0 136 -52.5t36 -152.5q-15 -69 -46 -106t-48 -46q9 -17 23 -50.5t14 -64.5q0 -26 -25 -32q-9 0 -83 25.5t-198.5 45t-324.5 19.5q-169 0 -284 -21.5t-213.5 -51.5t-125.5 -30q-22 0 -37 13
q-16 16 -16 41q0 47 47 107.5t109 80.5q122 47 422 57q125 0 228.5 -6t147.5 -10z" />
    <glyph glyph-name="uni0E37" unicode="&#xe37;" 
d="M-524 2228l12 66q0 33 -6 56t-6 34q3 51 37.5 62.5t109.5 11.5q67 0 97 -11t30 -59q-4 -22 -22.5 -42.5t-22.5 -51.5l-12 -70l143 -8l17 78q0 36 -6.5 57.5t-6.5 32.5q3 50 38 62t110 12q66 0 96.5 -11t30.5 -59q-3 -19 -22 -41t-23 -53l-29 -152q-2 -16 -4 -46t-4 -48
q0 -86 -25 -94q-24 0 -104 24.5t-196.5 43t-309.5 18.5q-169 0 -284 -21.5t-213.5 -51.5t-125.5 -30q-22 0 -37 13q-16 16 -16 41q0 46 44.5 105.5t103.5 82.5q120 53 442 53q59 0 103 -1q44 -2 61 -3z" />
    <glyph glyph-name="uni0E38" unicode="&#xe38;" 
d="M-680 -492q0 40 -18 62.5t-56 49.5t-49.5 40t-11.5 41q14 56 117.5 101.5t193.5 45.5q41 0 58 -8q57 -20 57 -114q0 -80 -29 -205l-20 -119q0 -13 8 -35t8 -47q-19 -78 -176 -78q-86 0 -116.5 14.5t-30.5 63.5q6 24 24.5 44.5t20.5 33.5z" />
    <glyph glyph-name="uni0E39" unicode="&#xe39;" 
d="M-926 -307l-16 -99q0 -74 23 -102.5t92 -28.5q139 0 159 115l13 78q0 21 -18.5 51.5t-18.5 67.5q14 52 56 69t140 17q160 0 160 -82q-4 -39 -33 -72.5t-32 -54.5l-21 -119q-22 -120 -149 -174.5t-297 -54.5q-365 0 -365 213l12 57q0 61 -32 82l-37.5 15t-29 17t-11.5 29
q0 53 96 98.5t191 45.5q59 0 90 -25q28 -19 28 -143z" />
    <glyph glyph-name="uni0E3A" unicode="&#xe3a;" 
d="M-569 -590q-71 0 -111.5 42t-40.5 102q0 79 58.5 146t154.5 67q73 0 112.5 -41.5t39.5 -102.5q0 -81 -58.5 -147t-154.5 -66z" />
    <glyph glyph-name="glyph190" horiz-adv-x="909" 
d="M0 0v8l8 -8h-8z" />
    <glyph glyph-name="glyph191" horiz-adv-x="905" 
d="M823 -270q-11 -65 -25.5 -92t-56.5 -27q-21 0 -56.5 94.5t-43.5 99.5q-38 19 -219 19q-127 0 -172 -21q-35 -17 -65 -63.5t-57 -87.5t-50 -41q-25 0 -31 17.5t-6 101.5q47 246 52 253q13 13 91 13h566q114 0 114 -33q0 -21 -41 -233z" />
    <glyph glyph-name="uni0E3F" unicode="&#xe3f;" horiz-adv-x="1839" 
d="M365 299l188 1073q0 50 -33.5 68t-67.5 35.5t-34 64.5q20 98 200 98h484l37 230h196l-37 -230q49 -1 148 -24t197 -111t98 -258q-25 -210 -163.5 -314t-324.5 -104q349 0 349 -368q-23 -165 -111 -262t-189.5 -135t-197.5 -49.5t-96 -12.5l-41 -221h-197l41 221h-500
q-93 0 -124 18t-31 84q14 57 63 73.5t91 34.5t55 89zM1065 1450h-238l-94 -532h238zM1171 926q67 4 173 59.5t126 218.5q0 142 -78 190t-130 52zM1044 201q61 2 159 55.5t120 218.5q0 147 -70.5 195t-117.5 51zM848 205l90 524h-238l-90 -524h238z" />
    <glyph glyph-name="uni0E40" unicode="&#xe40;" horiz-adv-x="758" 
d="M467 401q0 -87 27 -124.5t67 -61.5t41 -43q0 -62 -106.5 -121t-200.5 -59q-111 13 -111 213q0 83 17 164l172 974q0 86 -27 137t-27 72q7 55 40.5 70.5t107.5 15.5h90q121 0 163 -13t42 -73q-7 -28 -41.5 -59.5t-54.5 -58t-31 -91.5z" />
    <glyph glyph-name="uni0E41" unicode="&#xe41;" horiz-adv-x="1442" 
d="M1130 401q0 -85 27 -123t67.5 -62.5t41.5 -43.5q0 -63 -106 -121.5t-202 -58.5q-110 14 -110 213q0 81 16 164l172 974q0 86 -26.5 136t-26.5 73q6 55 39.5 70.5t107.5 15.5h91q121 0 162.5 -13t41.5 -73q-6 -27 -42 -60.5t-55 -58.5t-30 -90zM467 401q0 -87 27 -124.5
t67 -61.5t41 -43q0 -62 -106.5 -121t-200.5 -59q-111 13 -111 213q0 83 17 164l172 974q0 86 -27 137t-27 72q7 55 40.5 70.5t107.5 15.5h90q121 0 163 -13t42 -73q-7 -28 -41.5 -59.5t-54.5 -58t-31 -91.5z" />
    <glyph glyph-name="uni0E42" unicode="&#xe42;" horiz-adv-x="737" 
d="M451 2138q-29 33 -66.5 44t-102 22t-65.5 24q0 78 75.5 171t166.5 120q77 25 164 25q59 0 150.5 -20t139.5 -25q57 0 96 24.5t52 24.5q8 0 24 -8q17 -9 17 -50q0 -52 -30.5 -100t-88.5 -51q-76 0 -185.5 30.5t-183.5 30.5q-47 0 -97 -28.5t-50 -69.5q24 -5 104 -22
t134 -76q49 -56 49 -131q0 -54 -13 -119l-274 -1553q0 -87 27 -124.5t67 -61.5t41 -43q0 -62 -106.5 -121t-200.5 -59q-111 13 -111 213q0 83 17 164l266 1503l25 168v0q0 50 -41 98z" />
    <glyph glyph-name="uni0E43" unicode="&#xe43;" horiz-adv-x="897" 
d="M623 2392q-67 0 -113.5 -32t-46.5 -83q0 -16 20 -16q9 0 28 4t30 4q32 0 32 -61q-13 -87 -147 -94q-184 0 -184 155q9 130 130.5 200.5t291.5 70.5q188 -3 266 -68t78 -154q-2 -98 -52 -195t-59 -145l-279 -1577q0 -85 27 -123t67.5 -62.5t41.5 -43.5q0 -63 -106 -121.5
t-202 -58.5q-110 14 -110 213q0 81 16 164l291 1642q8 51 51.5 117.5t55.5 124.5q0 139 -127 139z" />
    <glyph glyph-name="uni0E44" unicode="&#xe44;" horiz-adv-x="868" 
d="M844 2327q-11 16 -29 16q-23 0 -94.5 -57.5t-110.5 -57.5q-37 2 -91.5 60.5t-84.5 58.5q-54 -14 -63 -47t-16 -64t-52 -36q-94 0 -94 151q18 78 83.5 133.5t141.5 55.5q59 -3 89 -27.5t63 -68.5t53 -44q25 0 123 70t160 70q79 0 123.5 -56.5t44.5 -156.5
q-10 -54 -58 -109t-100 -113.5t-60 -101.5l-282 -1602q0 -87 27 -124.5t67 -61.5t41 -43q0 -62 -106.5 -121t-200.5 -59q-111 13 -111 213q0 83 17 164l278 1585q13 71 48 110.5t118.5 123t83.5 114.5q0 16 -8 25z" />
    <glyph glyph-name="uni0E45" unicode="&#xe45;" horiz-adv-x="1372" 
d="M872 1454q-80 41 -180 41q-138 0 -237 -65q-50 -33 -73 -64.5t-43.5 -72.5t-43.5 -60q-18 -12 -49 -12q-39 0 -69 29.5t-30 84.5q23 116 164 205q166 111 402 111q254 0 372 -99q152 -119 152 -282q0 -68 -20 -185l-246 -1380q0 -90 21.5 -149.5t31.5 -59.5
q-8 -59 -55 -72.5t-178 -13.5h-86q-68 0 -95.5 15t-27.5 71q8 30 43.5 60.5t53 56t30.5 92.5l245 1380q25 127 25 181q0 129 -107 188z" />
    <glyph glyph-name="uni0E46" unicode="&#xe46;" horiz-adv-x="2208" 
d="M1827 1638q168 -40 168 -286l-230 -1311q-22 -128 -116 -219t-232 -101q-23 0 -73 56.5t-50 91.5q0 19 21 33q32 14 64.5 27.5t58.5 37.5q38 35 55 76t29 117.5t14 85.5l184 1065q9 36 9 53q0 66 -50 66q-32 0 -130 -63.5t-124 -63.5q-30 0 -109.5 73.5t-115.5 73.5
q-38 0 -83.5 -46.5t-51.5 -92.5q0 -42 13 -58.5t37.5 -28.5t31.5 -20q0 -44 -80.5 -104t-120.5 -60q-64 11 -103.5 62t-39.5 127q0 64 28 127q63 135 176.5 208.5t200.5 77.5q46 0 82.5 -27t91 -75.5t76.5 -48.5q29 0 105.5 47.5t131 73.5t132.5 26z" />
    <glyph glyph-name="uni0E47" unicode="&#xe47;" 
d="M-106 2236q131 0 131 -102q0 -57 -47 -109t-121 -63q-58 -8 -78 -8q-76 0 -121 21t-108 61.5t-95 40.5q-28 0 -126 -44.5t-147.5 -63.5t-107.5 -19q-36 0 -78 20q-40 24 -40 115q0 157 90 266q107 127 340 127q41 0 157 -6t203 -6q104 4 133.5 27.5t41.5 61.5t46 38
q111 -14 111 -135q-35 -119 -246 -127q-62 0 -196 6t-193 6q-97 0 -148 -21q-25 -11 -47.5 -56.5t-25.5 -82.5q0 -36 16 -41q47 0 134 47t124 47q23 0 41 -12q113 -76 157.5 -99.5t51.5 -23.5q12 67 39 99.5t109 35.5z" />
    <glyph glyph-name="glyph201" 
d="M66 3064q114 0 114 -70l-69 -389q-6 -39 -37.5 -54.5t-106.5 -15.5q-73 0 -96 14.5t-23 55.5l70 389q10 70 148 70z" />
    <glyph glyph-name="glyph202" 
d="M-86 2683q0 -21 70 -21q117 0 184 33q67 36 96 65.5t49 68t23 42.5q15 21 106 21q113 0 119 -29q0 -86 -145.5 -191t-317.5 -132q-88 -13 -213 -13q-262 0 -262 70q4 15 42.5 57.5t47.5 93.5q0 31 -43 50t-43 36q0 44 86 75.5t176 31.5q78 0 99 -21q24 -24 24 -61
q0 -47 -36 -103t-62 -73z" />
    <glyph glyph-name="glyph203" 
d="M-106 2613q0 -34 -57 -60t-161 -26q-65 0 -65 131q0 109 41 189q28 58 83 92.5t109 34.5q56 0 86.5 -21t57.5 -53t41 -33q25 0 99.5 53.5t137.5 53.5q131 -5 131 -123q0 -109 -61 -176q112 21 184 106q49 57 78 148q17 45 139 45q103 0 103 -29q-2 -30 -40 -59t-71 -76
q-162 -239 -381 -270q-59 -9 -98 -9q-131 0 -131 54q0 15 16 36q49 77 49 144q0 32 -20 45q-20 0 -76 -35t-84 -35q-23 0 -61 37t-54 37q-12 0 -24 -12q-25 -25 -33 -99q0 -32 31 -51t31 -39z" />
    <glyph glyph-name="glyph204" 
d="M111 2605q-6 -39 -37.5 -54.5t-106.5 -15.5q-73 0 -96 14.5t-23 55.5l21 111h-213q-29 0 -29 77q18 74 54 74h213l24 127q10 70 148 70q114 0 114 -70l-24 -127h213q28 0 28 -74q-14 -77 -53 -77h-213z" />
    <glyph glyph-name="glyph205" 
d="M12 2601q0 -22 11 -30.5t33.5 -13t32.5 -9t13 -21.5q0 -62 -52 -98.5t-140 -36.5q-81 0 -130.5 42.5t-49.5 113.5q0 37 12 73q21 74 70.5 116.5t99 59.5t162.5 46q113 30 142.5 61.5t33.5 66t29 35.5q57 0 57 -81q0 -51 -17 -82q-29 -66 -74 -102t-134 -58
q-88 -23 -99 -82z" />
    <glyph glyph-name="uni0E4D" unicode="&#xe4d;" 
d="M-356 1851q-137 3 -210 62.5t-73 146.5q0 106 99 192.5t257 86.5q139 -3 213 -63t74 -146q0 -106 -97 -191t-263 -88zM-299 2216q-76 0 -124 -43t-48 -96q0 -40 34 -69.5t97 -29.5q78 0 127 41.5t49 94.5q0 43 -35 72.5t-100 29.5z" />
    <glyph glyph-name="uni0E4E" unicode="&#xe4e;" 
d="M86 2048q-104 -90 -266 -90q-126 0 -168 65q-25 43 -25 103q0 123 82 213q101 115 275 115q-48 4 -89.5 35t-41.5 83q0 33 8 49q33 90 119.5 148t199.5 74q190 0 238 -29l-99 -78q-21 6 -39.5 12t-46.5 9q-27 0 -69 -13q-114 -35 -144 -139q0 -127 144 -127l-53 -94
q-148 0 -250 -82q-70 -56 -70 -152q0 -28 8 -41q24 -45 82 -45q86 0 144 58z" />
    <glyph glyph-name="uni0E4F" unicode="&#xe4f;" horiz-adv-x="2089" 
d="M942 0q-228 0 -383 89t-230 238t-75 332q0 234 120 461.5t343.5 372.5t515.5 145q228 0 383 -89t230 -238t75 -332q0 -234 -120 -461.5t-344 -372.5t-515 -145zM1212 1528q-253 0 -445 -125.5t-295 -322t-103 -400.5q0 -157 64.5 -286t198.5 -206t331 -77
q252 0 444.5 125.5t295.5 321.5t103 400q0 246 -150.5 408t-443.5 162zM1004 352q-193 0 -293.5 107.5t-100.5 269.5q0 132 67.5 262t195 212.5t294.5 82.5q193 0 293.5 -107.5t100.5 -269.5q0 -211 -154.5 -384t-402.5 -173z" />
    <glyph glyph-name="uni0E50" unicode="&#xe50;" horiz-adv-x="1815" 
d="M164 631q52 296 265.5 471.5t586.5 175.5q323 0 481 -132t158 -364q0 -51 -17 -151q-35 -192 -139 -337t-284.5 -227t-428.5 -83q-322 0 -478 133t-156 370q0 70 12 144zM987 1106q-470 -5 -553 -475q-12 -61 -12 -123q0 -352 397 -352q246 0 379.5 132.5t169.5 342.5
q12 67 12 127q0 348 -393 348z" />
    <glyph glyph-name="uni0E51" unicode="&#xe51;" horiz-adv-x="1729" 
d="M893 467q41 -35 41 -107q0 -100 -62 -196q-113 -180 -417 -180q-163 11 -243.5 139.5t-80.5 314.5q0 100 16 176q65 300 276 479t523 185q309 0 462 -134t153 -366q0 -82 -17 -164q-45 -232 -157.5 -396.5t-246.5 -257t-257.5 -133t-198.5 -40.5q-12 3 -26.5 20t-14.5 29
q0 9 12 17q178 49 367.5 236t259.5 534q12 67 12 131q0 162 -81 259t-250 97q-137 0 -251 -61.5t-190 -177.5t-104 -273q-12 -73 -12 -139q0 -128 49 -195t114 -67q60 0 90 49q9 12 9 37q0 18 -4.5 44.5t-4.5 41.5q0 42 33 82q41 45 111 45q54 0 90 -29z" />
    <glyph glyph-name="uni0E52" unicode="&#xe52;" horiz-adv-x="1892" 
d="M217 1843q6 62 111 62q51 0 110 -13q267 -49 267 -307q0 -43 -13 -110l-184 -1065q0 -91 8 -131q37 -91 156 -91h467q131 0 221 172q48 102 91.5 272t43.5 277q0 93 -37 99q-34 0 -95 -45t-97 -45q-37 0 -88 53t-97 53q-47 -17 -77 -86.5t-37 -146.5q5 -95 45 -95
q23 0 90 37q24 12 45 12q57 0 57 -69q0 -39 -20 -70q-67 -123 -238 -123q-29 0 -74 9q-143 39 -143 253q0 121 53 263q47 111 127.5 186.5t175.5 75.5q47 -4 70.5 -23t78.5 -68t81 -49q23 0 126 66.5t161 73.5q176 0 176 -295q-25 -412 -205 -746q-75 -138 -193.5 -183.5
t-289.5 -45.5h-525q-188 0 -270 82q-66 66 -66 180q0 33 17 156l168 950q3 21 17.5 103t14.5 118q0 85 -40 131q-23 26 -55.5 39t-68.5 22t-50.5 20t-14.5 42z" />
    <glyph glyph-name="uni0E53" unicode="&#xe53;" horiz-adv-x="1708" 
d="M823 434q62 -33 62 -115q0 -66 -41 -143q-115 -184 -385 -184q-165 0 -246.5 129.5t-81.5 320.5q0 82 12 156q27 166 105 320.5t199.5 253t269.5 98.5q78 0 121.5 -38t71 -91.5t36.5 -55.5q14 0 61 54.5t107 92.5t160 38q144 0 217.5 -117.5t73.5 -304.5q0 -175 -63 -359
t-175 -317q-99 -119 -198.5 -175.5t-239.5 -98.5q-58 0 -62 12q0 10 21 24q50 29 128 104.5t156 200.5t125 285q50 198 50 320q0 213 -123 213q-65 0 -165 -84t-110 -84q-15 1 -49 54t-68 87.5t-83 34.5q-106 -11 -191.5 -151.5t-107.5 -303.5q-13 -94 -13 -172
q0 -262 119 -262q41 0 78 37q24 24 24 66q0 10 -2 30t-2 31q0 33 13 53q33 62 110 62q44 0 86 -21z" />
    <glyph glyph-name="uni0E54" unicode="&#xe54;" horiz-adv-x="1634" 
d="M1020 492q-25 -64 -25 -115q0 -149 131 -205q25 -10 123.5 -15.5t98.5 -33.5q-47 -131 -226 -131q-51 1 -98.5 17t-106 44.5t-91.5 40.5t-68 12q-31 -3 -108 -36t-157 -55.5t-182 -22.5q-172 11 -172 299q0 122 37 303q47 222 131 368.5t238 233.5q113 61 295 61
q34 0 104 -2t105 -2q137 0 237 41q122 51 190 143t103.5 204t59.5 187t57 81q61 0 61 -119q0 -80 -26.5 -178t-80 -199t-136.5 -181.5t-187 -117.5q-151 -41 -409 -41q-46 0 -136 -8q-231 -32 -327 -475q-21 -135 -21 -205q0 -192 78 -192q21 0 45 12q80 46 132 61t73 21v-1
q-2 0 -16 42q-17 46 -17 102q0 55 25 127q41 104 120.5 166.5t182.5 62.5q65 0 108 -39t43 -108q-6 -32 -46 -44t-79 -28t-63 -75z" />
    <glyph glyph-name="uni0E55" unicode="&#xe55;" horiz-adv-x="1593" 
d="M1294 1303q113 53 175.5 144t96 203t55 182.5t54.5 76.5q62 0 62 -119q0 -80 -26.5 -178t-80 -199t-136.5 -181.5t-187 -117.5q-152 -41 -410 -41q-45 0 -135 -8q-231 -32 -328 -475q-20 -145 -20 -205q0 -192 78 -192q19 0 45 12q79 46 131 61t73 21v-1q-3 0 -16 40
q-16 48 -16 104q0 53 24 127q41 104 120.5 166.5t182.5 62.5q64 0 108 -39t44 -108q-7 -32 -61 -48t-79 -28t-49 -71q-24 -61 -24 -115q0 -149 131 -205q26 -10 123.5 -15.5t97.5 -33.5q-47 -131 -225 -131q-51 1 -97 16.5t-106 44.5t-93 41t-69 12q-31 -3 -108 -36
t-156 -55.5t-182 -22.5q-172 11 -172 299q0 130 37 303q90 433 368 602q115 66 328 66q-61 30 -61 163q38 197 217 213q193 0 213 -139q0 -96 -38.5 -157t-60.5 -72q99 0 172 33z" />
    <glyph glyph-name="uni0E56" unicode="&#xe56;" horiz-adv-x="1610" 
d="M524 295q-8 -16 -8 -41q0 -90 189 -90q73 0 135 12q158 36 261 216t103 370q0 182 -98 262q-104 86 -254 86q-230 0 -414 -143q-16 -17 -41 -17q-23 0 -42 18t-19 40q29 237 29 401q-3 148 -33.5 246t-72.5 168t-42 86q13 20 37 20q62 0 150 -97t128 -230
q46 -138 46 -295q0 -31 -2.5 -59t-2.5 -36q0 -24 9 -24q30 29 144 57.5t245 28.5q217 0 348 -94q172 -126 172 -377q0 -231 -123 -438q-113 -190 -263.5 -282.5t-379.5 -98.5q-492 0 -492 303q21 99 98.5 147.5t176.5 48.5q90 -5 90 -98q-2 -37 -35.5 -56t-38.5 -34z" />
    <glyph glyph-name="uni0E57" unicode="&#xe57;" horiz-adv-x="2142" 
d="M856 180q-77 -192 -369 -192q-344 15 -344 426q0 54 17 192q39 257 188.5 462.5t360.5 205.5q81 0 118.5 -25.5t59 -61.5t31.5 -36q12 0 44.5 35.5t78 61t126.5 26.5q164 0 240 -103.5t76 -277.5q0 -41 -8 -115q-24 -196 -69 -324t-90.5 -199l-45.5 -71q64 0 157.5 84
t145.5 256q49 174 81 411t62 363.5t123 274.5q98 156 247.5 264.5t231.5 108.5q32 0 37 -17q0 -23 -69 -84.5t-125.5 -124t-120.5 -184.5q-71 -139 -104.5 -351.5t-60.5 -401.5t-95.5 -352t-218.5 -288q-99 -81 -239.5 -118t-264.5 -37q-115 0 -115 28q5 16 49 98.5
t88.5 195.5t83.5 272q41 161 41 299q0 197 -98 209q-43 0 -85.5 -39.5t-88.5 -98.5t-55 -59t-36 55t-50.5 91.5t-61.5 50.5q-64 0 -125.5 -66.5t-108.5 -177.5t-69 -240q-12 -85 -12 -151q0 -136 42.5 -211.5t104.5 -75.5q45 0 82 49q16 16 16 37q0 13 -8 36t-8 38
q0 34 37 65q35 29 70 29q50 0 86 -45.5t36 -110.5q0 -47 -16 -86z" />
    <glyph glyph-name="uni0E58" unicode="&#xe58;" horiz-adv-x="1778" 
d="M1266 389q-3 35 -16.5 46t-38 18t-36.5 21.5t-12 57.5q4 45 48.5 87t123.5 45q96 0 142.5 -61t46.5 -161q0 -61 -13 -114q-34 -142 -123.5 -234.5t-211.5 -101.5q-86 0 -148 50.5t-128 131t-89 80.5q-30 0 -106 -82.5t-142.5 -131t-165.5 -48.5q-254 0 -254 360
q0 93 21 221q36 234 130 408.5t238 239.5q120 57 340 57q50 0 171 -4t202 -4q250 17 381 237q50 82 85 195t55.5 178.5t48.5 69.5q61 0 61 -111q0 -165 -94 -369q-147 -320 -459 -372q-41 -8 -139 -8q-37 0 -116 2t-118 2q-255 0 -340 -99q-46 -53 -88.5 -157t-67 -218
t-24.5 -206q0 -157 70 -168q37 0 73.5 27.5t89.5 82.5t94 85.5t87 33.5q50 0 89.5 -31t88 -89.5t81.5 -85.5t73 -27q43 8 66.5 51t23.5 96z" />
    <glyph glyph-name="uni0E59" unicode="&#xe59;" horiz-adv-x="1831" 
d="M721 266q0 16 -23.5 30.5t-35 26t-11.5 42.5q22 86 156 86q62 0 98.5 -43.5t36.5 -112.5q0 -43 -16 -82q-43 -118 -151 -169.5t-238 -51.5q-189 3 -281 121t-92 309q0 240 135 504q180 344 578 344q172 -13 234 -110.5t69 -160.5q0 40 44 153t119 118q36 0 67.5 -15.5
t71.5 -44.5t60.5 -40t50.5 -11q47 13 103 123t82 221q32 137 32 242q0 37 -4 83t-4 56q0 17 8 33q25 37 45 37q35 0 56.5 -86t21.5 -205q0 -107 -16 -188q-36 -208 -128 -371t-200 -166q-26 0 -78 41t-102 41q-49 -9 -88 -139t-39 -271q0 -168 50 -302.5t143 -180.5
q11 0 42 6t44 6q12 0 16 -8q8 -16 8 -29q0 -39 -48 -70.5t-124 -31.5q-107 3 -208 148.5t-148 334.5q-28 141 -57 277t-85.5 228.5t-160.5 92.5q-109 -16 -189.5 -165.5t-109.5 -309.5q-13 -65 -13 -135q0 -128 46.5 -209.5t142.5 -81.5q83 16 90 86z" />
    <glyph glyph-name="uni0E5A" unicode="&#xe5a;" horiz-adv-x="2109" 
d="M573 1343q0 -96 177 -106q236 0 368 119q66 57 94 102.5t62.5 114t52.5 69.5q184 0 184 -159q0 -34 -8 -90l-188 -1074q-22 -127 -117 -218.5t-231 -100.5q-23 0 -73 55.5t-50 91.5q0 20 20 33q9 5 53.5 24.5t69.5 41.5q28 26 46 56.5t25 58t17 82.5t15 81l131 746
q-2 -2 -35 -34t-86.5 -65.5t-128 -61t-172.5 -36.5q-449 0 -492 205q0 152 102 256t242 104q71 -3 105.5 -37t34.5 -81q0 -59 -41 -95q-29 -28 -70 -28q-7 0 -22 2t-23 2q-38 0 -62 -58zM2097 1630l-229 -1311q-22 -127 -117 -218.5t-231 -100.5q-23 0 -73 55.5t-50 91.5
q0 20 20 33q9 5 53.5 24.5t69.5 41.5q37 33 56 76t27.5 93t18.5 109l193 1106h262z" />
    <glyph glyph-name="uni0E5B" unicode="&#xe5b;" horiz-adv-x="3670" 
d="M786 -57q-273 0 -466 158t-193 415q0 272 91.5 488.5t275.5 357.5t448 186q58 8 86 8q149 0 275 -56.5t180 -94.5l-29 -225q-7 0 -76.5 42.5t-161.5 73.5t-221 31q-65 0 -102 -4q-150 -17 -277 -126t-199.5 -267.5t-72.5 -311.5q0 -193 117.5 -317.5t361.5 -124.5
q185 0 326.5 92.5t224.5 203.5t160 241.5t96 130.5q13 0 64 -108t83.5 -168t65.5 -64q23 0 60 42.5t102.5 129t103.5 129t62 43.5q46 0 104 -178t64 -178q11 0 159 174t181 174q35 0 103.5 -140.5t121.5 -217t143 -76.5q132 21 212.5 119t123.5 213q41 109 41 114v0h189
q-41 -95 -124 -256.5t-147 -214.5q-193 -160 -344 -160q-119 0 -198.5 80.5t-126.5 182.5q-43 94 -43 101v1q-58 -68 -164 -176t-160 -127q-53 0 -92.5 71t-104.5 224q-64 -75 -171 -187t-136 -112q-92 38 -176 249q-8 0 -75.5 -102.5t-162 -205.5t-248.5 -186.5t-354 -90.5
z" />
    <glyph glyph-name="glyph221" 
d="M-844 -999q0 39 -18 61.5t-56 49.5t-49.5 40t-11.5 41q16 56 119 102t192 46q41 0 58 -9q57 -25 57 -118q0 -59 -25 -201l-24 -119q0 -13 8 -35t8 -47q-19 -78 -172 -78q-87 0 -119 14.5t-32 63.5q6 24 24.5 43.5t20.5 34.5z" />
    <glyph glyph-name="glyph222" 
d="M-1081 -836l-17 -98q0 -74 23 -102.5t92 -28.5q139 0 160 115l12 78q0 23 -16.5 53t-16.5 65q16 54 56.5 70t136.5 16q85 0 124.5 -15t39.5 -67q-4 -36 -35 -69t-35 -58l-21 -118q-19 -121 -147.5 -175.5t-298.5 -54.5q-365 0 -365 213l13 58q0 61 -33 82l-37.5 15
t-29 17t-11.5 29q0 54 96 98.5t191 44.5q60 0 90 -24q37 -31 37 -82q0 -20 -8 -62z" />
    <glyph glyph-name="glyph223" 
d="M-684 -1237q-75 0 -115.5 43t-40.5 109q0 82 59.5 151.5t157.5 69.5q78 0 117 -43t39 -109q0 -84 -59.5 -152.5t-157.5 -68.5z" />
    <glyph glyph-name="exclamdown" unicode="&#xa1;" horiz-adv-x="1073" 
d="M561 323q0 -111 -5 -242.5t-14.5 -267t-23.5 -266t-32 -238.5q-20 -115 -77 -172.5t-151 -57.5q-156 0 -156 156q0 18 1.5 36.5t5.5 37.5q15 85 38.5 187.5t52.5 212t61.5 221.5t65.5 216t64.5 195t58.5 158t47.5 106t31.5 39q8 0 14 -23.5t10 -66t6 -101.5t2 -130z
M791 1043q0 -47 -17.5 -89.5t-48 -74.5t-73.5 -51.5t-94 -19.5q-42 0 -73 12.5t-51.5 33.5t-31 50t-10.5 62q0 45 17.5 87.5t48.5 75.5t74 52.5t94 19.5q40 0 70.5 -12t51.5 -33.5t32 -50.5t11 -62z" />
    <glyph glyph-name="cent" unicode="&#xa2;" horiz-adv-x="1280" 
d="M1276 1732l-275 -543q37 -15 69 -35t55.5 -44t37 -52t13.5 -58q0 -17 -8.5 -37.5t-22.5 -38.5t-33.5 -30.5t-41.5 -12.5q-19 0 -29.5 1.5t-18 6.5t-13.5 15t-16 26.5t-26.5 41t-44.5 59.5l-450 -888q67 -32 146 -32q103 0 185 34.5t154 104.5q58 57 92 57t34 -32
q0 -39 -32.5 -78.5t-92.5 -85.5q-97 -75 -193.5 -111.5t-205.5 -36.5h-6q-84 0 -161 23l-200 -396h-98l218 429q-109 58 -165 165t-56 250q0 98 26 194.5t73.5 184t114.5 162t150 129.5t179 86t201 31q20 0 40.5 -2t42.5 -6l264 519h94zM851 1081q-32 13 -92 13
q-79 0 -152.5 -41.5t-134 -114t-104 -170.5t-62.5 -211q-4 -24 -6 -47t-2 -46q0 -82 25.5 -152t76.5 -119z" />
    <glyph glyph-name="sterling" unicode="&#xa3;" horiz-adv-x="1405" 
d="M1401 1653q0 -30 -11 -56.5t-29.5 -46.5t-41.5 -31.5t-47 -11.5q-16 0 -31.5 5t-27.5 17.5t-19.5 33t-7.5 50.5q0 20 4.5 45.5t4.5 45.5q0 57 -34 87.5t-106 30.5q-70 0 -127 -29t-100.5 -101.5t-73.5 -196t-45 -313.5q-5 -69 -8.5 -99t-2.5 -40v-8h353l-23 -131h-353
q-15 -89 -29 -161.5t-34 -140t-48.5 -135t-72.5 -147.5q121 -43 192.5 -66.5t92.5 -28.5q42 -10 73 -13.5t70 -3.5q119 0 195.5 54t130.5 166l48 -12q-33 -110 -84.5 -194t-114.5 -140.5t-133.5 -85.5t-140.5 -29q-34 0 -59.5 1t-50 7.5t-50.5 20t-60 38t-79.5 62
t-108.5 91.5q-72 -109 -145.5 -164.5t-145.5 -55.5h-3q-60 0 -96.5 36t-36.5 102q0 44 19 89t52 81.5t76.5 59.5t93.5 23q4 0 7.5 -0.5t7.5 -0.5l126 -10q8 25 14.5 51t11.5 57.5t10 71.5t10 93t11 123t14 161h-266l23 131h266q16 203 28 272q21 123 77.5 230.5t137.5 188
t182.5 127t212.5 46.5q79 0 136 -22.5t94 -58t54.5 -79t17.5 -86.5zM331 237q-27 16 -53 25t-57 12q-33 0 -61.5 -10.5t-49 -30t-32 -46t-11.5 -58.5q0 -38 20 -60.5t52 -22.5q22 0 46 9.5t48.5 32t49 59t48.5 90.5z" />
    <glyph glyph-name="currency" unicode="&#xa4;" horiz-adv-x="1405" 
d="M1509 1515l-231 -193q83 -137 83 -288q0 -133 -56 -254t-162 -233l163 -200l-94 -75l-161 196q-106 -72 -202 -107t-193 -35q-56 0 -114 11t-110 30.5t-93 45t-63 55.5l-234 -196l-64 75l232 200q-81 115 -81 268q0 285 216 507l-164 193l90 77l166 -194q40 30 93 55.5
t109 44.5t111.5 29.5t101.5 10.5t95.5 -8.5t97 -26t90.5 -43.5t77 -62l229 194zM1248 1010q0 84 -30.5 159.5t-85.5 132.5t-132 90.5t-170 33.5q-74 0 -146 -21.5t-137.5 -59.5t-121.5 -92t-97 -118t-64 -137.5t-23 -151.5q0 -87 31 -161.5t86 -130t131.5 -87t166.5 -31.5
q74 0 147 21.5t139 60t122 92t97 117t64 135.5t23 148z" />
    <glyph glyph-name="yen" unicode="&#xa5;" horiz-adv-x="1405" 
d="M1597 1808q-45 0 -79.5 -10.5t-65.5 -35t-61 -65t-67 -101.5l-409 -665h530l-18 -102h-574l-13 -21l-39 -224h584l-18 -102h-584l-25 -147q-11 -66 -17 -106t-6 -65q0 -28 13 -48t34 -33.5t48.5 -20t56.5 -6.5h57l-9 -56h-707l9 56h44q63 0 102.5 9t65.5 38.5t42 84.5
t32 147l25 147h-582l18 102h582l34 197l-13 48h-561l18 102h518l-173 679q-15 58 -32 96t-39.5 60.5t-52.5 32t-69 9.5l9 52h607l-9 -52q-49 0 -83.5 -9t-56 -23t-31.5 -30.5t-10 -32.5q0 -23 12 -71l169 -711l413 690q26 44 37 72.5t11 46.5q0 9 -4 18.5t-15 18.5t-31.5 16
t-53.5 11l-37 4l9 52h474z" />
    <glyph glyph-name="brokenbar" unicode="&#xa6;" horiz-adv-x="563" 
d="M554 1951l-176 -1018h-115l176 1018h115zM287 414l-176 -1018h-115l176 1018h115z" />
    <glyph glyph-name="section" unicode="&#xa7;" horiz-adv-x="1405" 
d="M1245 1640q0 -27 -8 -56.5t-24.5 -54t-42 -40.5t-59.5 -16q-38 0 -63.5 24.5t-25.5 62.5q0 17 6.5 36t14.5 40.5t14.5 46t6.5 52.5q0 45 -32 75.5t-96 30.5q-56 0 -107 -23.5t-90.5 -63.5t-63 -94t-23.5 -115q0 -41 12 -77t36 -71t59 -70t81 -74q89 -75 155.5 -141.5
t110.5 -129t65.5 -123t21.5 -124.5q0 -18 -2 -36.5t-5 -37.5q-11 -61 -39 -123.5t-75.5 -123.5t-114.5 -117.5t-156 -105.5q31 -42 52.5 -78.5t35.5 -69.5t20.5 -64.5t6.5 -63.5q0 -95 -39 -179.5t-103.5 -147.5t-148.5 -100t-173 -37q-66 0 -120.5 21t-93.5 57t-60 84
t-21 101q0 33 10.5 63.5t28.5 54t42.5 37t51.5 13.5q33 0 58.5 -23.5t25.5 -69.5q0 -22 -8 -49t-17.5 -54t-17.5 -50.5t-8 -38.5q0 -23 12.5 -40t33 -28.5t47 -17.5t54.5 -6q53 0 104 24t91.5 63t65 89t24.5 102q0 40 -12.5 79.5t-39.5 79.5t-68 83t-98 91
q-86 72 -148 136.5t-102.5 124.5t-60 118.5t-19.5 118.5q0 18 2 36t5 37l1 5q10 60 39 123t76.5 123.5t114.5 116t153 100.5q-58 83 -86 151t-28 138q0 90 39.5 172.5t104 145.5t148 100t170.5 37q67 0 122 -20.5t94.5 -56t61 -82.5t21.5 -100zM1029 593q0 38 -11 77
t-38.5 83t-73 95t-114.5 114q-49 45 -88.5 82.5t-68.5 69.5q-135 -72 -200.5 -161.5t-65.5 -201.5q0 -62 23.5 -113t72 -107t123 -126.5t175.5 -171.5q137 73 201.5 162t64.5 198z" />
    <glyph glyph-name="dieresis" unicode="&#xa8;" horiz-adv-x="811" 
d="M459 1499q0 -32 -14 -60.5t-37 -51t-52 -35.5t-58 -13q-52 0 -84 32t-32 81q0 32 13.5 61.5t36 52t51.5 35.5t61 13q25 0 46 -9t36.5 -24.5t24 -36.5t8.5 -45zM902 1500q0 -33 -13.5 -62t-36 -51t-51.5 -35t-60 -13q-25 0 -46 9t-36.5 24.5t-24.5 36.5t-9 45
q0 31 14 59.5t37.5 51t53 36t59.5 13.5q23 0 43.5 -8.5t36 -23.5t24.5 -36t9 -46z" />
    <glyph glyph-name="copyright" unicode="&#xa9;" horiz-adv-x="2134" 
d="M2098 1098q-1 -143 -43.5 -282.5t-118 -266.5t-181.5 -235t-234.5 -187t-275 -124t-304.5 -45q-113 0 -217.5 26.5t-195.5 76t-165.5 120.5t-128 160t-82.5 195t-29 225q0 143 42.5 283.5t119.5 267.5t183.5 235t235 187t274.5 124t301 45q110 0 213.5 -26.5t194.5 -75.5
t166.5 -120.5t130 -160.5t84.5 -195.5t30 -226.5zM2010 1080q0 150 -52.5 284.5t-149.5 235t-235 159.5t-309 59q-118 0 -241.5 -34.5t-241 -98.5t-222 -156t-182.5 -207t-123.5 -251t-45.5 -288q0 -150 52 -285t149 -236t235.5 -160.5t311.5 -59.5q126 0 253 37t244 104
t219 161.5t177 209.5t118 248.5t43 277.5zM1699 1556l-40 -384h-52q-11 83 -41 143.5t-76.5 100.5t-107.5 59t-134 19q-117 0 -217.5 -50t-174 -142.5t-115.5 -222.5t-42 -289q0 -101 25.5 -175t73 -123t116 -73t155.5 -24q267 0 467 222l47 -27q-239 -278 -574 -278
q-121 0 -220.5 38t-170.5 105t-110 159t-39 201q0 96 29 188.5t82 175t126.5 151.5t162 119.5t190 78.5t209.5 28h5q37 0 60.5 -1t47 -6t54 -15.5t83.5 -29.5q17 -6 29.5 -7.5t18.5 -2.5q23 0 40.5 11.5t38.5 50.5h54z" />
    <glyph glyph-name="ordfeminine" unicode="&#xaa;" horiz-adv-x="925" 
d="M912 1641q0 -5 -0.5 -11.5t-2 -19.5t-4.5 -34.5t-9 -57t-15 -87t-22 -124.5q-5 -27 -7.5 -46t-2.5 -33q0 -20 11 -30t24.5 -17.5t24.5 -14t11 -18.5q0 -22 -19.5 -32.5t-52.5 -10.5h-74q-29 0 -40 8t-11 29q0 18 6 51l7 43q-125 -155 -302 -155q-51 0 -95.5 12.5
t-77.5 37t-52.5 60.5t-19.5 83q0 73 38 136.5t105 111t158.5 75t198.5 27.5l100 -5q1 2 1 10v11q0 40 -15 73.5t-41.5 56.5t-62 36t-77.5 13q-27 0 -64.5 -11.5t-72.5 -26t-62.5 -27t-34.5 -13.5q-42 0 -42 33q0 25 28 48t70.5 40t93.5 27t98 10q65 0 120.5 -16.5t96.5 -49
t64 -80.5t23 -112zM776 1547q-30 0 -48 0.5t-29 0.5h-22q-56 0 -118 -15.5t-114 -47t-86 -78.5t-34 -111q0 -32 13 -55.5t33 -39t44.5 -23t47.5 -7.5q50 0 97.5 13t86.5 42t67 74.5t39 110.5z" />
    <glyph glyph-name="guillemotleft" unicode="&#xab;" horiz-adv-x="1405" 
d="M1420 1282l-446 -646l222 -646h-81l-428 646l652 646h81zM799 1282l-446 -646l222 -646h-77l-420 646l644 646h77z" />
    <glyph glyph-name="logicalnot" unicode="&#xac;" horiz-adv-x="1583" 
d="M1621 1205l-97 -557h-110l77 445h-1371l20 112h1481z" />
    <glyph glyph-name="minus" unicode="&#xad;" horiz-adv-x="935" 
d="M831 734l-36 -208h-709l36 208h709z" />
    <glyph glyph-name="registered" unicode="&#xae;" horiz-adv-x="2134" 
d="M2098 1098q-1 -143 -43.5 -282.5t-118 -266.5t-181.5 -235t-234.5 -187t-275 -124t-304.5 -45q-113 0 -217.5 26.5t-195.5 76t-165.5 120.5t-128 160t-82.5 195t-29 225q0 143 42.5 283.5t119.5 267.5t183.5 235t235 187t274.5 124t301 45q110 0 213.5 -26.5t194.5 -75.5
t166.5 -120.5t130 -160.5t84.5 -195.5t30 -226.5zM2010 1080q0 150 -52.5 284.5t-149.5 235t-235 159.5t-309 59q-118 0 -241.5 -34.5t-241 -98.5t-222 -156t-182.5 -207t-123.5 -251t-45.5 -288q0 -150 52 -285t149 -236t235.5 -160.5t311.5 -59.5q126 0 253 37t244 104
t219 161.5t177 209.5t118 248.5t43 277.5zM1563 1269q-3 -62 -23 -114.5t-62.5 -96.5t-110 -79.5t-165.5 -62.5l215 -409q19 -36 35 -59t33 -36t35.5 -18.5t42.5 -6.5l-8 -46h-254l-307 557h-104l-73 -424q1 -24 7 -40.5t22 -27t44.5 -15t73.5 -4.5l-8 -46h-503l8 46
q50 0 80 6.5t48 27t28 57.5t21 98l124 717q8 48 12 75t4 44q0 32 -28.5 50t-82.5 18l9 47h530q90 0 157.5 -20t111.5 -55t66 -82t22 -101zM1339 1252q0 47 -16.5 86.5t-47.5 68t-74 44.5t-96 16q-55 0 -119 -21l-85 -490q223 2 330.5 77t107.5 219z" />
    <glyph glyph-name="macron" unicode="&#xaf;" horiz-adv-x="1405" 
d="M1659 2005h-1453l20 115h1453z" />
    <glyph glyph-name="degree" unicode="&#xb0;" horiz-adv-x="1124" 
d="M1123 1553q0 -65 -19.5 -127t-54 -117t-82.5 -101t-104 -79.5t-118 -52t-126 -18.5q-77 0 -141.5 27t-111.5 74t-73.5 111t-26.5 139q0 65 19.5 126.5t54 116.5t81.5 100.5t102.5 78.5t117.5 51.5t125 18.5q78 0 144 -26.5t113 -73.5t73.5 -110.5t26.5 -137.5zM1004 1531
q0 53 -19 99.5t-53.5 81t-82 54t-104.5 19.5q-70 0 -135.5 -29t-116 -78t-81 -113.5t-30.5 -135.5q0 -54 19 -100.5t53.5 -81t81.5 -54t103 -19.5q70 0 135.5 29t116.5 78.5t82 114t31 135.5z" />
    <glyph glyph-name="plusminus" unicode="&#xb1;" horiz-adv-x="1495" 
d="M1311 881l-39 -230h-422l-71 -406h475l-43 -246h-1134l43 246h430l71 406h-422l39 230h422l74 422h229l-74 -422h422z" />
    <glyph glyph-name="twosuperior" unicode="&#xb2;" horiz-adv-x="858" 
d="M998 1607q-3 -59 -22 -103.5t-51.5 -79t-76.5 -62t-97 -52t-113 -49t-124 -53.5q-53 -24 -93.5 -53t-68 -56.5t-41.5 -51.5t-14 -38q0 -11 7.5 -14t26.5 -3h346q45 0 75.5 15t51 33t34.5 33t27 15q24 0 24 -37q0 -13 -3 -29q-20 -60 -36.5 -93t-34 -49.5t-38 -20
t-48.5 -3.5h-553q-74 0 -83 24v-1q-5 18 -5 33q0 6 0.5 12t1.5 13q13 73 51.5 136t99.5 117.5t143.5 101t184.5 87.5q52 21 98.5 43t81.5 48t55 57.5t20 72.5q0 57 -53.5 84.5t-156.5 27.5q-39 0 -74.5 -5.5t-62.5 -16t-43 -26.5t-16 -38v-12q0 -4 0.5 -10.5t0.5 -16.5
q0 -68 -89 -91q-105 0 -105 92q0 55 35.5 99.5t92.5 75.5t129 47.5t146 16.5q88 0 156.5 -15t116 -43t72.5 -69t25 -93z" />
    <glyph glyph-name="threesuperior" unicode="&#xb3;" horiz-adv-x="870" 
d="M941 1636q0 -51 -15 -86.5t-41 -61.5t-61.5 -45t-76.5 -36q25 -8 52 -22t49 -36.5t36.5 -54.5t14.5 -76q0 -90 -37.5 -158t-101 -114.5t-148.5 -70t-180 -23.5q-64 0 -125.5 13.5t-110 39t-78 63t-29.5 85.5q0 28 10.5 51.5t27.5 40t38 26t41 9.5t35 -7.5t25 -18
t15 -22.5t5 -21v-5q-4 -18 -7.5 -26.5t-6 -13.5t-4 -8.5t-1.5 -9.5q0 -18 13.5 -32t36 -23.5t51.5 -15t59 -5.5q60 0 112.5 13t90.5 40.5t60 69.5t22 99q0 41 -16.5 67.5t-42.5 43t-58 24.5t-63 11.5t-57.5 4t-41.5 2.5q-22 12 -22 37q0 21 3.5 36t15 24.5t33 13.5t58.5 4
q31 0 71.5 6t76.5 21.5t60.5 43t24.5 71.5q0 46 -40.5 77.5t-127.5 31.5q-46 0 -79.5 -5t-57.5 -16t-40 -27.5t-25 -38.5q-8 -18 -15 -28.5t-17.5 -16.5t-25.5 -8t-39 -3q-29 0 -47.5 16t-18.5 44q0 13 3.5 25t11.5 27q42 72 133.5 108.5t240.5 36.5q69 0 129.5 -11
t105.5 -34.5t70.5 -59.5t25.5 -86z" />
    <glyph glyph-name="acute" unicode="&#xb4;" horiz-adv-x="811" 
d="M749 1724q0 -8 -11.5 -25.5t-37.5 -47.5l-221 -258q-38 -54 -65 -54q-41 0 -50 41q0 17 5.5 36.5t7.5 29.5l86 229q8 25 14 40t14.5 22.5t22 9.5t37.5 2h22q8 0 17.5 0.5t23.5 1t34 2t48 4.5q48 0 53 -33z" />
    <glyph glyph-name="mu" unicode="&#xb5;" horiz-adv-x="1553" 
d="M1340 254q-12 -71 -41 -127.5t-70.5 -97t-94 -62t-112.5 -21.5q-39 0 -70 10t-52.5 33t-33 61t-11.5 94v26q0 7 0.5 13.5t1.5 13.5q-69 -68 -129.5 -115.5t-116.5 -77.5t-109 -44t-106 -14q-35 0 -62.5 5.5t-49.5 18.5t-40 34.5t-34 53.5l-9 -50q-11 -35 -14 -87.5
t-3 -115.5q0 -35 2 -75.5t2 -83.5q0 -50 -9 -95.5t-28.5 -80.5t-49.5 -56t-72 -21t-68 29.5t-26 81.5q0 16 3 34q2 10 11.5 38t23.5 64.5t29.5 77.5t29.5 77.5t24.5 64t13.5 37.5q17 69 31.5 125t22.5 101l185 1077h220l-123 -709q-13 -73 -19.5 -125.5t-6.5 -90.5
q0 -81 40.5 -124t106.5 -43q155 0 345 178l159 914h219l-154 -888q-8 -45 -13 -79.5t-4 -60.5q0 -42 15 -63t54 -21q42 0 75.5 42.5t59.5 123.5h57z" />
    <glyph glyph-name="paragraph" unicode="&#xb6;" horiz-adv-x="1274" 
d="M1468 1785h-183l-415 -2392h-100l415 2392h-255l-415 -2392h-100l249 1432q-149 0 -258.5 26.5t-181 77.5t-106 126.5t-34.5 173.5q0 111 27.5 200.5t76 160t116 121.5t147 84t168.5 49t182 16h680z" />
    <glyph glyph-name="periodcentered" unicode="&#xb7;" horiz-adv-x="702" 
d="M547 957q0 -35 -15 -67t-40.5 -57.5t-58 -40.5t-67.5 -15q-28 0 -51.5 9.5t-40 27t-26 40.5t-9.5 50q0 33 14.5 65.5t39 57.5t57.5 40.5t70 15.5q29 0 52.5 -10t40 -27t25.5 -40t9 -49z" />
    <glyph glyph-name="periodcentered" unicode="&#x2219;" horiz-adv-x="702" 
d="M547 957q0 -35 -15 -67t-40.5 -57.5t-58 -40.5t-67.5 -15q-28 0 -51.5 9.5t-40 27t-26 40.5t-9.5 50q0 33 14.5 65.5t39 57.5t57.5 40.5t70 15.5q29 0 52.5 -10t40 -27t25.5 -40t9 -49z" />
    <glyph glyph-name="cedilla" unicode="&#xb8;" horiz-adv-x="700" 
d="M396 -249q-1 -56 -28.5 -107.5t-74 -91t-108 -63t-131.5 -23.5q-43 0 -76 3t-51 5l11 61q14 -4 32 -5.5t33 -1.5q36 0 70.5 14.5t62 38t44 53.5t16.5 61q0 35 -24.5 60t-69.5 25l-35 -2l194 245h83l-88 -110q70 -16 105 -59t35 -103z" />
    <glyph glyph-name="onesuperior" unicode="&#xb9;" horiz-adv-x="870" 
d="M725 1783q0 -1 -0.5 -5.5t-4.5 -26t-11.5 -67t-22 -128t-36.5 -209.5t-54 -311q-1 -6 -1.5 -11.5t-0.5 -10.5q0 -24 10.5 -34t24.5 -10h29q56 0 56 -44q0 -42 -20 -56t-54 -14h-337q-23 0 -33.5 7t-10.5 31q0 38 16.5 57t43.5 19h32q10 0 20 2t18.5 8.5t15 19.5t10.5 36
l95 546q1 5 1.5 8t0.5 4v10q0 12 -5 16t-19 4h-72q-33 0 -43.5 5.5t-10.5 16.5q0 35 18 50t46 21.5t61 12t63 21.5q31 17 46 30.5t25.5 22.5t22 14t36.5 5q45 0 45 -40z" />
    <glyph glyph-name="ordmasculine" unicode="&#xba;" horiz-adv-x="925" 
d="M1019 1562q-1 -98 -42.5 -185.5t-110.5 -153t-158 -104t-185 -38.5q-72 0 -134 25.5t-107.5 70.5t-71.5 106.5t-26 134.5q0 61 19 120.5t52.5 113t79.5 99t100.5 78.5t115 51.5t122.5 18.5q72 0 135 -25t110 -70t74 -107t27 -135zM887 1571q0 53 -14.5 98t-43 77.5
t-72 51t-100.5 18.5q-78 0 -141 -35.5t-108 -93.5t-69 -132t-24 -151q0 -52 14 -96.5t42 -77t70 -51t99 -18.5q78 0 141.5 36.5t109.5 95t71 131.5t25 147z" />
    <glyph glyph-name="guillemotright" unicode="&#xbb;" horiz-adv-x="1405" 
d="M700 634l-653 -644h-81l447 644l-223 648h81zM1308 634l-644 -644h-76l446 644l-222 648h76z" />
    <glyph glyph-name="onequarter" unicode="&#xbc;" horiz-adv-x="2100" 
d="M1889 264q-2 -45 -16.5 -63.5t-49.5 -18.5h-114q-9 -48 -12 -67.5t-3 -26.5v-7q0 -23 9.5 -32.5t23.5 -9.5h29q57 0 57 -43q0 -24 -5.5 -38t-15.5 -21.5t-24 -9.5t-30 -2h-335q-22 0 -35 7.5t-13 30.5q0 38 18 57t45 19h30q11 0 21.5 1.5t19 8t15 20t10.5 36.5l13 77
h-433q-38 0 -54 10.5t-16 32.5q0 29 26 77t68 103.5t96 113.5t110 107q151 133 255.5 199.5t171.5 66.5h1q40 0 57 -5t17 -25q0 -2 -1.5 -15t-4 -28.5t-4 -28.5t-1.5 -15l-86 -477h112q24 0 36 -5.5t12 -28.5zM1899 1859l-1514 -1933h-168l1518 1933h164zM662 1783
q0 -1 -0.5 -5.5t-4.5 -26t-11.5 -67t-22 -128t-36.5 -209.5t-54 -311q-1 -6 -1.5 -11.5t-0.5 -10.5q0 -24 10.5 -34t24.5 -10h29q56 0 56 -44q0 -42 -20 -56t-54 -14h-337q-23 0 -33.5 7t-10.5 31q0 38 16.5 57t43.5 19h32q10 0 20 2t18.5 8.5t15 19.5t10.5 36l95 546
q1 5 1.5 8t0.5 4v10q0 12 -5 16t-19 4h-72q-33 0 -43.5 5.5t-10.5 16.5q0 35 18 50t46 21.5t61 12t63 21.5q31 17 46 30.5t25.5 22.5t22 14t36.5 5q45 0 45 -40zM1613 662v9q0 9 -1 19.5t-2 11.5q-20 -2 -76 -44.5t-150 -127.5q-35 -32 -66.5 -64.5t-56.5 -62.5t-42 -56
t-23 -44q15 -5 45 -5h306q21 120 34 191.5t20 109.5t9.5 49.5t2.5 13.5z" />
    <glyph glyph-name="onehalf" unicode="&#xbd;" horiz-adv-x="2100" 
d="M1987 674q-3 -59 -22 -103.5t-51.5 -79t-76.5 -62t-97 -52t-113 -49t-124 -53.5q-53 -24 -93.5 -53t-68 -56.5t-41.5 -51.5t-14 -38q0 -11 7.5 -14t26.5 -3h346q45 0 75.5 15t51 33t34.5 33t27 15q14 0 18.5 -12.5t4.5 -28.5q0 -7 -0.5 -13.5t-1.5 -11.5
q-20 -60 -36.5 -93t-34 -49.5t-38 -20t-48.5 -3.5h-553q-74 0 -83 24v-1q-5 18 -5 33q0 6 0.5 12t1.5 13q13 73 51.5 136t99.5 117.5t143.5 101t184.5 87.5q52 21 98.5 42.5t81 47t55 57.5t20.5 74q0 57 -53.5 84.5t-156.5 27.5q-39 0 -74.5 -5.5t-62.5 -16t-43 -26.5
t-16 -38v-12q0 -4 0.5 -10.5t0.5 -16.5q0 -68 -89 -91q-105 0 -105 92q0 55 35.5 99.5t92.5 75.5t129 47.5t146 16.5q88 0 156.5 -15t116 -43t72.5 -69t25 -93zM1871 1859l-1514 -1933h-168l1518 1933h164zM632 1783q0 -1 -0.5 -5.5t-4.5 -26t-11.5 -67t-22 -128
t-36.5 -209.5t-54 -311q-1 -6 -1.5 -11.5t-0.5 -10.5q0 -24 10.5 -34t24.5 -10h29q56 0 56 -44q0 -42 -20 -56t-54 -14h-337q-23 0 -33.5 7t-10.5 31q0 38 16.5 57t43.5 19h32q10 0 20 2t18.5 8.5t15 19.5t10.5 36l95 546q1 5 1.5 8t0.5 4v10q0 12 -5 16t-19 4h-72
q-33 0 -43.5 5.5t-10.5 16.5q0 35 18 50t46 21.5t61 12t63 21.5q31 17 46 30.5t25.5 22.5t22 14t36.5 5q45 0 45 -40z" />
    <glyph glyph-name="threequarters" unicode="&#xbe;" horiz-adv-x="2100" 
d="M1959 264q-2 -45 -16.5 -63.5t-49.5 -18.5h-114q-9 -48 -12 -67.5t-3 -26.5v-7q0 -23 9.5 -32.5t23.5 -9.5h29q57 0 57 -43q0 -24 -5.5 -38t-15.5 -21.5t-24 -9.5t-30 -2h-335q-22 0 -35 7.5t-13 30.5q0 38 18 57t45 19h30q11 0 21.5 1.5t19 8t15 20t10.5 36.5l13 77
h-433q-38 0 -54 10.5t-16 32.5q0 29 26 77t68 103.5t96 113.5t110 107q151 133 255.5 199.5t171.5 66.5h1q40 0 57 -5t17 -25q0 -2 -1.5 -15t-4 -28.5t-4 -28.5t-1.5 -15l-86 -477h112q24 0 36 -5.5t12 -28.5zM979 1636q0 -51 -15 -86.5t-41 -61.5t-61.5 -45t-76.5 -36
q25 -8 52 -22t49 -36.5t36.5 -54.5t14.5 -76q0 -90 -37.5 -158t-101 -114.5t-148.5 -70t-180 -23.5q-64 0 -125.5 13.5t-110 39t-78 63t-29.5 85.5q0 28 10.5 51.5t27.5 40t38 26t41 9.5t35 -7.5t25 -18t15 -22.5t5 -21v-5q-4 -18 -7.5 -26.5t-6 -13.5t-4 -8.5t-1.5 -9.5
q0 -18 13.5 -32t36 -23.5t51.5 -15t59 -5.5q60 0 112.5 13t90.5 40.5t60 69.5t22 99q0 41 -16.5 67.5t-42.5 43t-58 24.5t-63 11.5t-57.5 4t-41.5 2.5q-22 12 -22 37q0 21 3.5 36t15 24.5t33 13.5t58.5 4q31 0 71.5 6t76.5 21.5t60.5 43t24.5 71.5q0 46 -40.5 77.5
t-127.5 31.5q-46 0 -79.5 -5t-57.5 -16t-40 -27.5t-25 -38.5q-8 -18 -15 -28.5t-17.5 -16.5t-25.5 -8t-39 -3q-29 0 -47.5 16t-18.5 44q0 13 3.5 25t11.5 27q42 72 133.5 108.5t240.5 36.5q69 0 129.5 -11t105.5 -34.5t70.5 -59.5t25.5 -86zM1972 1859l-1514 -1933h-168
l1518 1933h164zM1683 662v9q0 9 -1 19.5t-2 11.5q-20 -2 -76 -44.5t-150 -127.5q-35 -32 -66.5 -64.5t-56.5 -62.5t-42 -56t-23 -44q15 -5 45 -5h306q21 120 34 191.5t20 109.5t9.5 49.5t2.5 13.5z" />
    <glyph glyph-name="questiondown" unicode="&#xbf;" horiz-adv-x="1593" 
d="M1239 -51q-9 -102 -67 -175.5t-150.5 -121.5t-211.5 -71t-249 -23q-101 0 -188.5 20t-152 58.5t-101.5 94.5t-37 129q0 78 26 142.5t69 117t98.5 93.5t115.5 71.5t119.5 51.5t109.5 33q32 8 60 111l61 229h151l-20 -282q-7 -38 -13 -57.5t-21.5 -32.5t-45.5 -23.5
t-85 -29.5q-62 -22 -128 -51.5t-120.5 -72.5t-89.5 -101t-35 -137q0 -194 257 -212q79 0 147 11t117.5 33t77.5 54.5t28 76.5q0 14 -5.5 25.5t-11.5 22.5t-11.5 24t-5.5 30q0 57 53 84.5t150 27.5q109 -24 109 -150zM1061 1066q-1 -45 -17 -86.5t-45.5 -73.5t-70.5 -51
t-92 -19q-40 0 -70 11.5t-50.5 32.5t-31 49.5t-10.5 61.5q0 43 16.5 84.5t47 73.5t72.5 52t93 20q39 0 68.5 -12.5t49.5 -33.5t30 -49.5t10 -59.5z" />
    <glyph glyph-name="Agrave" unicode="&#xc0;" horiz-adv-x="1827" 
d="M172 479l770 1258q116 172 156 172q45 0 110 -172q75 -184 138.5 -397.5t111 -431t78.5 -429.5l49 -274q14 -62 74 -94q29 -19 29 -54q-9 -57 -111 -57h-311q-86 0 -86 57q8 40 78.5 66t76.5 65q0 84 -61 414l-8 49h-828q-3 -6 -88.5 -176.5t-95.5 -224.5q0 -63 16.5 -88
t47 -52t30.5 -53q-9 -57 -160 -57h-147q-89 0 -122.5 9.5t-33.5 47.5q10 36 54 62q61 38 94 98zM1249 782l-20 62l-217 766l-508 -828h745zM864 2409q98 0 115 -12q11 -7 28 -62l86 -229q2 -10 7.5 -29.5t5.5 -36.5q-9 -41 -50 -41q-27 0 -65 54l-221 258q-49 60 -49 73
q5 33 53 33z" />
    <glyph glyph-name="Aacute" unicode="&#xc1;" horiz-adv-x="1827" 
d="M172 479l770 1258q116 172 156 172q45 0 110 -172q75 -184 138.5 -397.5t111 -431t78.5 -429.5l49 -274q14 -62 74 -94q29 -19 29 -54q-9 -57 -111 -57h-311q-86 0 -86 57q8 40 78.5 66t76.5 65q0 84 -61 414l-8 49h-828q-3 -6 -88.5 -176.5t-95.5 -224.5q0 -63 16.5 -88
t47 -52t30.5 -53q-9 -57 -160 -57h-147q-89 0 -122.5 9.5t-33.5 47.5q10 36 54 62q61 38 94 98zM1249 782l-20 62l-217 766l-508 -828h745zM1415 2384q0 -8 -11.5 -25.5t-37.5 -47.5l-221 -258q-38 -54 -65 -54q-41 0 -50 41q0 17 5.5 36.5t7.5 29.5l86 229q8 25 14 40
t14.5 22.5t22 9.5t37.5 2h22q8 0 17.5 0.5t23.5 1t34 2t48 4.5q48 0 53 -33z" />
    <glyph glyph-name="Acircumflex" unicode="&#xc2;" horiz-adv-x="1827" 
d="M172 479l770 1258q116 172 156 172q45 0 110 -172q75 -184 138.5 -397.5t111 -431t78.5 -429.5l49 -274q14 -62 74 -94q29 -19 29 -54q-9 -57 -111 -57h-311q-86 0 -86 57q8 40 78.5 66t76.5 65q0 84 -61 414l-8 49h-828q-3 -6 -88.5 -176.5t-95.5 -224.5q0 -63 16.5 -88
t47 -52t30.5 -53q-9 -57 -160 -57h-147q-89 0 -122.5 9.5t-33.5 47.5q10 36 54 62q61 38 94 98zM1249 782l-20 62l-217 766l-508 -828h745zM1423 1999h-69l-215 259l-306 -259h-67l312 419h178z" />
    <glyph glyph-name="Atilde" unicode="&#xc3;" horiz-adv-x="1827" 
d="M172 479l770 1258q116 172 156 172q45 0 110 -172q75 -184 138.5 -397.5t111 -431t78.5 -429.5l49 -274q14 -62 74 -94q29 -19 29 -54q-9 -57 -111 -57h-311q-86 0 -86 57q8 40 78.5 66t76.5 65q0 84 -61 414l-8 49h-828q-3 -6 -88.5 -176.5t-95.5 -224.5q0 -63 16.5 -88
t47 -52t30.5 -53q-9 -57 -160 -57h-147q-89 0 -122.5 9.5t-33.5 47.5q10 36 54 62q61 38 94 98zM1249 782l-20 62l-217 766l-508 -828h745zM1556 2316q-14 -79 -42.5 -138.5t-66.5 -99.5t-83 -60t-91 -20q-30 0 -59.5 9.5t-62 27.5t-70 43.5t-83.5 57.5q-29 20 -45 27t-39 7
q-21 0 -37.5 -4t-32 -20.5t-32 -50t-38.5 -92.5h-39q14 81 42 140.5t65.5 97.5t81.5 56.5t91 18.5q26 0 47 -3.5t45 -14t54.5 -30.5t76.5 -54q88 -66 139 -66q18 0 36 6.5t35.5 25t35.5 51t36 85.5h36z" />
    <glyph glyph-name="Adieresis" unicode="&#xc4;" horiz-adv-x="1827" 
d="M172 479l770 1258q116 172 156 172q45 0 110 -172q75 -184 138.5 -397.5t111 -431t78.5 -429.5l49 -274q14 -62 74 -94q29 -19 29 -54q-9 -57 -111 -57h-311q-86 0 -86 57q8 40 78.5 66t76.5 65q0 84 -61 414l-8 49h-828q-3 -6 -88.5 -176.5t-95.5 -224.5q0 -63 16.5 -88
t47 -52t30.5 -53q-9 -57 -160 -57h-147q-89 0 -122.5 9.5t-33.5 47.5q10 36 54 62q61 38 94 98zM1249 782l-20 62l-217 766l-508 -828h745zM1040 2159q0 -32 -14 -60.5t-37 -51t-52 -35.5t-58 -13q-52 0 -84 32t-32 81q0 32 13.5 61.5t36 52t51.5 35.5t61 13q25 0 46 -9
t36.5 -24.5t24 -36.5t8.5 -45zM1483 2160q0 -33 -13.5 -62t-36 -51t-51.5 -35t-60 -13q-25 0 -46 9t-36.5 24.5t-24.5 36.5t-9 45q0 31 14 59.5t37.5 51t53 36t59.5 13.5q23 0 43.5 -8.5t36 -23.5t24.5 -36t9 -46z" />
    <glyph glyph-name="Aring" unicode="&#xc5;" horiz-adv-x="1827" 
d="M172 479l770 1258q116 172 156 172q45 0 110 -172q75 -184 138.5 -397.5t111 -431t78.5 -429.5l49 -274q14 -62 74 -94q29 -19 29 -54q-9 -57 -111 -57h-311q-86 0 -86 57q8 40 78.5 66t76.5 65q0 84 -61 414l-8 49h-828q-3 -6 -88.5 -176.5t-95.5 -224.5q0 -63 16.5 -88
t47 -52t30.5 -53q-9 -57 -160 -57h-147q-89 0 -122.5 9.5t-33.5 47.5q10 36 54 62q61 38 94 98zM1249 782l-20 62l-217 766l-508 -828h745zM1351 2140q0 -53 -22.5 -100t-59.5 -82t-84.5 -56t-97.5 -21q-41 0 -75 14.5t-58 39t-37.5 58t-13.5 72.5q0 52 22 99t58.5 82.5
t83.5 56t97 20.5q41 0 75.5 -14t59 -38.5t38.5 -58t14 -72.5zM1244 2122q0 42 -28 68.5t-71 26.5q-26 0 -50.5 -11t-43.5 -29.5t-30 -43t-11 -51.5q0 -40 25 -67.5t70 -27.5q25 0 50 11t45 30t32 43.5t12 50.5z" />
    <glyph glyph-name="AE" unicode="&#xc6;" horiz-adv-x="2554" 
d="M2549 1748l-6 -167q-8 -41 -48 -41q-28 0 -41 21q-110 168 -262 168h-406q-47 0 -80.5 -10t-57.5 -33.5t-39 -62t-25 -95.5l-81 -463h487q114 0 182 53q36 33 62 33q31 0 31 -67q0 -37 -5.5 -77t-16.5 -73.5t-29 -55.5t-43 -22q-14 0 -28.5 12t-35.5 27t-51.5 27
t-75.5 12h-499l-86 -496q-8 -48 -13 -86.5t-5 -70.5q0 -41 9.5 -69.5t31.5 -46.5t58.5 -26t89.5 -8h381q156 0 331 139q12 10 26 21.5t28.5 21.5t27 16.5t21.5 6.5h3q34 0 34 -32q0 -8 -7.5 -33t-17 -53.5t-18 -54.5t-10.5 -36q-21 -47 -30.5 -72.5t-21 -37.5t-32.5 -14.5
t-65 -2.5h-1184q-82 0 -82 47q0 25 21.5 42.5t49 30.5t53.5 24t35 24q16 24 30 102l66 380h-690q-28 -43 -57.5 -86.5t-58 -85t-53.5 -80t-43 -70.5t-29 -54.5t-17 -37.5t-7.5 -24t-1.5 -15q0 -5 0.5 -7t0.5 -4q0 -20 13 -34.5t29 -27.5t29 -26t13 -29q0 -22 -12 -35.5
t-34.5 -21t-54.5 -10t-71 -2.5h-146q-36 0 -63.5 0.5t-45.5 4.5t-27.5 12.5t-9.5 23.5q0 24 16 43.5t40 40.5t52 46.5t53 62.5l1130 1506q22 25 43 47t45 38t53.5 25.5t68.5 9.5h1110q31 -9 50 -33.5t19 -69.5v-9zM1374 1632q0 28 -12 51t-33 23q-17 0 -42.5 -24.5
t-49.5 -56.5l-637 -844h628q33 192 56.5 329t40 231t26 150.5t15 87t7 41t1.5 12.5z" />
    <glyph glyph-name="Ccedilla" unicode="&#xc7;" horiz-adv-x="1827" 
d="M1864 1393q-19 -86 -82 -86q-20 0 -30.5 16.5t-17 40t-10.5 41.5q-50 175 -151 262q-127 102 -311 102q-306 0 -566 -266q-240 -234 -303 -569q-16 -83 -16 -193q0 -228 74 -368q138 -267 507 -267q159 0 291.5 60.5t282.5 185.5q5 4 29 26t42.5 33t38.5 11q50 0 50 -62
q-11 -53 -119.5 -139t-183.5 -127q-238 -131 -500 -131q-224 0 -404.5 92t-281.5 259.5t-101 381.5q0 43 17 164q46 270 220 509t429.5 383t529.5 144q250 0 463 -118q108 -69 119 -99q16 -32 16 -102zM1054 -249q-1 -56 -28.5 -107.5t-74 -91t-108 -63t-131.5 -23.5
q-43 0 -76 3t-51 5l11 61q14 -4 32 -5.5t33 -1.5q36 0 70.5 14.5t62 38t44 53.5t16.5 61q0 35 -24.5 60t-69.5 25l-35 -2l194 245h83l-88 -110q70 -16 105 -59t35 -103z" />
    <glyph glyph-name="Egrave" unicode="&#xc8;" horiz-adv-x="1524" 
d="M406 438q-17 -80 -17 -151q0 -83 40.5 -119.5t148.5 -36.5h380q93 0 166.5 34t165.5 105q2 1 28 23.5t43.5 32.5t31.5 10q37 0 37 -45q-4 -18 -28 -79.5t-30 -84.5q-27 -75 -37.5 -94.5t-31 -25t-78.5 -7.5h-1184q-82 0 -82 57q9 46 74 62q72 24 87.5 47.5t31.5 103.5
l233 1340q8 32 8 53q0 67 -65 78q-32 7 -45 18t-13 43q10 58 99 58h1126q70 -21 70 -123l-9 -156q-7 -41 -49 -41q-20 0 -41 21q-104 168 -262 168h-405q-97 0 -143 -46t-58 -155l-82 -463h488q113 0 180 53q39 33 65 33q33 0 33 -57q0 -31 -16 -127q-9 -54 -23 -82.5
t-59 -28.5q-21 0 -54 33q-28 32 -53.5 38.5t-85.5 6.5h-499zM959 2409q98 0 115 -12q11 -7 28 -62l86 -229q2 -10 7.5 -29.5t5.5 -36.5q-9 -41 -50 -41q-27 0 -65 54l-221 258q-49 60 -49 73q5 33 53 33z" />
    <glyph glyph-name="Eacute" unicode="&#xc9;" horiz-adv-x="1524" 
d="M406 438q-17 -80 -17 -151q0 -83 40.5 -119.5t148.5 -36.5h380q93 0 166.5 34t165.5 105q2 1 28 23.5t43.5 32.5t31.5 10q37 0 37 -45q-4 -18 -28 -79.5t-30 -84.5q-27 -75 -37.5 -94.5t-31 -25t-78.5 -7.5h-1184q-82 0 -82 57q9 46 74 62q72 24 87.5 47.5t31.5 103.5
l233 1340q8 32 8 53q0 67 -65 78q-32 7 -45 18t-13 43q10 58 99 58h1126q70 -21 70 -123l-9 -156q-7 -41 -49 -41q-20 0 -41 21q-104 168 -262 168h-405q-97 0 -143 -46t-58 -155l-82 -463h488q113 0 180 53q39 33 65 33q33 0 33 -57q0 -31 -16 -127q-9 -54 -23 -82.5
t-59 -28.5q-21 0 -54 33q-28 32 -53.5 38.5t-85.5 6.5h-499zM1233 2384q0 -8 -11.5 -25.5t-37.5 -47.5l-221 -258q-38 -54 -65 -54q-41 0 -50 41q0 17 5.5 36.5t7.5 29.5l86 229q8 25 14 40t14.5 22.5t22 9.5t37.5 2h22q8 0 17.5 0.5t23.5 1t34 2t48 4.5q48 0 53 -33z" />
    <glyph glyph-name="Ecircumflex" unicode="&#xca;" horiz-adv-x="1524" 
d="M406 438q-17 -80 -17 -151q0 -83 40.5 -119.5t148.5 -36.5h380q93 0 166.5 34t165.5 105q2 1 28 23.5t43.5 32.5t31.5 10q37 0 37 -45q-4 -18 -28 -79.5t-30 -84.5q-27 -75 -37.5 -94.5t-31 -25t-78.5 -7.5h-1184q-82 0 -82 57q9 46 74 62q72 24 87.5 47.5t31.5 103.5
l233 1340q8 32 8 53q0 67 -65 78q-32 7 -45 18t-13 43q10 58 99 58h1126q70 -21 70 -123l-9 -156q-7 -41 -49 -41q-20 0 -41 21q-104 168 -262 168h-405q-97 0 -143 -46t-58 -155l-82 -463h488q113 0 180 53q39 33 65 33q33 0 33 -57q0 -31 -16 -127q-9 -54 -23 -82.5
t-59 -28.5q-21 0 -54 33q-28 32 -53.5 38.5t-85.5 6.5h-499zM1317 1999h-69l-215 259l-306 -259h-67l312 419h178z" />
    <glyph glyph-name="Edieresis" unicode="&#xcb;" horiz-adv-x="1524" 
d="M406 438q-17 -80 -17 -151q0 -83 40.5 -119.5t148.5 -36.5h380q93 0 166.5 34t165.5 105q2 1 28 23.5t43.5 32.5t31.5 10q37 0 37 -45q-4 -18 -28 -79.5t-30 -84.5q-27 -75 -37.5 -94.5t-31 -25t-78.5 -7.5h-1184q-82 0 -82 57q9 46 74 62q72 24 87.5 47.5t31.5 103.5
l233 1340q8 32 8 53q0 67 -65 78q-32 7 -45 18t-13 43q10 58 99 58h1126q70 -21 70 -123l-9 -156q-7 -41 -49 -41q-20 0 -41 21q-104 168 -262 168h-405q-97 0 -143 -46t-58 -155l-82 -463h488q113 0 180 53q39 33 65 33q33 0 33 -57q0 -31 -16 -127q-9 -54 -23 -82.5
t-59 -28.5q-21 0 -54 33q-28 32 -53.5 38.5t-85.5 6.5h-499zM902 2159q0 -32 -14 -60.5t-37 -51t-52 -35.5t-58 -13q-52 0 -84 32t-32 81q0 32 13.5 61.5t36 52t51.5 35.5t61 13q25 0 46 -9t36.5 -24.5t24 -36.5t8.5 -45zM1345 2160q0 -33 -13.5 -62t-36 -51t-51.5 -35
t-60 -13q-25 0 -46 9t-36.5 24.5t-24.5 36.5t-9 45q0 31 14 59.5t37.5 51t53 36t59.5 13.5q23 0 43.5 -8.5t36 -23.5t24.5 -36t9 -46z" />
    <glyph glyph-name="Igrave" unicode="&#xcc;" horiz-adv-x="659" 
d="M389 1679q0 41 -70 58q-57 21 -57 65q8 58 98 58h353q82 0 82 -58q-8 -37 -74 -61q-70 -22 -83.5 -42t-35.5 -110l-246 -1409q0 -16 10 -26.5t27.5 -17.5l32.5 -13q57 -18 57 -66q-9 -57 -102 -57h-348q-86 0 -86 57q9 46 82 62q69 20 83 43t31 108zM476 2409
q98 0 115 -12q11 -7 28 -62l86 -229q2 -10 7.5 -29.5t5.5 -36.5q-9 -41 -50 -41q-27 0 -65 54l-221 258q-49 60 -49 73q5 33 53 33z" />
    <glyph glyph-name="Iacute" unicode="&#xcd;" horiz-adv-x="659" 
d="M389 1679q0 41 -70 58q-57 21 -57 65q8 58 98 58h353q82 0 82 -58q-8 -37 -74 -61q-70 -22 -83.5 -42t-35.5 -110l-246 -1409q0 -16 10 -26.5t27.5 -17.5l32.5 -13q57 -18 57 -66q-9 -57 -102 -57h-348q-86 0 -86 57q9 46 82 62q69 20 83 43t31 108zM789 2384
q0 -8 -11.5 -25.5t-37.5 -47.5l-221 -258q-38 -54 -65 -54q-41 0 -50 41q0 17 5.5 36.5t7.5 29.5l86 229q8 25 14 40t14.5 22.5t22 9.5t37.5 2h22q8 0 17.5 0.5t23.5 1t34 2t48 4.5q48 0 53 -33z" />
    <glyph glyph-name="Icircumflex" unicode="&#xce;" horiz-adv-x="659" 
d="M389 1679q0 41 -70 58q-57 21 -57 65q8 58 98 58h353q82 0 82 -58q-8 -37 -74 -61q-70 -22 -83.5 -42t-35.5 -110l-246 -1409q0 -16 10 -26.5t27.5 -17.5l32.5 -13q57 -18 57 -66q-9 -57 -102 -57h-348q-86 0 -86 57q9 46 82 62q69 20 83 43t31 108zM885 1999h-69
l-215 259l-306 -259h-67l312 419h178z" />
    <glyph glyph-name="Idieresis" unicode="&#xcf;" horiz-adv-x="659" 
d="M389 1679q0 41 -70 58q-57 21 -57 65q8 58 98 58h353q82 0 82 -58q-8 -37 -74 -61q-70 -22 -83.5 -42t-35.5 -110l-246 -1409q0 -16 10 -26.5t27.5 -17.5l32.5 -13q57 -18 57 -66q-9 -57 -102 -57h-348q-86 0 -86 57q9 46 82 62q69 20 83 43t31 108zM485 2159
q0 -32 -14 -60.5t-37 -51t-52 -35.5t-58 -13q-52 0 -84 32t-32 81q0 32 13.5 61.5t36 52t51.5 35.5t61 13q25 0 46 -9t36.5 -24.5t24 -36.5t8.5 -45zM928 2160q0 -33 -13.5 -62t-36 -51t-51.5 -35t-60 -13q-25 0 -46 9t-36.5 24.5t-24.5 36.5t-9 45q0 31 14 59.5t37.5 51
t53 36t59.5 13.5q23 0 43.5 -8.5t36 -23.5t24.5 -36t9 -46z" />
    <glyph glyph-name="Eth" unicode="&#xd0;" horiz-adv-x="1880" 
d="M1857 1125q0 -115 -24.5 -229t-70.5 -221t-112 -204t-149 -178t-182.5 -142t-211.5 -96q-174 -55 -403 -55h-659q-82 0 -82 47q0 25 21.5 42.5t49 30.5t53.5 24t35 24q16 24 30 102l112 644h-223l22 125h223l111 644q0 16 -20 28t-43.5 23.5t-43.5 25.5t-20 35
q0 33 27 49t70 16h524q129 0 232 -6t189 -25.5t160 -56t145 -97.5q120 -103 180 -239.5t60 -310.5zM1599 1116q0 135 -40.5 248t-126.5 194t-221.5 126t-324.5 45q-90 0 -142.5 -12t-82 -42t-44 -80.5t-27.5 -128.5l-74 -427h621l-22 -125h-621l-81 -468q-11 -63 -17 -109
t-6 -80q0 -44 12.5 -69.5t41 -38t76 -15.5t116.5 -3q141 0 267.5 33t233.5 94t192.5 148.5t145.5 197t92 239t32 273.5z" />
    <glyph glyph-name="Ntilde" unicode="&#xd1;" horiz-adv-x="1880" 
d="M1655 1548q2 17 9 66t7 61q0 42 -57 58q-48 21 -59 29t-11 40q10 58 78 58h311q66 0 66 -58q-6 -33 -74 -61q-80 -26 -90 -53q-11 -20 -29 -127l-258 -1463q-12 -70 -25 -102.5t-61 -32.5q-43 0 -53 74q-26 80 -64 162.5t-92.5 185t-93.5 180.5q-189 402 -303.5 622
t-273.5 431l-242 -1368q-8 -50 -8 -62q0 -46 57 -61q38 -7 54 -18.5t16 -51.5q-6 -57 -74 -57h-344q-57 0 -57 57q9 48 69 62q66 12 92 30.5t31 39.5t21 114l221 1245q2 17 7 49t5 45q0 90 -90 111q-37 10 -51.5 18.5t-14.5 38.5q11 50 82 50h291q44 0 181 -205.5
t237 -380.5l98 -172q113 -194 303 -623zM1595 2316q-14 -79 -42.5 -138.5t-66.5 -99.5t-83 -60t-91 -20q-30 0 -59.5 9.5t-62 27.5t-70 43.5t-83.5 57.5q-29 20 -45 27t-39 7q-21 0 -37.5 -4t-32 -20.5t-32 -50t-38.5 -92.5h-39q14 81 42 140.5t65.5 97.5t81.5 56.5t91 18.5
q26 0 47 -3.5t45 -14t54.5 -30.5t76.5 -54q88 -66 139 -66q18 0 36 6.5t35.5 25t35.5 51t36 85.5h36z" />
    <glyph glyph-name="Ograve" unicode="&#xd2;" horiz-adv-x="2032" 
d="M262 229q-151 199 -151 476q0 90 20 213q50 270 202 493.5t383.5 354t500.5 130.5q192 0 352 -71t262 -207q156 -190 156 -483q0 -85 -21 -213q-49 -269 -207.5 -489t-395.5 -345t-507 -125q-390 0 -594 266zM1450 365q197 214 254 544q20 117 20 221q0 211 -77 365
q-68 125 -186.5 195.5t-268.5 70.5q-155 0 -300 -79t-257 -216q-186 -219 -242 -544q-20 -117 -20 -205q0 -206 82 -357q126 -266 438 -266t557 271zM1090 2409q98 0 115 -12q11 -7 28 -62l86 -229q2 -10 7.5 -29.5t5.5 -36.5q-9 -41 -50 -41q-27 0 -65 54l-221 258
q-49 60 -49 73q5 33 53 33z" />
    <glyph glyph-name="Oacute" unicode="&#xd3;" horiz-adv-x="2032" 
d="M262 229q-151 199 -151 476q0 90 20 213q50 270 202 493.5t383.5 354t500.5 130.5q192 0 352 -71t262 -207q156 -190 156 -483q0 -85 -21 -213q-49 -269 -207.5 -489t-395.5 -345t-507 -125q-390 0 -594 266zM1450 365q197 214 254 544q20 117 20 221q0 211 -77 365
q-68 125 -186.5 195.5t-268.5 70.5q-155 0 -300 -79t-257 -216q-186 -219 -242 -544q-20 -117 -20 -205q0 -206 82 -357q126 -266 438 -266t557 271zM1479 2384q0 -8 -11.5 -25.5t-37.5 -47.5l-221 -258q-38 -54 -65 -54q-41 0 -50 41q0 17 5.5 36.5t7.5 29.5l86 229
q8 25 14 40t14.5 22.5t22 9.5t37.5 2h22q8 0 17.5 0.5t23.5 1t34 2t48 4.5q48 0 53 -33z" />
    <glyph glyph-name="Ocircumflex" unicode="&#xd4;" horiz-adv-x="2032" 
d="M262 229q-151 199 -151 476q0 90 20 213q50 270 202 493.5t383.5 354t500.5 130.5q192 0 352 -71t262 -207q156 -190 156 -483q0 -85 -21 -213q-49 -269 -207.5 -489t-395.5 -345t-507 -125q-390 0 -594 266zM1450 365q197 214 254 544q20 117 20 221q0 211 -77 365
q-68 125 -186.5 195.5t-268.5 70.5q-155 0 -300 -79t-257 -216q-186 -219 -242 -544q-20 -117 -20 -205q0 -206 82 -357q126 -266 438 -266t557 271zM1593 1999h-69l-215 259l-306 -259h-67l312 419h178z" />
    <glyph glyph-name="Otilde" unicode="&#xd5;" horiz-adv-x="2032" 
d="M262 229q-151 199 -151 476q0 90 20 213q50 270 202 493.5t383.5 354t500.5 130.5q192 0 352 -71t262 -207q156 -190 156 -483q0 -85 -21 -213q-49 -269 -207.5 -489t-395.5 -345t-507 -125q-390 0 -594 266zM1450 365q197 214 254 544q20 117 20 221q0 211 -77 365
q-68 125 -186.5 195.5t-268.5 70.5q-155 0 -300 -79t-257 -216q-186 -219 -242 -544q-20 -117 -20 -205q0 -206 82 -357q126 -266 438 -266t557 271zM1708 2316q-14 -79 -42.5 -138.5t-66.5 -99.5t-83 -60t-91 -20q-30 0 -59.5 9.5t-62 27.5t-70 43.5t-83.5 57.5
q-29 20 -45 27t-39 7q-21 0 -37.5 -4t-32 -20.5t-32 -50t-38.5 -92.5h-39q14 81 42 140.5t65.5 97.5t81.5 56.5t91 18.5q26 0 47 -3.5t45 -14t54.5 -30.5t76.5 -54q88 -66 139 -66q18 0 36 6.5t35.5 25t35.5 51t36 85.5h36z" />
    <glyph glyph-name="Odieresis" unicode="&#xd6;" horiz-adv-x="2032" 
d="M262 229q-151 199 -151 476q0 90 20 213q50 270 202 493.5t383.5 354t500.5 130.5q192 0 352 -71t262 -207q156 -190 156 -483q0 -85 -21 -213q-49 -269 -207.5 -489t-395.5 -345t-507 -125q-390 0 -594 266zM1450 365q197 214 254 544q20 117 20 221q0 211 -77 365
q-68 125 -186.5 195.5t-268.5 70.5q-155 0 -300 -79t-257 -216q-186 -219 -242 -544q-20 -117 -20 -205q0 -206 82 -357q126 -266 438 -266t557 271zM1210 2159q0 -32 -14 -60.5t-37 -51t-52 -35.5t-58 -13q-52 0 -84 32t-32 81q0 32 13.5 61.5t36 52t51.5 35.5t61 13
q25 0 46 -9t36.5 -24.5t24 -36.5t8.5 -45zM1653 2160q0 -33 -13.5 -62t-36 -51t-51.5 -35t-60 -13q-25 0 -46 9t-36.5 24.5t-24.5 36.5t-9 45q0 31 14 59.5t37.5 51t53 36t59.5 13.5q23 0 43.5 -8.5t36 -23.5t24.5 -36t9 -46z" />
    <glyph glyph-name="multiply" unicode="&#xd7;" horiz-adv-x="1495" 
d="M1238 372l-190 -162l-318 383l-449 -383l-134 162l450 383l-317 383l191 163l317 -383l449 383l134 -162l-449 -383z" />
    <glyph glyph-name="Oslash" unicode="&#xd8;" horiz-adv-x="2032" 
d="M1983 1119q0 -152 -39 -296.5t-110.5 -272.5t-172.5 -236t-225.5 -186t-270 -121.5t-304.5 -43.5q-165 0 -293 45.5t-222 130.5l-201 -203l-84 64l212 216q-157 195 -157 497q0 156 38 304.5t108.5 279.5t169.5 241.5t221 189.5t264 123.5t297 44.5q164 0 297 -48.5
t233 -139.5l223 226l81 -64l-233 -237q81 -100 124.5 -228t43.5 -286zM1725 1125q0 97 -17 184t-52 162l-1160 -1178q69 -97 168.5 -148t231.5 -51q129 0 241 43.5t204 118.5t163.5 175.5t120.5 215.5t74.5 237.5t25.5 240.5zM1603 1564q-66 92 -168.5 144.5t-244.5 52.5
q-107 0 -209 -38t-192.5 -107t-166.5 -165t-131 -211.5t-85.5 -247.5t-30.5 -273q0 -192 67 -332z" />
    <glyph glyph-name="Ugrave" unicode="&#xd9;" horiz-adv-x="1929" 
d="M459 819q-33 -175 -33 -287q0 -131 45 -221q55 -108 166 -160.5t227 -52.5q149 0 293.5 57.5t235.5 172.5q88 109 127.5 240t72.5 325l127 704q0 112 -86 144q-61 23 -61 65q9 44 82 54h336q61 -7 61 -58q-6 -31 -78 -61q-54 -21 -74 -46t-32 -89l-131 -738
q-33 -211 -89.5 -364.5t-181.5 -278.5q-262 -262 -680 -262q-140 0 -280.5 56.5t-218.5 168.5q-90 135 -90 332q0 95 32 291l148 844q0 58 -53 86q-31 10 -42.5 21t-11.5 40q10 58 99 58h336q81 0 81 -58q-7 -35 -77 -61q-64 -17 -81 -42t-30 -106zM1126 2409q98 0 115 -12
q11 -7 28 -62l86 -229q2 -10 7.5 -29.5t5.5 -36.5q-9 -41 -50 -41q-27 0 -65 54l-221 258q-49 60 -49 73q5 33 53 33z" />
    <glyph glyph-name="Uacute" unicode="&#xda;" horiz-adv-x="1929" 
d="M459 819q-33 -175 -33 -287q0 -131 45 -221q55 -108 166 -160.5t227 -52.5q149 0 293.5 57.5t235.5 172.5q88 109 127.5 240t72.5 325l127 704q0 112 -86 144q-61 23 -61 65q9 44 82 54h336q61 -7 61 -58q-6 -31 -78 -61q-54 -21 -74 -46t-32 -89l-131 -738
q-33 -211 -89.5 -364.5t-181.5 -278.5q-262 -262 -680 -262q-140 0 -280.5 56.5t-218.5 168.5q-90 135 -90 332q0 95 32 291l148 844q0 58 -53 86q-31 10 -42.5 21t-11.5 40q10 58 99 58h336q81 0 81 -58q-7 -35 -77 -61q-64 -17 -81 -42t-30 -106zM1424 2384
q0 -8 -11.5 -25.5t-37.5 -47.5l-221 -258q-38 -54 -65 -54q-41 0 -50 41q0 17 5.5 36.5t7.5 29.5l86 229q8 25 14 40t14.5 22.5t22 9.5t37.5 2h22q8 0 17.5 0.5t23.5 1t34 2t48 4.5q48 0 53 -33z" />
    <glyph glyph-name="Ucircumflex" unicode="&#xdb;" horiz-adv-x="1929" 
d="M459 819q-33 -175 -33 -287q0 -131 45 -221q55 -108 166 -160.5t227 -52.5q149 0 293.5 57.5t235.5 172.5q88 109 127.5 240t72.5 325l127 704q0 112 -86 144q-61 23 -61 65q9 44 82 54h336q61 -7 61 -58q-6 -31 -78 -61q-54 -21 -74 -46t-32 -89l-131 -738
q-33 -211 -89.5 -364.5t-181.5 -278.5q-262 -262 -680 -262q-140 0 -280.5 56.5t-218.5 168.5q-90 135 -90 332q0 95 32 291l148 844q0 58 -53 86q-31 10 -42.5 21t-11.5 40q10 58 99 58h336q81 0 81 -58q-7 -35 -77 -61q-64 -17 -81 -42t-30 -106zM1520 1999h-69l-215 259
l-306 -259h-67l312 419h178z" />
    <glyph glyph-name="Udieresis" unicode="&#xdc;" horiz-adv-x="1929" 
d="M459 819q-33 -175 -33 -287q0 -131 45 -221q55 -108 166 -160.5t227 -52.5q149 0 293.5 57.5t235.5 172.5q88 109 127.5 240t72.5 325l127 704q0 112 -86 144q-61 23 -61 65q9 44 82 54h336q61 -7 61 -58q-6 -31 -78 -61q-54 -21 -74 -46t-32 -89l-131 -738
q-33 -211 -89.5 -364.5t-181.5 -278.5q-262 -262 -680 -262q-140 0 -280.5 56.5t-218.5 168.5q-90 135 -90 332q0 95 32 291l148 844q0 58 -53 86q-31 10 -42.5 21t-11.5 40q10 58 99 58h336q81 0 81 -58q-7 -35 -77 -61q-64 -17 -81 -42t-30 -106zM1160 2159
q0 -32 -14 -60.5t-37 -51t-52 -35.5t-58 -13q-52 0 -84 32t-32 81q0 32 13.5 61.5t36 52t51.5 35.5t61 13q25 0 46 -9t36.5 -24.5t24 -36.5t8.5 -45zM1603 2160q0 -33 -13.5 -62t-36 -51t-51.5 -35t-60 -13q-25 0 -46 9t-36.5 24.5t-24.5 36.5t-9 45q0 31 14 59.5t37.5 51
t53 36t59.5 13.5q23 0 43.5 -8.5t36 -23.5t24.5 -36t9 -46z" />
    <glyph glyph-name="Yacute" unicode="&#xdd;" horiz-adv-x="1778" 
d="M1880 1860q90 0 90 -45q-4 -35 -53 -62q-44 -23 -63 -39t-52 -63q-118 -173 -360 -447q-177 -198 -430 -459l-99 -565q0 -38 70 -57q57 -18 57 -66q-9 -57 -98 -57h-348q-82 0 -82 57q9 46 74 62q71 24 84 44.5t30 106.5l82 484q-11 22 -128.5 238t-188.5 359.5
t-121 278.5q-21 76 -86 107q-61 30 -61 73q9 50 86 50h376q74 0 74 -54q-5 -27 -38.5 -43.5t-65 -31.5t-35.5 -43q0 -123 135 -349q47 -81 123 -226.5t115 -219.5q331 350 450 483q185 211 197 279q0 35 -15.5 56t-45.5 40.5t-40 29.5t-10 34q8 45 90 45h287zM1435 2384
q0 -8 -11.5 -25.5t-37.5 -47.5l-221 -258q-38 -54 -65 -54q-41 0 -50 41q0 17 5.5 36.5t7.5 29.5l86 229q8 25 14 40t14.5 22.5t22 9.5t37.5 2h22q8 0 17.5 0.5t23.5 1t34 2t48 4.5q48 0 53 -33z" />
    <glyph glyph-name="Thorn" unicode="&#xde;" horiz-adv-x="1573" 
d="M1586 1092q0 -106 -39.5 -199t-106 -172t-155.5 -142.5t-188 -109.5q-136 -63 -305.5 -94.5t-386.5 -32.5h-19l-28 -162q0 -2 -0.5 -3t-0.5 -3q0 -20 20.5 -31t45.5 -20t45.5 -21.5t20.5 -35.5q0 -66 -104 -66h-348q-87 0 -87 48q0 25 22 41t50.5 27.5t55 22t36.5 25.5
q16 25 30 106l245 1409q1 1 1 9q0 16 -10.5 22.5t-28 11.5t-39.5 13t-46 27q-8 8 -8 26q0 72 101 72h352q81 0 81 -47q0 -24 -21 -40.5t-47.5 -29.5t-52 -23.5t-34.5 -23.5q-5 -11 -16 -37.5t-19 -69.5l-17 -100h369q160 0 279 -27t197.5 -78t117 -125t38.5 -167zM1322 1043
q0 69 -28 126.5t-85 99.5t-144.5 65.5t-206.5 23.5q-81 0 -138.5 -6t-96 -26.5t-61 -59.5t-33.5 -105l-119 -688q88 0 190 12.5t203.5 40t195 71.5t165.5 107t115 147.5t43 191.5z" />
    <glyph glyph-name="germandbls" unicode="&#xdf;" horiz-adv-x="1354" 
d="M1310 1545q0 -75 -17 -141.5t-55 -123.5t-100.5 -104t-153.5 -82q139 -42 212 -137t73 -254q0 -88 -19 -175.5t-54.5 -167.5t-86 -149.5t-112.5 -120.5t-135 -80t-153 -29q-50 0 -91 14.5t-70 39t-45 58t-16 72.5t11.5 67t30 46.5t41.5 27t47 8.5q45 0 69 -24.5t24 -60.5
q0 -22 -5 -42t-11.5 -36t-11.5 -26.5t-5 -13.5q0 -22 17.5 -38.5t47.5 -16.5q58 0 109 40t89.5 114t61 178.5t22.5 233.5q0 93 -18.5 169t-56.5 129.5t-95.5 82.5t-135.5 29l13 77q72 0 129 20t100.5 63t73 111.5t46.5 165.5q5 30 7.5 57.5t2.5 52.5q0 120 -54 174.5
t-151 54.5q-53 0 -100.5 -17.5t-88.5 -64.5t-74 -130t-56 -215l-240 -1382h-398l9 49q55 0 91.5 10.5t60.5 38.5t39 77t29 127l171 988q28 165 81 280.5t127 188t168 105.5t206 33q94 0 168.5 -25.5t126 -72t78.5 -111t27 -142.5z" />
    <glyph glyph-name="agrave" unicode="&#xe0;" horiz-adv-x="1270" 
d="M1020 311q-3 -16 -6.5 -37t-6.5 -41.5t-3 -39.5q0 -17 8 -41.5t57 -40.5q41 -15 41 -54q-8 -57 -106 -57h-115q-82 0 -82 53q0 7 2.5 23t5.5 32t4 27l12 66q-191 -238 -466 -238q-164 0 -266.5 87.5t-102.5 273.5q39 217 278 360q209 115 484 115l155 -8
q0 148 -83.5 227.5t-215.5 79.5q-112 0 -241 -70q-17 -9 -40.5 -22.5t-40.5 -20t-38 -6.5q-61 0 -61 65q10 63 122 107q153 70 324 70q227 0 356 -123q105 -105 111 -262q0 -53 -12 -115zM782 684q-122 0 -246.5 -34t-218.5 -113t-116 -201q0 -119 41 -160q74 -74 168 -74
q174 0 303 99q115 86 143 270l37 209zM511 1749q98 0 115 -12q11 -7 28 -62l86 -229q2 -10 7.5 -29.5t5.5 -36.5q-9 -41 -50 -41q-27 0 -65 54l-221 258q-49 60 -49 73q5 33 53 33z" />
    <glyph glyph-name="aacute" unicode="&#xe1;" horiz-adv-x="1270" 
d="M1020 311q-3 -16 -6.5 -37t-6.5 -41.5t-3 -39.5q0 -17 8 -41.5t57 -40.5q41 -15 41 -54q-8 -57 -106 -57h-115q-82 0 -82 53q0 7 2.5 23t5.5 32t4 27l12 66q-191 -238 -466 -238q-164 0 -266.5 87.5t-102.5 273.5q39 217 278 360q209 115 484 115l155 -8
q0 148 -83.5 227.5t-215.5 79.5q-112 0 -241 -70q-17 -9 -40.5 -22.5t-40.5 -20t-38 -6.5q-61 0 -61 65q10 63 122 107q153 70 324 70q227 0 356 -123q105 -105 111 -262q0 -53 -12 -115zM782 684q-122 0 -246.5 -34t-218.5 -113t-116 -201q0 -119 41 -160q74 -74 168 -74
q174 0 303 99q115 86 143 270l37 209zM1014 1724q0 -8 -11.5 -25.5t-37.5 -47.5l-221 -258q-38 -54 -65 -54q-41 0 -50 41q0 17 5.5 36.5t7.5 29.5l86 229q8 25 14 40t14.5 22.5t22 9.5t37.5 2h22q8 0 17.5 0.5t23.5 1t34 2t48 4.5q48 0 53 -33z" />
    <glyph glyph-name="acircumflex" unicode="&#xe2;" horiz-adv-x="1270" 
d="M1020 311q-3 -16 -6.5 -37t-6.5 -41.5t-3 -39.5q0 -17 8 -41.5t57 -40.5q41 -15 41 -54q-8 -57 -106 -57h-115q-82 0 -82 53q0 7 2.5 23t5.5 32t4 27l12 66q-191 -238 -466 -238q-164 0 -266.5 87.5t-102.5 273.5q39 217 278 360q209 115 484 115l155 -8
q0 148 -83.5 227.5t-215.5 79.5q-112 0 -241 -70q-17 -9 -40.5 -22.5t-40.5 -20t-38 -6.5q-61 0 -61 65q10 63 122 107q153 70 324 70q227 0 356 -123q105 -105 111 -262q0 -53 -12 -115zM782 684q-122 0 -246.5 -34t-218.5 -113t-116 -201q0 -119 41 -160q74 -74 168 -74
q174 0 303 99q115 86 143 270l37 209zM1029 1339h-69l-215 259l-306 -259h-67l312 419h178z" />
    <glyph glyph-name="atilde" unicode="&#xe3;" horiz-adv-x="1270" 
d="M1020 311q-3 -16 -6.5 -37t-6.5 -41.5t-3 -39.5q0 -17 8 -41.5t57 -40.5q41 -15 41 -54q-8 -57 -106 -57h-115q-82 0 -82 53q0 7 2.5 23t5.5 32t4 27l12 66q-191 -238 -466 -238q-164 0 -266.5 87.5t-102.5 273.5q39 217 278 360q209 115 484 115l155 -8
q0 148 -83.5 227.5t-215.5 79.5q-112 0 -241 -70q-17 -9 -40.5 -22.5t-40.5 -20t-38 -6.5q-61 0 -61 65q10 63 122 107q153 70 324 70q227 0 356 -123q105 -105 111 -262q0 -53 -12 -115zM782 684q-122 0 -246.5 -34t-218.5 -113t-116 -201q0 -119 41 -160q74 -74 168 -74
q174 0 303 99q115 86 143 270l37 209zM1160 1656q-14 -79 -42.5 -138.5t-66.5 -99.5t-83 -60t-91 -20q-30 0 -59.5 9.5t-62 27.5t-70 43.5t-83.5 57.5q-29 20 -45 27t-39 7q-21 0 -37.5 -4t-32 -20.5t-32 -50t-38.5 -92.5h-39q14 81 42 140.5t65.5 97.5t81.5 56.5t91 18.5
q26 0 47 -3.5t45 -14t54.5 -30.5t76.5 -54q88 -66 139 -66q18 0 36 6.5t35.5 25t35.5 51t36 85.5h36z" />
    <glyph glyph-name="adieresis" unicode="&#xe4;" horiz-adv-x="1270" 
d="M1020 311q-3 -16 -6.5 -37t-6.5 -41.5t-3 -39.5q0 -17 8 -41.5t57 -40.5q41 -15 41 -54q-8 -57 -106 -57h-115q-82 0 -82 53q0 7 2.5 23t5.5 32t4 27l12 66q-191 -238 -466 -238q-164 0 -266.5 87.5t-102.5 273.5q39 217 278 360q209 115 484 115l155 -8
q0 148 -83.5 227.5t-215.5 79.5q-112 0 -241 -70q-17 -9 -40.5 -22.5t-40.5 -20t-38 -6.5q-61 0 -61 65q10 63 122 107q153 70 324 70q227 0 356 -123q105 -105 111 -262q0 -53 -12 -115zM782 684q-122 0 -246.5 -34t-218.5 -113t-116 -201q0 -119 41 -160q74 -74 168 -74
q174 0 303 99q115 86 143 270l37 209zM678 1499q0 -32 -14 -60.5t-37 -51t-52 -35.5t-58 -13q-52 0 -84 32t-32 81q0 32 13.5 61.5t36 52t51.5 35.5t61 13q25 0 46 -9t36.5 -24.5t24 -36.5t8.5 -45zM1121 1500q0 -33 -13.5 -62t-36 -51t-51.5 -35t-60 -13q-25 0 -46 9
t-36.5 24.5t-24.5 36.5t-9 45q0 31 14 59.5t37.5 51t53 36t59.5 13.5q23 0 43.5 -8.5t36 -23.5t24.5 -36t9 -46z" />
    <glyph glyph-name="aring" unicode="&#xe5;" horiz-adv-x="1270" 
d="M1020 311q-3 -16 -6.5 -37t-6.5 -41.5t-3 -39.5q0 -17 8 -41.5t57 -40.5q41 -15 41 -54q-8 -57 -106 -57h-115q-82 0 -82 53q0 7 2.5 23t5.5 32t4 27l12 66q-191 -238 -466 -238q-164 0 -266.5 87.5t-102.5 273.5q39 217 278 360q209 115 484 115l155 -8
q0 148 -83.5 227.5t-215.5 79.5q-112 0 -241 -70q-17 -9 -40.5 -22.5t-40.5 -20t-38 -6.5q-61 0 -61 65q10 63 122 107q153 70 324 70q227 0 356 -123q105 -105 111 -262q0 -53 -12 -115zM782 684q-122 0 -246.5 -34t-218.5 -113t-116 -201q0 -119 41 -160q74 -74 168 -74
q174 0 303 99q115 86 143 270l37 209zM974 1598q0 -53 -22.5 -100t-59.5 -82t-84.5 -56t-97.5 -21q-41 0 -75 14.5t-58 39t-37.5 58t-13.5 72.5q0 52 22 99t58.5 82.5t83.5 56t97 20.5q41 0 75.5 -14t59 -38.5t38.5 -58t14 -72.5zM867 1580q0 42 -28 68.5t-71 26.5
q-26 0 -50.5 -11t-43.5 -29.5t-30 -43t-11 -51.5q0 -40 25 -67.5t70 -27.5q25 0 50 11t45 30t32 43.5t12 50.5z" />
    <glyph glyph-name="ae" unicode="&#xe6;" horiz-adv-x="2088" 
d="M2028 940q-8 -139 -101.5 -234.5t-269.5 -156.5q-38 -12 -90 -26.5t-118.5 -29t-148 -27t-177.5 -20.5l-50 -4q1 -77 29 -139t76.5 -106t114.5 -67.5t144 -23.5q63 0 114 11.5t95.5 31.5t84 47t79.5 59q77 64 102 64q38 0 38 -33q0 -45 -49 -96.5t-146 -111.5
q-184 -115 -384 -115q-86 0 -161.5 21t-137 60t-107 94t-70.5 124q-62 -89 -128.5 -147t-134 -91.5t-134 -47t-128.5 -13.5q-79 0 -148 19.5t-120 57t-80.5 93t-29.5 127.5q0 112 59 210t162 171t243.5 115t303.5 43l155 -8q1 9 1.5 18t0.5 17q0 61 -23.5 111.5t-64 86
t-95.5 55t-118 19.5q-57 0 -116.5 -17.5t-125.5 -52.5q-49 -26 -78 -37.5t-40 -11.5q-65 0 -65 49q0 39 43 74.5t109 61.5t144.5 41.5t150.5 15.5q81 0 153 -17t130.5 -50t101 -82.5t63.5 -115.5q55 59 121 108t139.5 84t153.5 54t163 19q85 0 152.5 -22.5t115 -61
t72.5 -89.5t25 -108zM896 680q-35 0 -59 0.5t-40 0.5t-25.5 0.5t-15.5 0.5h-12q-58 0 -120.5 -10.5t-122.5 -32t-114.5 -53.5t-96 -75.5t-65.5 -97.5t-24 -119q0 -50 20 -86t51 -59.5t69 -35t73 -11.5q77 0 150 20t133 64.5t102.5 114.5t59.5 170zM1824 941q0 77 -53.5 115
t-142.5 38q-111 0 -204 -42.5t-164 -116t-118 -172t-66 -210.5h9q178 15 316 45.5t232 78t142.5 113t48.5 151.5z" />
    <glyph glyph-name="ccedilla" unicode="&#xe7;" horiz-adv-x="1167" 
d="M709 1094q-172 0 -295 -168q-123 -147 -160 -369q-8 -66 -8 -94q0 -151 83 -251.5t236 -100.5q201 0 340 139q59 57 90 57q33 0 33 -45q-9 -62 -123 -151q-185 -148 -401 -148q-224 0 -345.5 129.5t-121.5 341.5q0 63 12 131q32 177 137 327.5t262.5 239.5t337.5 89
q151 0 263 -86q73 -59 73 -156q-6 -35 -37.5 -66.5t-64.5 -31.5q-40 0 -52.5 12.5t-45.5 64.5q-46 74 -87.5 105t-125.5 31zM638 -249q-1 -56 -28.5 -107.5t-74 -91t-108 -63t-131.5 -23.5q-43 0 -76 3t-51 5l11 61q14 -4 32 -5.5t33 -1.5q36 0 70.5 14.5t62 38t44 53.5
t16.5 61q0 35 -24.5 60t-69.5 25l-35 -2l194 245h83l-88 -110q70 -16 105 -59t35 -103z" />
    <glyph glyph-name="egrave" unicode="&#xe8;" horiz-adv-x="1270" 
d="M242 442q0 -152 103.5 -244t260.5 -92q125 0 211 43.5t162.5 106.5t101.5 63q37 0 37 -45q-15 -86 -196 -196q-185 -115 -385 -115q-145 0 -260.5 59t-179.5 166t-64 246q0 33 8 107q33 183 150 339.5t288.5 248.5t356.5 92q152 0 245 -70q115 -74 115 -254
q-42 -234 -369 -348q-152 -58 -536 -103zM254 553q266 20 486 92.5t251 255.5q0 193 -192 193q-222 0 -367.5 -156t-185.5 -385h8zM648 1749q98 0 115 -12q11 -7 28 -62l86 -229q2 -10 7.5 -29.5t5.5 -36.5q-9 -41 -50 -41q-27 0 -65 54l-221 258q-49 60 -49 73q5 33 53 33z
" />
    <glyph glyph-name="eacute" unicode="&#xe9;" horiz-adv-x="1270" 
d="M242 442q0 -152 103.5 -244t260.5 -92q125 0 211 43.5t162.5 106.5t101.5 63q37 0 37 -45q-15 -86 -196 -196q-185 -115 -385 -115q-145 0 -260.5 59t-179.5 166t-64 246q0 33 8 107q33 183 150 339.5t288.5 248.5t356.5 92q152 0 245 -70q115 -74 115 -254
q-42 -234 -369 -348q-152 -58 -536 -103zM254 553q266 20 486 92.5t251 255.5q0 193 -192 193q-222 0 -367.5 -156t-185.5 -385h8zM1057 1724q0 -8 -11.5 -25.5t-37.5 -47.5l-221 -258q-38 -54 -65 -54q-41 0 -50 41q0 17 5.5 36.5t7.5 29.5l86 229q8 25 14 40t14.5 22.5
t22 9.5t37.5 2h22q8 0 17.5 0.5t23.5 1t34 2t48 4.5q48 0 53 -33z" />
    <glyph glyph-name="ecircumflex" unicode="&#xea;" horiz-adv-x="1270" 
d="M242 442q0 -152 103.5 -244t260.5 -92q125 0 211 43.5t162.5 106.5t101.5 63q37 0 37 -45q-15 -86 -196 -196q-185 -115 -385 -115q-145 0 -260.5 59t-179.5 166t-64 246q0 33 8 107q33 183 150 339.5t288.5 248.5t356.5 92q152 0 245 -70q115 -74 115 -254
q-42 -234 -369 -348q-152 -58 -536 -103zM254 553q266 20 486 92.5t251 255.5q0 193 -192 193q-222 0 -367.5 -156t-185.5 -385h8zM1147 1339h-69l-215 259l-306 -259h-67l312 419h178z" />
    <glyph glyph-name="edieresis" unicode="&#xeb;" horiz-adv-x="1270" 
d="M242 442q0 -152 103.5 -244t260.5 -92q125 0 211 43.5t162.5 106.5t101.5 63q37 0 37 -45q-15 -86 -196 -196q-185 -115 -385 -115q-145 0 -260.5 59t-179.5 166t-64 246q0 33 8 107q33 183 150 339.5t288.5 248.5t356.5 92q152 0 245 -70q115 -74 115 -254
q-42 -234 -369 -348q-152 -58 -536 -103zM254 553q266 20 486 92.5t251 255.5q0 193 -192 193q-222 0 -367.5 -156t-185.5 -385h8zM784 1499q0 -32 -14 -60.5t-37 -51t-52 -35.5t-58 -13q-52 0 -84 32t-32 81q0 32 13.5 61.5t36 52t51.5 35.5t61 13q25 0 46 -9t36.5 -24.5
t24 -36.5t8.5 -45zM1227 1500q0 -33 -13.5 -62t-36 -51t-51.5 -35t-60 -13q-25 0 -46 9t-36.5 24.5t-24.5 36.5t-9 45q0 31 14 59.5t37.5 51t53 36t59.5 13.5q23 0 43.5 -8.5t36 -23.5t24.5 -36t9 -46z" />
    <glyph glyph-name="igrave" unicode="&#xec;" horiz-adv-x="610" 
d="M479 1102q0 -27 -10.5 -97.5t-30.5 -185.5l-90 -508q-8 -48 -9 -87.5t-3 -71.5q1 -11 16 -19.5t32 -18t31.5 -23t14.5 -34.5q-9 -57 -90 -57h-287q-78 0 -78 57q6 21 24 33.5t40 22.5t42.5 20.5t31.5 26.5q11 17 21.5 45.5t17.5 68.5l94 537q1 10 3 27l4 34q2 17 3.5 31
t1.5 19q0 69 -82 90q-49 16 -49 49q0 13 10.5 24.5t34 24t61 28t91.5 38.5q45 19 69 31t35 14h2q16 0 25.5 -5t14.5 -18.5t7 -36.5t2 -59zM257 1749q98 0 115 -12q11 -7 28 -62l86 -229q2 -10 7.5 -29.5t5.5 -36.5q-9 -41 -50 -41q-27 0 -65 54l-221 258q-49 60 -49 73
q5 33 53 33z" />
    <glyph glyph-name="iacute" unicode="&#xed;" horiz-adv-x="610" 
d="M479 1102q0 -27 -10.5 -97.5t-30.5 -185.5l-90 -508q-8 -48 -9 -87.5t-3 -71.5q1 -11 16 -19.5t32 -18t31.5 -23t14.5 -34.5q-9 -57 -90 -57h-287q-78 0 -78 57q6 21 24 33.5t40 22.5t42.5 20.5t31.5 26.5q11 17 21.5 45.5t17.5 68.5l94 537q1 10 3 27l4 34q2 17 3.5 31
t1.5 19q0 69 -82 90q-49 16 -49 49q0 13 10.5 24.5t34 24t61 28t91.5 38.5q45 19 69 31t35 14h2q16 0 25.5 -5t14.5 -18.5t7 -36.5t2 -59zM541 1724q0 -8 -11.5 -25.5t-37.5 -47.5l-221 -258q-38 -54 -65 -54q-41 0 -50 41q0 17 5.5 36.5t7.5 29.5l86 229q8 25 14 40
t14.5 22.5t22 9.5t37.5 2h22q8 0 17.5 0.5t23.5 1t34 2t48 4.5q48 0 53 -33z" />
    <glyph glyph-name="icircumflex" unicode="&#xee;" horiz-adv-x="610" 
d="M479 1102q0 -27 -10.5 -97.5t-30.5 -185.5l-90 -508q-8 -48 -9 -87.5t-3 -71.5q1 -11 16 -19.5t32 -18t31.5 -23t14.5 -34.5q-9 -57 -90 -57h-287q-78 0 -78 57q6 21 24 33.5t40 22.5t42.5 20.5t31.5 26.5q11 17 21.5 45.5t17.5 68.5l94 537q1 10 3 27l4 34q2 17 3.5 31
t1.5 19q0 69 -82 90q-49 16 -49 49q0 13 10.5 24.5t34 24t61 28t91.5 38.5q45 19 69 31t35 14h2q16 0 25.5 -5t14.5 -18.5t7 -36.5t2 -59zM680 1339h-69l-215 259l-306 -259h-67l312 419h178z" />
    <glyph glyph-name="idieresis" unicode="&#xef;" horiz-adv-x="610" 
d="M479 1102q0 -27 -10.5 -97.5t-30.5 -185.5l-90 -508q-8 -48 -9 -87.5t-3 -71.5q1 -11 16 -19.5t32 -18t31.5 -23t14.5 -34.5q-9 -57 -90 -57h-287q-78 0 -78 57q6 21 24 33.5t40 22.5t42.5 20.5t31.5 26.5q11 17 21.5 45.5t17.5 68.5l94 537q1 10 3 27l4 34q2 17 3.5 31
t1.5 19q0 69 -82 90q-49 16 -49 49q0 13 10.5 24.5t34 24t61 28t91.5 38.5q45 19 69 31t35 14h2q16 0 25.5 -5t14.5 -18.5t7 -36.5t2 -59zM332 1499q0 -32 -14 -60.5t-37 -51t-52 -35.5t-58 -13q-52 0 -84 32t-32 81q0 32 13.5 61.5t36 52t51.5 35.5t61 13q25 0 46 -9
t36.5 -24.5t24 -36.5t8.5 -45zM775 1500q0 -33 -13.5 -62t-36 -51t-51.5 -35t-60 -13q-25 0 -46 9t-36.5 24.5t-24.5 36.5t-9 45q0 31 14 59.5t37.5 51t53 36t59.5 13.5q23 0 43.5 -8.5t36 -23.5t24.5 -36t9 -46z" />
    <glyph glyph-name="eth" unicode="&#xf0;" horiz-adv-x="1405" 
d="M1291 1854l-345 -179q91 -94 159 -197.5t113.5 -212t68 -220t22.5 -220.5t-25 -215t-71 -202t-113 -177.5t-150 -141t-182 -93t-210 -33.5q-107 0 -196.5 38t-154.5 106.5t-101.5 163.5t-36.5 209q0 91 25 185.5t70.5 183.5t109.5 168t142 138t168 93t188 34
q33 0 58.5 -2t49.5 -10t50 -24t61 -45q-35 115 -81.5 215t-106.5 188l-371 -185l-28 75l351 181q-37 43 -62 72t-43 48.5t-31.5 32t-25.5 22.5t-26 19t-34 22l48 60q78 -45 156.5 -99.5t144.5 -114.5l376 191q8 -19 16.5 -37t16.5 -37zM1039 751q0 103 -19.5 186t-57 141
t-92 89.5t-124.5 31.5q-64 0 -125 -26.5t-113.5 -84.5t-93 -151t-63.5 -226q-9 -51 -13 -97.5t-4 -91.5q0 -101 20.5 -186.5t60 -147t96.5 -96t130 -34.5q62 0 115.5 28t97.5 77t78.5 115.5t58 143.5t36 161t12.5 168z" />
    <glyph glyph-name="ntilde" unicode="&#xf1;" horiz-adv-x="1421" 
d="M1147 184q0 -23 10.5 -37.5t28 -22.5t26.5 -13q33 -20 33 -54q-3 -23 -24 -40t-45 -17h-279q-55 0 -72.5 9t-17.5 48q10 35 57 54l22.5 7.5t29 12t23.5 20.5t15 33l115 656q0 123 -54 180t-196 57q-159 0 -299 -106q-95 -77 -123 -238l-98 -549q0 -51 70 -73
q37 -14 37 -54q-9 -57 -74 -57h-283q-54 0 -74 9.5t-20 47.5q9 33 61 54q15 5 34.5 11t37.5 20.5t23 41.5l114 656q2 16 7.5 42.5t5.5 43.5q0 63 -62 86q-49 20 -49 49q3 31 74 82q120 78 147 78q62 0 70 -140q0 -17 -2 -45t-2 -37q214 222 491 222q215 0 307 -127
q50 -68 50 -185q0 -34 -21 -184zM1237 1656q-14 -79 -42.5 -138.5t-66.5 -99.5t-83 -60t-91 -20q-30 0 -59.5 9.5t-62 27.5t-70 43.5t-83.5 57.5q-29 20 -45 27t-39 7q-21 0 -37.5 -4t-32 -20.5t-32 -50t-38.5 -92.5h-39q14 81 42 140.5t65.5 97.5t81.5 56.5t91 18.5
q26 0 47 -3.5t45 -14t54.5 -30.5t76.5 -54q88 -66 139 -66q18 0 36 6.5t35.5 25t35.5 51t36 85.5h36z" />
    <glyph glyph-name="ograve" unicode="&#xf2;" horiz-adv-x="1421" 
d="M1327 598q-32 -176 -143.5 -322t-273.5 -229.5t-341 -83.5q-151 0 -269.5 68t-184.5 186.5t-66 265.5q0 33 8 107q31 169 144.5 314t276.5 231t329 86q151 0 272 -67.5t188.5 -185.5t67.5 -263q0 -70 -8 -107zM954 250q134 144 168 352q8 37 8 115q0 167 -89.5 272
t-262.5 105q-208 0 -343 -150.5t-173 -365.5q-12 -61 -12 -115q0 -166 88.5 -271.5t259.5 -105.5q200 0 356 164zM661 1749q98 0 115 -12q11 -7 28 -62l86 -229q2 -10 7.5 -29.5t5.5 -36.5q-9 -41 -50 -41q-27 0 -65 54l-221 258q-49 60 -49 73q5 33 53 33z" />
    <glyph glyph-name="oacute" unicode="&#xf3;" horiz-adv-x="1421" 
d="M1327 598q-32 -176 -143.5 -322t-273.5 -229.5t-341 -83.5q-151 0 -269.5 68t-184.5 186.5t-66 265.5q0 33 8 107q31 169 144.5 314t276.5 231t329 86q151 0 272 -67.5t188.5 -185.5t67.5 -263q0 -70 -8 -107zM954 250q134 144 168 352q8 37 8 115q0 167 -89.5 272
t-262.5 105q-208 0 -343 -150.5t-173 -365.5q-12 -61 -12 -115q0 -166 88.5 -271.5t259.5 -105.5q200 0 356 164zM1106 1724q0 -8 -11.5 -25.5t-37.5 -47.5l-221 -258q-38 -54 -65 -54q-41 0 -50 41q0 17 5.5 36.5t7.5 29.5l86 229q8 25 14 40t14.5 22.5t22 9.5t37.5 2h22
q8 0 17.5 0.5t23.5 1t34 2t48 4.5q48 0 53 -33z" />
    <glyph glyph-name="ocircumflex" unicode="&#xf4;" horiz-adv-x="1421" 
d="M1327 598q-32 -176 -143.5 -322t-273.5 -229.5t-341 -83.5q-151 0 -269.5 68t-184.5 186.5t-66 265.5q0 33 8 107q31 169 144.5 314t276.5 231t329 86q151 0 272 -67.5t188.5 -185.5t67.5 -263q0 -70 -8 -107zM954 250q134 144 168 352q8 37 8 115q0 167 -89.5 272
t-262.5 105q-208 0 -343 -150.5t-173 -365.5q-12 -61 -12 -115q0 -166 88.5 -271.5t259.5 -105.5q200 0 356 164zM1137 1339h-69l-215 259l-306 -259h-67l312 419h178z" />
    <glyph glyph-name="otilde" unicode="&#xf5;" horiz-adv-x="1421" 
d="M1327 598q-32 -176 -143.5 -322t-273.5 -229.5t-341 -83.5q-151 0 -269.5 68t-184.5 186.5t-66 265.5q0 33 8 107q31 169 144.5 314t276.5 231t329 86q151 0 272 -67.5t188.5 -185.5t67.5 -263q0 -70 -8 -107zM954 250q134 144 168 352q8 37 8 115q0 167 -89.5 272
t-262.5 105q-208 0 -343 -150.5t-173 -365.5q-12 -61 -12 -115q0 -166 88.5 -271.5t259.5 -105.5q200 0 356 164zM1253 1656q-14 -79 -42.5 -138.5t-66.5 -99.5t-83 -60t-91 -20q-30 0 -59.5 9.5t-62 27.5t-70 43.5t-83.5 57.5q-29 20 -45 27t-39 7q-21 0 -37.5 -4
t-32 -20.5t-32 -50t-38.5 -92.5h-39q14 81 42 140.5t65.5 97.5t81.5 56.5t91 18.5q26 0 47 -3.5t45 -14t54.5 -30.5t76.5 -54q88 -66 139 -66q18 0 36 6.5t35.5 25t35.5 51t36 85.5h36z" />
    <glyph glyph-name="odieresis" unicode="&#xf6;" horiz-adv-x="1421" 
d="M1327 598q-32 -176 -143.5 -322t-273.5 -229.5t-341 -83.5q-151 0 -269.5 68t-184.5 186.5t-66 265.5q0 33 8 107q31 169 144.5 314t276.5 231t329 86q151 0 272 -67.5t188.5 -185.5t67.5 -263q0 -70 -8 -107zM954 250q134 144 168 352q8 37 8 115q0 167 -89.5 272
t-262.5 105q-208 0 -343 -150.5t-173 -365.5q-12 -61 -12 -115q0 -166 88.5 -271.5t259.5 -105.5q200 0 356 164zM792 1499q0 -32 -14 -60.5t-37 -51t-52 -35.5t-58 -13q-52 0 -84 32t-32 81q0 32 13.5 61.5t36 52t51.5 35.5t61 13q25 0 46 -9t36.5 -24.5t24 -36.5t8.5 -45z
M1235 1500q0 -33 -13.5 -62t-36 -51t-51.5 -35t-60 -13q-25 0 -46 9t-36.5 24.5t-24.5 36.5t-9 45q0 31 14 59.5t37.5 51t53 36t59.5 13.5q23 0 43.5 -8.5t36 -23.5t24.5 -36t9 -46z" />
    <glyph glyph-name="divide" unicode="&#xf7;" horiz-adv-x="1495" 
d="M1311 881l-39 -230h-1073l39 230h1073zM948 1203q-1 -27 -12 -52t-30 -44.5t-45 -31t-56 -11.5q-45 0 -72.5 27.5t-27.5 69.5q0 30 13 56t34 45t46.5 30t50.5 11q42 0 70.5 -27.5t28.5 -72.5zM803 367q-1 -27 -12 -52t-30 -44.5t-45 -31t-56 -11.5q-45 0 -72.5 27.5
t-27.5 69.5q0 30 13 56t34 45t46.5 30t50.5 11q42 0 70.5 -27.5t28.5 -72.5z" />
    <glyph glyph-name="oslash" unicode="&#xf8;" horiz-adv-x="1421" 
d="M1359 1183l-142 -145q57 -66 88 -150t31 -184q0 -101 -29.5 -195t-81.5 -176.5t-123.5 -150.5t-156.5 -116.5t-179.5 -75.5t-191.5 -27q-91 0 -169 25.5t-142 70.5l-125 -128l-85 64l131 134q-63 69 -97.5 158.5t-34.5 195.5q0 94 29 185.5t81 173.5t123 151.5t155 120
t177 79t189 28.5q97 0 182.5 -29t154.5 -83l135 138zM1034 998q-45 45 -107.5 70.5t-147.5 25.5q-80 0 -149.5 -25t-128 -69t-104.5 -104t-78 -130t-49 -148t-17 -157q0 -60 12 -113.5t37 -98.5zM1134 715q0 55 -10 104.5t-30 91.5l-728 -745q43 -38 101 -59t133 -21
q79 0 149.5 25.5t130 70t106.5 105t80 130.5t50.5 146t17.5 152z" />
    <glyph glyph-name="ugrave" unicode="&#xf9;" horiz-adv-x="1319" 
d="M188 852q13 86 13 164q-4 37 -54 61q-32 16 -32 53q5 34 97.5 62.5t139.5 28.5q74 0 74 -86q0 -16 -8 -58l-111 -643q-20 -123 -20 -151q0 -45 8 -66q43 -115 188 -115q88 0 185 36.5t163 99.5q54 51 66.5 90.5t28.5 130.5l73 422q4 24 8.5 44t6.5 33t2 29q0 57 -45 90
q-33 16 -33 45q8 34 70 58q84 41 172 41q53 0 53 -70q0 -42 -8 -90l-135 -750q-13 -83 -13 -164q11 -20 62 -36q41 -22 41 -54q-6 -37 -21 -47t-53 -10h-176q-45 0 -45 172q-103 -93 -227.5 -151t-239.5 -58q-201 0 -275 139q-45 82 -45 189q0 62 17 155zM610 1749
q98 0 115 -12q11 -7 28 -62l86 -229q2 -10 7.5 -29.5t5.5 -36.5q-9 -41 -50 -41q-27 0 -65 54l-221 258q-49 60 -49 73q5 33 53 33z" />
    <glyph glyph-name="uacute" unicode="&#xfa;" horiz-adv-x="1319" 
d="M188 852q13 86 13 164q-4 37 -54 61q-32 16 -32 53q5 34 97.5 62.5t139.5 28.5q74 0 74 -86q0 -16 -8 -58l-111 -643q-20 -123 -20 -151q0 -45 8 -66q43 -115 188 -115q88 0 185 36.5t163 99.5q54 51 66.5 90.5t28.5 130.5l73 422q4 24 8.5 44t6.5 33t2 29q0 57 -45 90
q-33 16 -33 45q8 34 70 58q84 41 172 41q53 0 53 -70q0 -42 -8 -90l-135 -750q-13 -83 -13 -164q11 -20 62 -36q41 -22 41 -54q-6 -37 -21 -47t-53 -10h-176q-45 0 -45 172q-103 -93 -227.5 -151t-239.5 -58q-201 0 -275 139q-45 82 -45 189q0 62 17 155zM1024 1724
q0 -8 -11.5 -25.5t-37.5 -47.5l-221 -258q-38 -54 -65 -54q-41 0 -50 41q0 17 5.5 36.5t7.5 29.5l86 229q8 25 14 40t14.5 22.5t22 9.5t37.5 2h22q8 0 17.5 0.5t23.5 1t34 2t48 4.5q48 0 53 -33z" />
    <glyph glyph-name="ucircumflex" unicode="&#xfb;" horiz-adv-x="1319" 
d="M188 852q13 86 13 164q-4 37 -54 61q-32 16 -32 53q5 34 97.5 62.5t139.5 28.5q74 0 74 -86q0 -16 -8 -58l-111 -643q-20 -123 -20 -151q0 -45 8 -66q43 -115 188 -115q88 0 185 36.5t163 99.5q54 51 66.5 90.5t28.5 130.5l73 422q4 24 8.5 44t6.5 33t2 29q0 57 -45 90
q-33 16 -33 45q8 34 70 58q84 41 172 41q53 0 53 -70q0 -42 -8 -90l-135 -750q-13 -83 -13 -164q11 -20 62 -36q41 -22 41 -54q-6 -37 -21 -47t-53 -10h-176q-45 0 -45 172q-103 -93 -227.5 -151t-239.5 -58q-201 0 -275 139q-45 82 -45 189q0 62 17 155zM1074 1339h-69
l-215 259l-306 -259h-67l312 419h178z" />
    <glyph glyph-name="udieresis" unicode="&#xfc;" horiz-adv-x="1319" 
d="M188 852q13 86 13 164q-4 37 -54 61q-32 16 -32 53q5 34 97.5 62.5t139.5 28.5q74 0 74 -86q0 -16 -8 -58l-111 -643q-20 -123 -20 -151q0 -45 8 -66q43 -115 188 -115q88 0 185 36.5t163 99.5q54 51 66.5 90.5t28.5 130.5l73 422q4 24 8.5 44t6.5 33t2 29q0 57 -45 90
q-33 16 -33 45q8 34 70 58q84 41 172 41q53 0 53 -70q0 -42 -8 -90l-135 -750q-13 -83 -13 -164q11 -20 62 -36q41 -22 41 -54q-6 -37 -21 -47t-53 -10h-176q-45 0 -45 172q-103 -93 -227.5 -151t-239.5 -58q-201 0 -275 139q-45 82 -45 189q0 62 17 155zM664 1499
q0 -32 -14 -60.5t-37 -51t-52 -35.5t-58 -13q-52 0 -84 32t-32 81q0 32 13.5 61.5t36 52t51.5 35.5t61 13q25 0 46 -9t36.5 -24.5t24 -36.5t8.5 -45zM1107 1500q0 -33 -13.5 -62t-36 -51t-51.5 -35t-60 -13q-25 0 -46 9t-36.5 24.5t-24.5 36.5t-9 45q0 31 14 59.5t37.5 51
t53 36t59.5 13.5q23 0 43.5 -8.5t36 -23.5t24.5 -36t9 -46z" />
    <glyph glyph-name="yacute" unicode="&#xfd;" horiz-adv-x="1221" 
d="M147 963q0 106 -32 139q-33 31 -33 53q4 45 74 45h270q49 0 49 -41q-4 -24 -40.5 -50t-59 -53t-35.5 -98q-4 -32 -4 -143q0 -209 20 -332q35 -142 90 -213q61 -90 132 -90q118 0 249 250q165 337 193 496q8 56 8 73q0 53 -11 66.5t-43 40t-32 57.5q8 37 62 37h225
q45 0 45 -33q0 -19 -8 -37q-58 -77 -74 -131l-74 -217q-132 -385 -430 -798q-153 -203 -335.5 -353.5t-360.5 -150.5q-127 0 -127 102q6 38 37.5 66t68.5 28q22 0 67 -10t68 -10q76 0 178.5 71t189 168t128.5 179q-79 -25 -123 -25q-101 0 -172.5 79.5t-105.5 186.5
q-58 163 -58 525zM986 1724q0 -8 -11.5 -25.5t-37.5 -47.5l-221 -258q-38 -54 -65 -54q-41 0 -50 41q0 17 5.5 36.5t7.5 29.5l86 229q8 25 14 40t14.5 22.5t22 9.5t37.5 2h22q8 0 17.5 0.5t23.5 1t34 2t48 4.5q48 0 53 -33z" />
    <glyph glyph-name="thorn" unicode="&#xfe;" horiz-adv-x="1475" 
d="M1391 739q0 -62 -12 -129q-25 -143 -88.5 -261.5t-156 -204.5t-209 -133.5t-246.5 -47.5h-6q-32 0 -78 8t-88.5 23.5t-72.5 38t-30 52.5q0 11 4.5 23t12 21.5t18 16t21.5 6.5q27 0 50 -17q82 -45 201 -45q68 0 130 24.5t114.5 68t95 103.5t72 131t45.5 151t16 163
q0 73 -17 136t-53 108.5t-93.5 71.5t-138.5 26q-82 0 -157.5 -28t-136 -79t-102.5 -123.5t-57 -162.5l-151 -868q-7 -39 -11.5 -68t-4.5 -50q0 -29 15.5 -46t34 -29.5t34 -24.5t15.5 -30v-6q-10 -58 -71 -58h-308q-33 0 -47 5.5t-14 28.5q0 12 1.5 21t7 18t16 18t27.5 20
q83 0 113 176l283 1634q5 32 9.5 63.5t4.5 60.5q0 51 -16 85t-61 41q-67 9 -67 37v4q3 15 18.5 32t38.5 33.5t50 31.5t53.5 26.5t49.5 18t37 6.5q16 0 35 -11.5t35.5 -35.5t27 -59.5t10.5 -83.5q0 -17 -1.5 -36.5t-5.5 -40.5l-103 -594q226 222 461 222q97 0 179 -34.5
t141 -97.5t92.5 -152t33.5 -198z" />
    <glyph glyph-name="ydieresis" unicode="&#xff;" horiz-adv-x="1221" 
d="M147 963q0 106 -32 139q-33 31 -33 53q4 45 74 45h270q49 0 49 -41q-4 -24 -40.5 -50t-59 -53t-35.5 -98q-4 -32 -4 -143q0 -209 20 -332q35 -142 90 -213q61 -90 132 -90q118 0 249 250q165 337 193 496q8 56 8 73q0 53 -11 66.5t-43 40t-32 57.5q8 37 62 37h225
q45 0 45 -33q0 -19 -8 -37q-58 -77 -74 -131l-74 -217q-132 -385 -430 -798q-153 -203 -335.5 -353.5t-360.5 -150.5q-127 0 -127 102q6 38 37.5 66t68.5 28q22 0 67 -10t68 -10q76 0 178.5 71t189 168t128.5 179q-79 -25 -123 -25q-101 0 -172.5 79.5t-105.5 186.5
q-58 163 -58 525zM648 1499q0 -32 -14 -60.5t-37 -51t-52 -35.5t-58 -13q-52 0 -84 32t-32 81q0 32 13.5 61.5t36 52t51.5 35.5t61 13q25 0 46 -9t36.5 -24.5t24 -36.5t8.5 -45zM1091 1500q0 -33 -13.5 -62t-36 -51t-51.5 -35t-60 -13q-25 0 -46 9t-36.5 24.5t-24.5 36.5
t-9 45q0 31 14 59.5t37.5 51t53 36t59.5 13.5q23 0 43.5 -8.5t36 -23.5t24.5 -36t9 -46z" />
    <glyph glyph-name="OE" unicode="&#x152;" horiz-adv-x="2625" 
d="M2595 1748l-6 -167q-8 -41 -48 -41q-28 0 -41 21q-110 168 -262 168h-406q-47 0 -80.5 -10t-57.5 -33.5t-39 -62t-25 -95.5l-81 -463h487q114 0 182 53q36 33 62 33q31 0 31 -67q0 -37 -5.5 -77t-16.5 -73.5t-29 -55.5t-43 -22q-14 0 -28.5 12t-35.5 27t-51.5 27
t-75.5 12h-499l-86 -496q-8 -48 -13 -86.5t-5 -70.5q0 -41 9.5 -69.5t31.5 -46.5t58.5 -26t89.5 -8h381q156 0 331 139q12 10 26 21.5t28.5 21.5t27 16.5t21.5 6.5h3q34 0 34 -32q0 -11 -1 -13q-1 -6 -9 -30t-17 -51.5t-17 -51.5t-9 -31q-17 -47 -26.5 -72.5t-23 -37.5
t-35.5 -14.5t-64 -2.5h-1119q-69 -18 -138 -27.5t-144 -9.5q-177 0 -316 55t-234 154.5t-145 237.5t-50 303q0 156 38 304.5t108.5 279.5t169.5 241.5t221 189.5t264 123.5t297 44.5q69 0 133 -9.5t124 -26.5h1055q31 -9 50 -33.5t19 -69.5v-9zM1418 1610q0 5 0.5 9t0.5 8
q0 48 -20.5 75t-53.5 40t-74 16t-81 3q-107 0 -208.5 -38t-192 -106.5t-166.5 -164t-131 -211t-86 -247t-31 -271.5q0 -139 36 -254.5t103.5 -199t164 -129.5t217.5 -46q53 0 101 6.5t86.5 25.5t65 53.5t36.5 90.5z" />
    <glyph glyph-name="oe" unicode="&#x153;" horiz-adv-x="2311" 
d="M2261 940q-8 -139 -101.5 -234.5t-269.5 -156.5q-38 -12 -90 -26.5t-118.5 -29t-148 -27t-177.5 -20.5l-50 -4q1 -77 29 -139t76.5 -106t114.5 -67.5t144 -23.5q63 0 114 11.5t95.5 31.5t84 47t79.5 59q77 64 102 64q38 0 38 -33q0 -45 -49 -96.5t-146 -111.5
q-184 -115 -384 -115q-81 0 -151.5 19t-128 54t-102 85t-72.5 112q-54 -62 -120 -112t-140 -85t-154 -54t-162 -19q-111 0 -206.5 39t-165.5 108t-110 164t-40 208q0 94 29 185.5t81 173.5t123 151.5t154.5 120.5t177 79.5t189.5 28.5q82 0 157.5 -21.5t138.5 -61.5
t112 -96.5t79 -126.5q55 67 122.5 123.5t144 97t161.5 63t175 22.5q85 0 152.5 -22.5t115 -61t72.5 -89.5t25 -108zM1134 716q0 81 -22.5 150.5t-67 120t-111 79t-154.5 28.5q-80 0 -149.5 -25t-128 -68.5t-104.5 -103.5t-77.5 -130t-48.5 -148t-17 -157q0 -80 21.5 -148.5
t64.5 -119t108 -79.5t152 -29q79 0 149 25.5t129.5 70t106.5 105t80.5 130.5t51 146.5t17.5 152.5zM2057 941q0 77 -53.5 115t-142.5 38q-111 0 -204 -42.5t-164 -116t-118 -172t-66 -210.5h9q176 13 313.5 43.5t232 78.5t144 114.5t49.5 151.5z" />
    <glyph glyph-name="Scaron" unicode="&#x160;" horiz-adv-x="1524" 
d="M979 1073q253 -64 340 -143q123 -111 123 -295q0 -28 -8 -86q-51 -260 -287 -430q-222 -156 -533 -156q-285 0 -446 127q-160 142 -160 324q16 82 78 82q49 0 74 -70q63 -161 155 -229q138 -103 353 -103q126 0 246.5 45.5t207 136.5t107.5 216q0 165 -124 236
t-370.5 136t-371.5 145t-125 257q0 28 8 94q36 232 254 389q200 147 483 147q268 0 447 -122q42 -44 45 -66q0 -63 -21 -147q-12 -86 -57 -86q-21 0 -81.5 85t-154.5 147t-264 62q-143 0 -268.5 -88t-149.5 -227q0 -150 71.5 -220t207.5 -108zM1415 2417l-313 -419h-178
l-166 419h67l216 -259l305 259h69z" />
    <glyph glyph-name="scaron" unicode="&#x161;" horiz-adv-x="1016" 
d="M610 705q157 -45 226 -107q65 -71 65 -225q-22 -124 -105 -217t-200.5 -143t-235.5 -50q-151 0 -278 82q-107 72 -107 184q5 27 27.5 50.5t50.5 23.5q31 0 82 -74q59 -78 107 -102q88 -45 168 -45q100 0 193 58t110 155q0 98 -70 139t-219 83.5t-225 97t-76 171.5
q0 20 8 70q23 157 180 270q134 95 316 95q162 0 295 -82q32 -24 32 -115q-18 -115 -53 -115q-27 0 -74.5 57t-102 94.5t-151.5 37.5t-176.5 -46t-97.5 -134q0 -77 45 -112.5t135 -68.5zM1042 1757l-313 -419h-178l-166 419h67l216 -259l305 259h69z" />
    <glyph glyph-name="Ydieresis" unicode="&#x178;" horiz-adv-x="1778" 
d="M1880 1860q90 0 90 -45q-4 -35 -53 -62q-44 -23 -63 -39t-52 -63q-118 -173 -360 -447q-177 -198 -430 -459l-99 -565q0 -38 70 -57q57 -18 57 -66q-9 -57 -98 -57h-348q-82 0 -82 57q9 46 74 62q71 24 84 44.5t30 106.5l82 484q-11 22 -128.5 238t-188.5 359.5
t-121 278.5q-21 76 -86 107q-61 30 -61 73q9 50 86 50h376q74 0 74 -54q-5 -27 -38.5 -43.5t-65 -31.5t-35.5 -43q0 -123 135 -349q47 -81 123 -226.5t115 -219.5q331 350 450 483q185 211 197 279q0 35 -15.5 56t-45.5 40.5t-40 29.5t-10 34q8 45 90 45h287zM1085 2159
q0 -32 -14 -60.5t-37 -51t-52 -35.5t-58 -13q-52 0 -84 32t-32 81q0 32 13.5 61.5t36 52t51.5 35.5t61 13q25 0 46 -9t36.5 -24.5t24 -36.5t8.5 -45zM1528 2160q0 -33 -13.5 -62t-36 -51t-51.5 -35t-60 -13q-25 0 -46 9t-36.5 24.5t-24.5 36.5t-9 45q0 31 14 59.5t37.5 51
t53 36t59.5 13.5q23 0 43.5 -8.5t36 -23.5t24.5 -36t9 -46z" />
    <glyph glyph-name="florin" unicode="&#x192;" horiz-adv-x="1405" 
d="M1555 1773q0 -24 -8.5 -47.5t-23.5 -41.5t-35 -29t-44 -11q-36 0 -55.5 19.5t-19.5 45.5q0 16 7.5 31.5t16 29t16 25t7.5 20.5q0 8 -8 13.5t-36 10.5q-56 0 -97 -41t-78 -121.5t-76 -199.5t-91 -276h246l-39 -91h-239q-40 -108 -83 -216.5t-92 -226t-105.5 -247.5
t-124.5 -281q-95 -210 -180 -350t-164 -224t-153.5 -119.5t-147.5 -35.5q-69 0 -106.5 34t-37.5 85q0 30 12 57t30.5 47t41 31.5t44.5 11.5q30 0 53 -21t23 -51v-5q-2 -13 -8.5 -24t-14 -21t-14.5 -18.5t-10 -15.5v-2q0 -6 5.5 -15t24.5 -12q30 0 59.5 14t62.5 52.5
t70.5 105.5t82.5 173l215 569l292 705h-243l37 91q55 0 93.5 3.5t65.5 11t46 20t35 30.5q20 21 50 65.5t65 116.5q74 145 135.5 234t117.5 138t109 66t109 17q37 0 67 -10t51 -28t32.5 -41.5t11.5 -50.5z" />
    <glyph glyph-name="circumflex" unicode="&#x2c6;" horiz-adv-x="811" 
d="M847 1339h-69l-215 259l-306 -259h-67l312 419h178z" />
    <glyph glyph-name="tilde" unicode="&#x2dc;" horiz-adv-x="811" 
d="M954 1656q-14 -79 -42.5 -138.5t-66.5 -99.5t-83 -60t-91 -20q-30 0 -59.5 9.5t-62 27.5t-70 43.5t-83.5 57.5q-29 20 -45 27t-39 7q-21 0 -37.5 -4t-32 -20.5t-32 -50t-38.5 -92.5h-39q14 81 42 140.5t65.5 97.5t81.5 56.5t91 18.5q26 0 47 -3.5t45 -14t54.5 -30.5
t76.5 -54q88 -66 139 -66q18 0 36 6.5t35.5 25t35.5 51t36 85.5h36z" />
    <glyph glyph-name="quotesinglbase" unicode="&#x201a;" horiz-adv-x="721" 
d="M442 151q0 -48 -19 -102t-50 -106t-71.5 -100t-84 -84t-86 -57.5t-78.5 -21.5q-25 0 -25 16q0 13 15.5 29t37.5 34t46 37.5t41 39.5q42 51 62 88.5t20 70.5q-177 0 -177 123q0 45 18 80t47 59.5t67 37t77 12.5q75 0 117.5 -41.5t42.5 -114.5z" />
    <glyph glyph-name="uni201E" unicode="&#x201e;" horiz-adv-x="1217" 
d="M967 151q0 -48 -19 -102t-50 -106t-71.5 -100t-84 -84t-86 -57.5t-78.5 -21.5q-24 0 -24 16q0 14 15.5 30.5t37.5 34.5t46 37t40 38q82 95 82 159q-176 0 -176 123q0 45 17.5 80.5t47 59.5t67 36.5t77.5 12.5q72 0 115.5 -40.5t43.5 -115.5zM492 151q0 -48 -19 -102
t-50 -106t-71.5 -100t-84 -84t-86 -57.5t-78.5 -21.5q-24 0 -24 16q0 14 15.5 30.5t37.5 34.5t46 37t40 38q82 95 82 159q-176 0 -176 123q0 45 17.5 80.5t46.5 59.5t66.5 36.5t77.5 12.5q72 0 116 -40.5t44 -115.5z" />
    <glyph glyph-name="uni2020" unicode="&#x2020;" horiz-adv-x="1405" 
d="M1366 1275q0 -35 -14 -63.5t-38.5 -49t-57 -32t-69.5 -11.5q-38 0 -86 19t-117 46l-88 34q-11 3 -35 5t-48 5q-9 -59 -9 -105q0 -74 22.5 -125.5t66.5 -93.5q-44 -100 -77.5 -189.5t-60.5 -176t-50 -172.5t-46 -179q-21 -86 -41.5 -174t-40.5 -182t-39.5 -195.5
t-38.5 -213.5h-52q37 212 62.5 390t41 328.5t22 277.5t6.5 237q0 127 -12 249q41 30 72.5 62t54.5 70.5t39.5 85t27.5 106.5q-45 0 -88.5 -12.5t-101.5 -35.5q-78 -32 -133 -45.5t-87 -14.5q-52 0 -84 29.5t-32 77.5q0 42 17 72.5t44.5 50.5t64 29.5t75.5 9.5q4 0 11 -2.5
t23.5 -10.5t46 -22t78.5 -37q42 -20 85.5 -28.5t88.5 -10.5q5 28 7.5 49.5t2.5 36.5q0 28 -6.5 51.5t-18.5 64.5q-18 63 -25 114t-8 94q0 48 15 91t41 75t60.5 51t73.5 19q26 0 48.5 -11.5t39 -31t25.5 -46.5t9 -57q0 -32 -5.5 -58.5t-19.5 -57.5t-37.5 -71.5t-59.5 -100.5
q-37 -61 -59.5 -112.5t-30.5 -99.5q30 0 68.5 7t78.5 18t78 23.5t68 23.5t48.5 19t18.5 9q17 5 31.5 6.5t28.5 1.5q55 0 90 -30t35 -81z" />
    <glyph glyph-name="uni2021" unicode="&#x2021;" horiz-adv-x="1405" 
d="M1334 1388q0 -32 -12 -58t-33 -45t-48.5 -29.5t-58.5 -10.5q-41 0 -89.5 16t-117.5 47q-45 20 -67.5 25t-38.5 5h-29q-1 -13 -1.5 -24.5t-0.5 -22.5q0 -35 5 -59.5t15.5 -45t27.5 -39t42 -42.5q-44 -51 -76.5 -98t-56.5 -98.5t-41.5 -111t-30.5 -134.5
q-8 -48 -12.5 -88.5t-4.5 -75.5q0 -34 4 -65t12.5 -62.5t22 -65.5t32.5 -73q-42 -32 -68 -55t-43.5 -47t-30 -54.5t-27.5 -76.5l79 15q25 4 66 18t85 29t84 26.5t63 11.5q48 0 78 -27t30 -72q0 -32 -13 -59t-34 -47t-48.5 -31.5t-55.5 -11.5q-20 0 -42.5 6.5t-53 18.5
t-70.5 28t-94 35q-11 4 -35 5.5t-48 4.5q-2 -33 -3.5 -53.5t-1.5 -35.5q0 -22 8 -61t17.5 -81.5t17.5 -81.5t8 -61q0 -40 -13 -73.5t-35.5 -58t-53 -38t-64.5 -13.5q-51 0 -82.5 33t-31.5 87q0 9 1 19t2 18.5t2 14.5l1 6q0 8 2 15t11.5 25.5t29.5 54t56 101.5q25 45 41 88
t32 95q-32 0 -53.5 -2t-42.5 -7t-46.5 -15t-63.5 -26q-113 -48 -164 -48q-48 0 -77 27.5t-29 72.5q0 34 13 61.5t35 46.5t49.5 29.5t57.5 10.5q17 0 33 -2.5t34 -8t38.5 -14t47.5 -21.5q25 -12 44 -20.5t38.5 -13.5t41.5 -7.5t54 -2.5v27q0 36 -4 61.5t-14 47t-28 42
t-46 45.5q118 130 173 285t55 334q0 72 -17.5 134t-59.5 119q43 29 69 51t43 46.5t30 56t30 79.5q-14 0 -23 0.5t-17 0.5q-11 0 -20.5 -1.5t-26 -7t-44.5 -16t-75 -28.5q-54 -20 -95.5 -29.5t-73.5 -9.5q-48 0 -75 26t-27 71q0 28 12 54t31.5 45.5t45 31t53.5 11.5
q19 0 55.5 -11t76.5 -25t76.5 -28t57.5 -20q14 -4 33.5 -6t44.5 -6q9 15 9 47q0 33 -7.5 78t-16.5 91.5t-16.5 90.5t-7.5 76q0 37 14.5 69.5t37.5 56.5t53 38t60 14q51 0 80.5 -29t29.5 -86q0 -50 -23.5 -101.5t-54.5 -106t-60.5 -114t-41.5 -124.5q31 3 48 3.5t34.5 4.5
t43 13t74.5 29q54 22 98.5 34t82.5 12q48 0 76 -27.5t28 -70.5z" />
    <glyph glyph-name="uni2030" unicode="&#x2030;" horiz-adv-x="2809" 
d="M1016 1522v-16q0 -83 -19.5 -159.5t-54 -143.5t-81.5 -122t-101.5 -94.5t-114 -61t-118.5 -21.5q-68 0 -127 25t-103 73t-69.5 118.5t-25.5 161.5q0 81 18 158.5t50.5 146.5t78 127t100 100t117 65.5t129.5 23.5q64 0 122 -24.5t102.5 -73t70.5 -119.5t26 -164zM1770 538
v-16q0 -83 -19.5 -159.5t-54 -143.5t-81.5 -122t-101.5 -94.5t-113.5 -61t-119 -21.5q-68 0 -127 25t-103 73t-69.5 118.5t-25.5 161.5q0 81 18 158.5t50.5 146.5t78 127t100 100t117 65.5t129.5 23.5q64 0 122 -24.5t102.5 -73t70.5 -119.5t26 -164zM2689 538v-16
q0 -83 -19.5 -159.5t-54 -143.5t-81.5 -122t-101.5 -94.5t-113.5 -61t-119 -21.5q-68 0 -127 25t-103 73t-69.5 118.5t-25.5 161.5q0 81 18 158.5t50.5 146.5t78 127t100 100t117 65.5t129.5 23.5q64 0 122 -24.5t102.5 -73t70.5 -119.5t26 -164zM808 1604q0 115 -34 171
t-98 56q-41 0 -76.5 -31t-64.5 -83t-52 -119t-39 -139t-24 -143t-8 -131q0 -109 31.5 -160.5t91.5 -51.5q38 0 73 29t65.5 78t55 113t42.5 134t27.5 141.5t9.5 135.5zM1562 620q0 115 -34 171t-98 56q-41 0 -76.5 -31t-64.5 -83t-52 -119t-39 -139t-24 -143t-8 -131
q0 -109 31.5 -160.5t91.5 -51.5q38 0 73 29t65.5 78t55 113t42.5 134t27.5 141.5t9.5 135.5zM2481 620q0 115 -34 171t-98 56q-41 0 -76.5 -31t-64.5 -83t-52 -119t-39 -139t-24 -143t-8 -131q0 -109 31.5 -160.5t91.5 -51.5q38 0 73 29t65.5 78t55 113t42.5 134t27.5 141.5
t9.5 135.5zM1884 1903l-1676 -1978h-123l1678 1978h121z" />
    <glyph glyph-name="uni2039" unicode="&#x2039;" horiz-adv-x="935" 
d="M876 1282l-447 -646l223 -646h-79l-418 646l642 646h79z" />
    <glyph glyph-name="uni203A" unicode="&#x203a;" horiz-adv-x="935" 
d="M768 634l-652 -644h-79l444 644l-220 648h79z" />
    <glyph glyph-name="uni2122" unicode="&#x2122;" horiz-adv-x="2753" 
d="M2717 1625l-112 -642q-5 -29 -8 -52.5t-3 -41.5q0 -27 7 -43.5t22.5 -26.5t40.5 -13.5t62 -3.5l-9 -50h-545l9 50q60 0 94 8.5t53 29.5t28 55.5t18 85.5l117 675l-577 -904h-45l-267 892l-115 -661q-6 -32 -9 -56t-2 -43q0 -28 6.5 -44t19.5 -24.5t33.5 -11t47.5 -2.5h50
l-9 -50h-420l9 50q55 0 87.5 6.5t51 26t28.5 55t20 93.5l111 638q6 37 9 64.5t4 45.5q0 24 -7 39t-23 24t-42 12.5t-64 3.5l8 50h393l238 -786l499 786h375q-58 -19 -90.5 -38t-50.5 -45t-26 -62t-17 -90zM1254 1583h-48q1 3 1 12v12q0 42 -11.5 74t-38.5 53t-72 32t-111 11
h-101l-138 -794q-5 -28 -7.5 -51t-2.5 -40q0 -29 7 -46.5t22 -27t38.5 -13t56.5 -3.5l-9 -50h-513l9 50q45 4 73 11t46 25.5t28.5 52.5t20.5 92l138 794h-104q-67 0 -113.5 -10t-80 -32.5t-57 -59.5t-45.5 -92h-45l77 277h997z" />
    <glyph glyph-name="ring" unicode="&#x2da;" horiz-adv-x="802" 
d="M793 1598q0 -53 -22.5 -100t-59.5 -82t-84.5 -56t-97.5 -21q-41 0 -75 14.5t-58 39t-37.5 58t-13.5 72.5q0 52 22 99t58.5 82.5t83.5 56t97 20.5q41 0 75.5 -14t59 -38.5t38.5 -58t14 -72.5zM686 1580q0 42 -28 68.5t-71 26.5q-26 0 -50.5 -11t-43.5 -29.5t-30 -43
t-11 -51.5q0 -40 25 -67.5t70 -27.5q25 0 50 11t45 30t32 43.5t12 50.5z" />
    <glyph glyph-name="ring" unicode="&#x25e6;" horiz-adv-x="802" 
d="M793 1598q0 -53 -22.5 -100t-59.5 -82t-84.5 -56t-97.5 -21q-41 0 -75 14.5t-58 39t-37.5 58t-13.5 72.5q0 52 22 99t58.5 82.5t83.5 56t97 20.5q41 0 75.5 -14t59 -38.5t38.5 -58t14 -72.5zM686 1580q0 42 -28 68.5t-71 26.5q-26 0 -50.5 -11t-43.5 -29.5t-30 -43
t-11 -51.5q0 -40 25 -67.5t70 -27.5q25 0 50 11t45 30t32 43.5t12 50.5z" />
    <glyph glyph-name="dotlessi" unicode="&#x131;" horiz-adv-x="610" 
d="M479 1102q0 -27 -10.5 -97.5t-30.5 -185.5l-90 -508q-8 -48 -9 -87.5t-3 -71.5q1 -11 16 -19.5t32 -18t31.5 -23t14.5 -34.5q-9 -57 -90 -57h-287q-78 0 -78 57q6 21 24 33.5t40 22.5t42.5 20.5t31.5 26.5q11 17 21.5 45.5t17.5 68.5l94 537q1 10 3 27l4 34q2 17 3.5 31
t1.5 19q0 69 -82 90q-49 16 -49 49q0 13 10.5 24.5t34 24t61 28t91.5 38.5q45 19 69 31t35 14h2q16 0 25.5 -5t14.5 -18.5t7 -36.5t2 -59z" />
    <glyph glyph-name="caron" unicode="&#x2c7;" horiz-adv-x="811" 
d="M920 1757l-313 -419h-178l-166 419h67l216 -259l305 259h69z" />
    <glyph glyph-name="Euro" unicode="&#x20ac;" horiz-adv-x="1413" 
d="M1524 1717l-70 -403h-62q2 20 3 39.5t1 37.5q0 348 -324 348q-91 0 -173.5 -44.5t-154 -129t-130.5 -206t-103 -275.5h783l-54 -112h-757l-20 -100h730l-54 -112h-694q-12 -95 -12 -178q0 -111 21 -202t61.5 -155.5t100 -100t136.5 -35.5q76 0 136.5 12t120 45t123.5 91
t147 150l43 -31q-90 -112 -168 -186.5t-153.5 -119.5t-153.5 -63.5t-169 -18.5q-125 0 -219 43.5t-158 126t-96 201.5t-32 271q0 36 1.5 73.5t5.5 76.5h-136l53 112h98l3 16q4 19 7 40t9 44h-133l53 112h111q53 168 138.5 306t195 237t239.5 153.5t271 54.5q224 0 435 -118z
" />
    <glyph glyph-name="delete" horiz-adv-x="2048" 
 />
    <glyph glyph-name="Zcaron" unicode="&#x17d;" horiz-adv-x="1475" 
d="M1446 1860q53 0 79.5 -12t26.5 -62q-30 -175 -766 -971l-356 -397q-178 -197 -184 -238q0 -45 78 -45h311q187 0 313.5 25.5t239.5 122.5q99 82 123 82q28 0 28 -41q-10 -49 -37.5 -141t-44.5 -130q-22 -53 -102 -53h-1069q-135 0 -135 90q6 31 18.5 58t35 60t41 55.5
t40.5 51.5l209 246l729 807q60 65 145 174t93 146q0 45 -91 45h-229q-168 0 -270 -25q-162 -28 -271 -131q-7 -5 -22 -20.5t-25 -22t-22 -6.5q-33 0 -33 37q0 25 8 57q4 10 29 102.5t41 110.5q24 25 98 25h971zM1350 2417l-313 -419h-178l-166 419h67l216 -259l305 259h69z
" />
    <glyph glyph-name="zcaron" unicode="&#x17e;" horiz-adv-x="1065" 
d="M86 0q-60 0 -97.5 15t-37.5 67q10 64 129.5 193.5t292.5 302.5l368 368q71 71 74 98q-5 29 -82 29h-209q-94 0 -145 -17.5t-113 -84.5q-44 -58 -73 -58q-21 0 -21 29q6 37 16 70q35 126 70 176q21 12 94 12h611q77 0 106 -11t29 -54q-18 -90 -226 -295l-376 -381
l-201 -213q-50 -42 -57 -82q0 -37 69 -37h336q36 0 69 22t54 46t53 63q68 57 94 57q21 0 21 -32q-6 -43 -34 -124t-48 -114q-29 -45 -127 -45h-639zM1040 1757l-313 -419h-178l-166 419h67l216 -259l305 259h69z" />
    <glyph glyph-name="uni200B" unicode="&#x200b;" 
 />
    <glyph glyph-name="uni25CC" unicode="&#x25cc;" horiz-adv-x="2048" 
d="M1821 1546q-26 -147 -172 -147q-125 0 -125 106q0 37 13.5 71t37.5 59.5t56 41t69 15.5q24 0 46 -8t39 -23.5t27.5 -37.5t10.5 -50v-13q0 -4 -0.5 -7t-1.5 -7zM741 452q-26 -147 -172 -147q-125 0 -125 106q0 37 13.5 71t37.5 59.5t56 41t69 15.5q24 0 46 -8t39 -23.5
t27.5 -37.5t10.5 -50v-13q0 -4 -0.5 -7t-1.5 -7zM1658 465q-26 -147 -171 -147q-126 0 -126 107q0 37 14 70.5t38 59t56 41t69 15.5q24 0 46 -8t39 -23.5t27 -37.5t10 -50v-14q0 -3 -0.5 -6t-1.5 -7zM1124 172q-26 -147 -171 -147q-126 0 -126 107q0 37 14 70.5t38 59t56 41
t69 15.5q24 0 46 -8t39 -23.5t27 -37.5t10 -50v-14q0 -3 -0.5 -6t-1.5 -7zM711 1012q-26 -147 -171 -147q-126 0 -126 107q0 37 14 70.5t38 59t56 41t69 15.5q24 0 46 -8t39 -23.5t27 -37.5t10 -50v-14q0 -3 -0.5 -6t-1.5 -7zM1414 1838q-26 -147 -172 -147q-125 0 -125 106
q0 37 13.5 71t37.5 59.5t56 41t69 15.5q24 0 46 -8t39 -24t27.5 -38.5t10.5 -50.5q0 -6 -0.5 -12t-1.5 -13zM1848 973q-26 -147 -171 -147q-126 0 -126 107q0 37 14 70.5t38 59t56.5 41t68.5 15.5q24 0 46 -8t39 -23.5t27 -37.5t10 -50v-14q0 -3 -0.5 -6t-1.5 -7zM875 1520
q-26 -147 -171 -147q-126 0 -126 107q0 37 14 70.5t38 59t56.5 41t68.5 15.5q24 0 46 -8t39 -23.5t27 -37.5t10 -50v-14q0 -3 -0.5 -6t-1.5 -7z" />
    <glyph glyph-name="zero.alt1" horiz-adv-x="1872" 
d="M1642 1011q-1 -118 -27.5 -239t-77 -234t-123.5 -212.5t-167 -173.5t-208 -116.5t-245 -42.5q-141 0 -246.5 49t-176.5 134.5t-106.5 201t-35.5 249.5q0 115 26.5 235.5t77.5 233.5t125 213t169 175t210 118.5t248 43.5q138 0 242.5 -49.5t174 -135t105 -201.5t35.5 -249
zM1358 1037q0 96 -16.5 177.5t-52.5 141.5t-93.5 94t-139.5 34q-88 0 -161.5 -40.5t-132.5 -109t-104 -158t-74.5 -188t-44.5 -199t-15 -191.5q0 -95 16.5 -176t52 -140.5t91.5 -93t136 -33.5q88 0 162.5 40t134 107.5t105 156t75.5 186.5t45.5 199t15.5 193z" />
    <glyph glyph-name="one.alt1" horiz-adv-x="1872" 
d="M1317 1572l-224 -1285q0 -39 3 -66.5t11.5 -44.5t24 -24.5t39.5 -7.5h51q70 0 70 -74q-4 -23 -11 -36.5t-18.5 -21t-27 -10t-36.5 -2.5h-590q-32 0 -43.5 12.5t-11.5 57.5q18 74 73 74h56q24 0 46.5 3.5t42 17.5t35 42.5t24.5 79.5l166 956q0 24 7 49q0 10 -2.5 20
t-10 17.5t-21.5 12.5t-36 5h-126q-40 0 -53 5t-13 13v12q0 38 22 66l15 3q15 3 39.5 7t55.5 10.5t62.5 14.5t61 17.5t50.5 20.5q54 28 81 50.5t45 38.5t36 25t53 9q54 0 54 -67z" />
    <glyph glyph-name="two.alt1" horiz-adv-x="1872" 
d="M1704 1284q0 -95 -34.5 -169.5t-93.5 -134t-138 -107.5t-168 -89.5t-183 -80t-183.5 -79.5t-169 -88t-139.5 -105q-105 -102 -117 -165q0 -29 3 -45.5t11 -25.5t23.5 -11.5t40.5 -2.5h605q100 0 164.5 29.5t106.5 86.5q39 53 62 53q10 0 10 -81l-54 -162q-9 -33 -23 -54
t-36.5 -32.5t-54 -16t-75.5 -4.5h-967q-117 0 -126 26q0 91 29 179.5t82 170t129 154.5t169 134q45 29 107.5 60.5t133.5 64t145 65t142 64t124.5 61t92.5 55.5q56 41 88 92t40 117q0 255 -384 255q-68 0 -133.5 -10t-118 -30t-86.5 -49.5t-39 -68.5v-85q0 -25 -5 -45.5
t-18.5 -37t-37.5 -29t-61 -21.5q-166 0 -166 118q0 93 57 168t152 128t217 81.5t253 28.5q149 0 265.5 -24t196 -70.5t121 -114t41.5 -153.5z" />
    <glyph glyph-name="three.alt1" horiz-adv-x="1872" 
d="M1655 1277q-24 -187 -181 -260q-75 -35 -139 -59q-62 -23 -109 -25q17 -2 48 -7q34 -6 74 -20t82 -37.5t76.5 -60t56.5 -87.5t22 -119q0 -100 -29.5 -184t-82 -151.5t-125.5 -118.5t-160.5 -85.5t-186 -52t-202.5 -17.5q-113 0 -218 22.5t-186 63.5t-130 98.5t-49 128.5
q0 43 15.5 80.5t41 65.5t58 44.5t66.5 16.5q27 0 47.5 -9.5t35 -23.5t21.5 -30t7 -29q0 -9 -4.5 -25t-10.5 -33.5t-10.5 -33.5t-4.5 -26q0 -37 25.5 -65.5t68 -48.5t97 -30.5t112.5 -10.5q491 0 531 376q0 66 -17 115t-46.5 84.5t-68.5 58.5t-83 37t-90.5 20.5t-89.5 8.5
q-49 2 -75.5 6t-31.5 6q-22 12 -22 48q0 25 4 44t20 31t47.5 18t87.5 6q42 1 91.5 7t98.5 18.5t95 33.5t81 51.5t56 71.5t21 95q0 47 -19 87t-58.5 69t-100 45.5t-144.5 16.5q-80 0 -140.5 -9.5t-104.5 -29t-74.5 -48t-51.5 -67.5q-17 -31 -27.5 -49.5t-24.5 -28.5t-36 -14
t-61 -5q-37 0 -62.5 23.5t-25.5 61.5q0 41 18 74q134 236 627 236q550 0 550 -369z" />
    <glyph glyph-name="four.alt1" horiz-adv-x="1872" 
d="M1661 524q-4 -24 -10 -38.5t-15 -22.5t-22 -10.5t-31 -2.5h-229l-28 -163q0 -39 3 -66.5t11 -44.5t23.5 -24.5t39.5 -7.5h51q74 0 74 -74q-3 -24 -10 -37.5t-19 -21t-28.5 -9.5t-38.5 -2h-587q-32 0 -45 12.5t-13 57.5q17 74 73 74h56q27 0 50 3t41.5 17t32.5 42.5
t23 80.5l30 163h-786q-81 0 -96 34q0 47 23.5 104t64 120t95 130t117 133.5t129 130.5t132 122t126 107t109.5 85q145 106 256.5 164.5t187.5 58.5q31 0 51 -1.5t31.5 -6.5t16 -15t4.5 -26l-173 -992h225q15 0 25 -1.5t17 -9t10 -22.5t3 -41zM1240 1296q0 59 -25 65
q-82 0 -425 -310q-69 -62 -130.5 -126.5t-108 -122t-73.5 -104.5t-27 -75q10 -25 103 -25h564z" />
    <glyph glyph-name="five.alt1" horiz-adv-x="1872" 
d="M1618 1646q-2 -27 -27 -65.5t-68.5 -76t-103.5 -66.5t-132 -36q-38 -5 -65.5 -5.5t-45.5 -1.5q-35 0 -78.5 3.5t-88 9t-87.5 12.5t-77 13t-56.5 11t-26.5 7l-150 -439q10 10 53.5 31t111.5 43t157 38.5t189 16.5q111 -11 197 -45t145 -89.5t89.5 -130.5t30.5 -168
q0 -74 -16 -145.5t-44 -137.5t-67 -123.5t-85 -102.5q-109 -106 -257.5 -158t-327.5 -52q-120 0 -218.5 23t-169 71.5t-109 123t-38.5 177.5q7 38 22.5 71t38 57.5t50 38.5t58.5 14q51 0 79.5 -25t28.5 -61q0 -11 -6 -35t-12.5 -50.5t-12.5 -50t-6 -33.5q0 -39 22.5 -69
t62 -50t92.5 -30t115 -10q162 0 278 57.5t188 186.5q76 137 76 265q0 82 -29 141t-79.5 97.5t-118.5 57t-146 18.5q-66 0 -132.5 -13t-123 -33.5t-97 -45.5t-53.5 -48q-18 -33 -59 -33q-12 0 -27.5 4t-29 12t-22.5 19.5t-9 26.5q0 9 18 63l247 720q23 -4 61 -10t84.5 -12.5
t98.5 -13t103.5 -11.5t100 -8.5t87.5 -3.5t84 5.5t90 13t86.5 17t73 18t50.5 14t19 6.5q14 0 14 -15z" />
    <glyph glyph-name="six.alt1" horiz-adv-x="1872" 
d="M1519 1583q0 -30 -23.5 -38t-71.5 -13.5t-122.5 -18t-176.5 -51.5q-86 -33 -169 -96t-155 -147t-129.5 -184t-93.5 -208q196 196 520 196q123 0 220 -27t164 -78t102 -125.5t35 -169.5q0 -101 -29 -186.5t-81.5 -155.5t-124.5 -124t-158 -90.5t-183 -55t-199 -18.5
q-148 0 -259 36t-184.5 102t-110.5 157.5t-37 202.5q0 94 25 197t66.5 201.5t95 185.5t109.5 149q82 93 169.5 160t174 113t169 74t155.5 43t133 20t102 5q33 0 50 -17t17 -39zM1364 569q0 63 -23 118t-68 96t-112 64.5t-155 23.5q-109 -1 -199 -37.5t-155 -96t-101 -136.5
t-36 -158q0 -64 23.5 -118.5t69 -94.5t113 -63t156.5 -23q108 0 197.5 35.5t154 95t100 136t35.5 158.5z" />
    <glyph glyph-name="seven.alt1" horiz-adv-x="1872" 
d="M1630 1606q0 -29 -17 -66.5t-54 -91.5t-94.5 -128.5t-139.5 -177.5q-65 -82 -115.5 -148t-90.5 -121.5t-72.5 -103t-61 -93t-55.5 -90.5t-56 -95t-57.5 -102t-55 -102.5t-49.5 -95.5t-40.5 -79.5t-28.5 -56.5t-13 -25q-14 -20 -58 -28.5t-113 -8.5q-135 0 -139 37
q0 33 26 94.5t72.5 141.5t109 173.5t135.5 190.5t153 192.5t161 180.5q24 26 59.5 63.5t74.5 78.5t78.5 82t71.5 74.5t53 56t24 26.5q0 40 -78 40h-693q-29 0 -54.5 -3t-49.5 -11t-43 -34t-36 -55t-34 -54t-38 -31q-71 0 -71 15q4 10 12.5 35t19.5 58l23 70q13 38 24 73.5
t19.5 64.5t12.5 46q11 41 78 41h1100q95 0 100 -33z" />
    <glyph glyph-name="eight.alt1" horiz-adv-x="1872" 
d="M1643 1270q-14 -74 -48.5 -130.5t-84.5 -97.5t-112.5 -66t-131.5 -35q78 -10 143.5 -40.5t112 -80t72.5 -117.5t26 -153q-13 -142 -75 -247.5t-167 -176t-251 -105.5t-326 -35q-143 0 -250.5 26.5t-179 76.5t-107 123t-35.5 165q0 89 26.5 164.5t67.5 136.5t91 107
t97 77.5t85 47.5q35 14 54 16q-8 1 -24 7q-20 7 -46 21t-54 35.5t-51.5 51t-38.5 67t-15 84.5q0 112 52 197t146.5 142t226.5 86t291 29q112 0 205.5 -21t160 -66.5t103.5 -117t37 -171.5zM1314 542q0 74 -33 126t-82 87t-106.5 55t-107 30.5t-82.5 13.5t-34 3
q-20 0 -58.5 -13.5t-85.5 -40t-96.5 -64.5t-89.5 -86.5t-66 -108t-26 -127.5q0 -64 29.5 -115t82 -87t124 -55t155.5 -19q91 0 176.5 25.5t152 75.5t107 125.5t40.5 174.5zM1447 1288q0 210 -343 210q-74 0 -145 -17.5t-126.5 -50t-89.5 -80t-34 -107.5q0 -30 20 -57t52 -50
t72 -41t79 -31t73 -20t55 -7q11 0 43.5 5.5t74.5 17.5t89 31.5t86 47t65.5 65t28.5 84.5z" />
    <glyph glyph-name="nine.alt1" horiz-adv-x="1872" 
d="M1617 1148q0 -121 -33 -262q-216 -893 -1237 -893q-92 0 -92 48q0 43 47 73q24 8 134 8q127 0 248.5 33.5t225 94.5t184.5 146t128 188q67 150 81 228q-8 -8 -39.5 -38.5t-93 -65t-156.5 -61.5t-228 -27q-120 0 -216.5 27t-165 78.5t-105.5 125.5t-37 167q0 104 30 191
t83 157t126 122.5t159.5 87.5t182.5 52.5t196 17.5q289 0 433.5 -128.5t144.5 -369.5zM1351 1196q0 61 -23 115.5t-69 95.5t-113.5 64.5t-156.5 23.5q-108 0 -197.5 -35.5t-154 -94.5t-100 -136t-35.5 -159q0 -64 24 -119t70 -95.5t113.5 -64t154.5 -23.5q107 1 196.5 37.5
t154 96t100.5 136t36 158.5z" />
    <glyph glyph-name="uni0E47.sm" 
d="M9 2964q0 -35 -17 -58t-44.5 -37t-63.5 -20t-75 -6q-13 0 -38 0.5t-56 2t-65.5 2.5t-65.5 2.5t-55.5 2t-36.5 0.5q-42 0 -75.5 -3t-56.5 -15.5t-35 -37.5t-12 -69q0 -25 15 -29q17 0 47 12t61.5 26t59 26t39.5 12q16 0 34 -9q45 -30 76 -49.5t50.5 -30.5t30 -15.5
t14.5 -4.5q5 27 11.5 47t19 33t33.5 20t55 9q54 0 80.5 -22.5t26.5 -57.5q0 -73 -54 -110.5t-147 -37.5q-33 0 -56 4t-42.5 12t-39 20.5t-45.5 29.5q-51 33 -77 33q-9 0 -38.5 -11t-64.5 -25.5t-68.5 -28.5t-49.5 -21q-22 -9 -45 -13t-45 -4q-45 0 -70.5 23.5t-25.5 81.5
q0 26 6 61q14 76 45 125.5t75.5 77.5t100.5 39t120 11q11 0 46.5 -1.5t80 -3.5t90 -3.5t76.5 -1.5q45 0 71 7.5t41 19t21.5 25t11.5 25t11.5 19t22.5 7.5q45 0 68.5 -27.5t23.5 -63.5z" />
    <glyph glyph-name="uni0E48.small" 
d="M134 2932l-56 -306q-4 -20 -13 -33.5t-25.5 -21.5t-42.5 -11.5t-63 -3.5q-66 0 -93 11.5t-27 40.5q0 2 1 9t2.5 15.5t2.5 16t1 10.5l60 326q13 70 148 70q115 0 115 -57z" />
    <glyph glyph-name="uni0E49.small" 
d="M433 2863q-5 -31 -26.5 -65t-55.5 -67.5t-78 -65t-93.5 -57t-103 -43.5t-106.5 -25q-46 -6 -99 -9.5t-116 -3.5q-263 0 -263 63q0 10 13 25t29.5 35.5t31.5 46t20 56.5q0 16 -13.5 27t-30 19.5t-30 16.5t-13.5 18q4 24 30.5 44t64.5 34t82 21.5t84 7.5q72 0 98 -19.5
t26 -53.5q0 -54 -27 -101.5t-70 -83.5q0 -11 16 -16t54 -5q91 0 151.5 20.5t97.5 48t54.5 55t23.5 42.5q10 22 17 35t19 19.5t32.5 8t58.5 1.5q116 0 122 -29z" />
    <glyph glyph-name="uni0E4A.small" 
d="M574 2945q-3 -15 -14.5 -29.5t-27.5 -30t-34.5 -34t-34.5 -41.5q-53 -75 -107.5 -127.5t-113.5 -86.5t-123 -49.5t-135 -15.5q-130 0 -130 50q0 12 4.5 22t10.5 18q19 27 34 66.5t15 76.5q0 34 -19 46q-8 0 -29 -11t-46 -24t-48.5 -24t-35.5 -11q-9 0 -26 11.5t-35 25.5
t-34 25.5t-23 11.5q-16 0 -26.5 -18t-21.5 -68q-5 -13 -5 -29t9.5 -28t20.5 -22t21 -18.5t11 -17.5q-7 -35 -62.5 -60.5t-158.5 -25.5q-15 0 -27 11.5t-19.5 30.5t-11.5 44.5t-4 53.5q0 57 15 112.5t44.5 98.5t73 69.5t100.5 26.5q28 0 48.5 -5t36.5 -14.5t30 -23.5t29 -31
q27 -32 42 -33q12 0 35 12t47 28t46 31t33 21q25 15 75 15q130 0 130 -116q0 -55 -18.5 -104t-42.5 -79q49 9 91 32t76 56.5t58 75.5t37 90q19 45 139 45q101 0 101 -27v-2z" />
    <glyph glyph-name="uni0E4B.small" 
d="M403 2825q0 -19 -4 -38.5t-11.5 -35t-18 -25.5t-23.5 -10h-213l-20 -111q-4 -20 -13 -33.5t-25.5 -21.5t-42.5 -11.5t-63 -3.5q-66 0 -93 11.5t-27 40.5q0 5 0.5 9t1.5 9l20 111h-213q-31 0 -31 43q0 54 18.5 81t40.5 27h213l23 127q12 70 148 70q115 0 115 -57v-7
q0 -4 -1 -6l-23 -127h212q30 0 30 -42z" />
    <glyph glyph-name="uni0E4C.small" 
d="M339 2964q0 -82 -46 -137t-152 -82q-42 -11 -67 -31.5t-25 -49.5q0 -15 12.5 -21t28 -9t28 -7.5t12.5 -17.5q0 -29 -13 -52.5t-36 -40t-55 -25t-69 -8.5q-75 0 -115.5 38t-40.5 111q0 67 19 108.5t57.5 67.5t96 43.5t134.5 37.5q72 19 110 43t46 63q5 25 12 32.5t18 7.5
q23 0 34 -19t11 -52z" />
    <glyph glyph-name="uni0E4D.small" 
d="M275 2780q0 -52 -24.5 -97.5t-68 -80t-103.5 -54.5t-130 -20q-60 0 -107 14.5t-78.5 40t-48 59.5t-16.5 73q0 49 24 94.5t66.5 80.5t101 56.5t128.5 21.5q61 0 109 -14.5t80.5 -40t49.5 -60t17 -73.5zM123 2766q0 37 -29 64t-89 27q-32 0 -60.5 -11t-49.5 -28.5
t-33 -40.5t-12 -47q0 -37 30.5 -62t85.5 -25q34 0 63 9.5t50 26t32.5 39t11.5 48.5z" />
    <glyph glyph-name="uni0E4E.small" 
d="M202 2949l-72 -57q-14 4 -27 9.5t-33 5.5q-32 0 -61 -10t-50.5 -27.5t-34.5 -40.5t-13 -48q0 -38 31 -57.5t73 -19.5l-40 -68q-43 -4 -84.5 -11t-74 -22.5t-52.5 -42.5t-20 -70q0 -31 20 -48.5t51 -17.5q64 0 102 42l44 -54q-77 -65 -192 -65q-80 0 -112.5 34t-32.5 86
q0 58 23 99t60 67t83 39t93 15q-38 11 -64 31.5t-26 62.5q0 38 24 72.5t62 60.5t85 41.5t94 15.5q19 0 40.5 -1.5t41.5 -4.5t36.5 -7t25.5 -9z" />
  </font>
</defs>
</svg>
